<svg width="16" height="16" viewBox="0 0 16 16" fill="none" xmlns="http://www.w3.org/2000/svg">
<path d="M9.5 14.5H6.5V15.5H9.5V14.5Z" fill="white"/>
<path d="M10 13H6V14H10V13Z" fill="white"/>
<path d="M11.5444 1.95908C10.6047 1.01814 9.34595 0.500014 8.00001 0.500014C7.34297 0.498448 6.69208 0.626708 6.08475 0.877427C5.47741 1.12815 4.92559 1.49638 4.46099 1.96099C3.99638 2.42559 3.62815 2.97741 3.37743 3.58475C3.12671 4.19208 2.99845 4.84297 3.00001 5.50002C3.00001 6.95689 3.55845 8.31971 4.53126 9.23877L4.66751 9.36658C5.23033 9.89283 6.00001 10.6138 6.00001 11.25V12.5H7.50001V8.4097L6.11626 7.62502L6.68751 6.80377L8.00001 7.50002L9.29033 6.80033L9.8872 7.60283L8.50001 8.41533V12.5H10V11.25C10 10.6288 10.7613 9.90846 11.3172 9.38221L11.4706 9.23658C12.4713 8.28127 13 6.98783 13 5.50002C13.0033 4.84291 12.8764 4.19165 12.6265 3.58388C12.3767 2.97611 12.0089 2.42387 11.5444 1.95908Z" fill="white"/>
</svg>
