<svg width="16" height="16" viewBox="0 0 16 16" fill="none" xmlns="http://www.w3.org/2000/svg">
<path d="M13.4689 10.0188C13.4376 9.90625 13.5064 9.75 13.572 9.6375C13.5921 9.60402 13.614 9.57167 13.6376 9.54062C14.199 8.70651 14.4992 7.72415 14.5001 6.71875C14.5095 3.8375 12.0783 1.5 9.07202 1.5C6.45015 1.5 4.26265 3.28437 3.75015 5.65312C3.67348 6.00421 3.63471 6.36251 3.63452 6.72188C3.63452 9.60625 5.97202 12.0063 8.97827 12.0063C9.4564 12.0063 10.1001 11.8625 10.4533 11.7656C10.8064 11.6688 11.1564 11.5406 11.247 11.5063C11.3399 11.4712 11.4384 11.4532 11.5376 11.4531C11.646 11.4527 11.7533 11.474 11.8533 11.5156L13.6251 12.1438C13.664 12.1602 13.7051 12.1707 13.747 12.175C13.8133 12.175 13.8769 12.1487 13.9238 12.1018C13.9707 12.0549 13.997 11.9913 13.997 11.925C13.9948 11.8964 13.9896 11.8681 13.9814 11.8406L13.4689 10.0188Z" stroke="white" stroke-miterlimit="10" stroke-linecap="round"/>
<path d="M2.07689 7.25C1.66703 7.98633 1.46876 8.82165 1.504 9.66362C1.53924 10.5056 1.80662 11.3214 2.27658 12.0209C2.34877 12.13 2.38939 12.2144 2.37689 12.2709C2.36439 12.3275 2.00408 14.2044 2.00408 14.2044C1.99542 14.2483 1.9987 14.2937 2.0136 14.3359C2.0285 14.3782 2.05446 14.4156 2.08877 14.4444C2.13455 14.4808 2.19148 14.5005 2.25002 14.5C2.2813 14.5001 2.31226 14.4937 2.34096 14.4812L4.09752 13.7937C4.21841 13.7461 4.35328 13.7483 4.47252 13.8C5.06439 14.0306 5.71877 14.175 6.37346 14.175C7.25198 14.1759 8.11508 13.9442 8.87502 13.5034" stroke="white" stroke-miterlimit="10" stroke-linecap="round"/>
</svg>
