<svg width="16" height="16" viewBox="0 0 16 16" fill="none" xmlns="http://www.w3.org/2000/svg">
<path d="M14 2H2C1.44772 2 1 2.44772 1 3V11C1 11.5523 1.44772 12 2 12H14C14.5523 12 15 11.5523 15 11V3C15 2.44772 14.5523 2 14 2Z" stroke="white" stroke-linejoin="round"/>
<path d="M9.5 14L9.25 12H6.75L6.5 14H9.5Z" fill="white" stroke="white" stroke-linecap="round" stroke-linejoin="round"/>
<path d="M11.5 14H4.5" stroke="white" stroke-linecap="round" stroke-linejoin="round"/>
<path d="M1 9.5V11C1.00074 11.265 1.10634 11.5189 1.29371 11.7063C1.48109 11.8937 1.73501 11.9993 2 12H14C14.265 11.9993 14.5189 11.8937 14.7063 11.7063C14.8937 11.5189 14.9993 11.265 15 11V9.5H1ZM8 11.5C7.90111 11.5 7.80444 11.4707 7.72221 11.4157C7.63999 11.3608 7.5759 11.2827 7.53806 11.1913C7.50022 11.1 7.49031 10.9994 7.50961 10.9025C7.5289 10.8055 7.57652 10.7164 7.64645 10.6464C7.71637 10.5765 7.80546 10.5289 7.90245 10.5096C7.99945 10.4903 8.09998 10.5002 8.19134 10.5381C8.2827 10.5759 8.36079 10.64 8.41574 10.7222C8.47068 10.8044 8.5 10.9011 8.5 11C8.5 11.1326 8.44732 11.2598 8.35355 11.3536C8.25979 11.4473 8.13261 11.5 8 11.5Z" fill="white"/>
</svg>
