<svg width="16" height="16" viewBox="0 0 16 16" fill="none" xmlns="http://www.w3.org/2000/svg">
<path d="M5 4.25V7.5H9.79281L8.14656 5.85344C8.05675 5.75891 8.00742 5.63303 8.00909 5.50265C8.01076 5.37227 8.0633 5.2477 8.1555 5.1555C8.2477 5.0633 8.37227 5.01076 8.50265 5.00909C8.63303 5.00742 8.75891 5.05675 8.85344 5.14656L11.3534 7.64656C11.4471 7.74032 11.4998 7.86745 11.4998 8C11.4998 8.13255 11.4471 8.25968 11.3534 8.35344L8.85344 10.8534C8.75891 10.9432 8.63303 10.9926 8.50265 10.9909C8.37227 10.9892 8.2477 10.9367 8.1555 10.8445C8.0633 10.7523 8.01076 10.6277 8.00909 10.4973C8.00742 10.367 8.05675 10.2411 8.14656 10.1466L9.79281 8.5H5V11.75C5.0005 12.214 5.18503 12.6588 5.51311 12.9869C5.84119 13.315 6.28602 13.4995 6.75 13.5H13.25C13.714 13.4995 14.1588 13.315 14.4869 12.9869C14.815 12.6588 14.9995 12.214 15 11.75V4.25C14.9995 3.78602 14.815 3.34119 14.4869 3.01311C14.1588 2.68503 13.714 2.5005 13.25 2.5H6.75C6.28602 2.5005 5.84119 2.68503 5.51311 3.01311C5.18503 3.34119 5.0005 3.78602 5 4.25Z" fill="white"/>
<path d="M1.5 7.5C1.36739 7.5 1.24021 7.55268 1.14645 7.64645C1.05268 7.74021 1 7.86739 1 8C1 8.13261 1.05268 8.25979 1.14645 8.35355C1.24021 8.44732 1.36739 8.5 1.5 8.5H5V7.5H1.5Z" fill="white"/>
</svg>
