<svg width="16" height="16" viewBox="0 0 16 16" fill="none" xmlns="http://www.w3.org/2000/svg">
<path d="M15 15.5H1.5C1.23478 15.5 0.98043 15.3946 0.792893 15.2071C0.605357 15.0196 0.5 14.7652 0.5 14.5V1C0.5 0.867392 0.552678 0.740215 0.646447 0.646447C0.740215 0.552678 0.867392 0.5 1 0.5C1.13261 0.5 1.25979 0.552678 1.35355 0.646447C1.44732 0.740215 1.5 0.867392 1.5 1V14.5H15C15.1326 14.5 15.2598 14.5527 15.3536 14.6464C15.4473 14.7402 15.5 14.8674 15.5 15C15.5 15.1326 15.4473 15.2598 15.3536 15.3536C15.2598 15.4473 15.1326 15.5 15 15.5Z" fill="white"/>
<path d="M4.875 13.5H3.625C3.32663 13.5 3.04048 13.3815 2.8295 13.1705C2.61853 12.9595 2.5 12.6734 2.5 12.375V7.625C2.5 7.32663 2.61853 7.04048 2.8295 6.8295C3.04048 6.61853 3.32663 6.5 3.625 6.5H4.875C5.17337 6.5 5.45952 6.61853 5.6705 6.8295C5.88147 7.04048 6 7.32663 6 7.625V12.375C6 12.6734 5.88147 12.9595 5.6705 13.1705C5.45952 13.3815 5.17337 13.5 4.875 13.5Z" fill="white"/>
<path d="M9.375 13.5H8.125C7.82663 13.5 7.54048 13.3815 7.3295 13.1705C7.11853 12.9595 7 12.6734 7 12.375V6.125C7 5.82663 7.11853 5.54048 7.3295 5.3295C7.54048 5.11853 7.82663 5 8.125 5H9.375C9.67337 5 9.95952 5.11853 10.1705 5.3295C10.3815 5.54048 10.5 5.82663 10.5 6.125V12.375C10.5 12.6734 10.3815 12.9595 10.1705 13.1705C9.95952 13.3815 9.67337 13.5 9.375 13.5Z" fill="white"/>
<path d="M13.8638 13.5H12.6138C12.3154 13.5 12.0293 13.3815 11.8183 13.1705C11.6073 12.9595 11.4888 12.6734 11.4888 12.375V4.125C11.4888 3.82663 11.6073 3.54048 11.8183 3.3295C12.0293 3.11853 12.3154 3 12.6138 3H13.8638C14.1621 3 14.4483 3.11853 14.6593 3.3295C14.8702 3.54048 14.9888 3.82663 14.9888 4.125V12.375C14.9888 12.6734 14.8702 12.9595 14.6593 13.1705C14.4483 13.3815 14.1621 13.5 13.8638 13.5Z" fill="white"/>
</svg>
