<svg width="1919" height="454" viewBox="0 0 1919 454" fill="none" xmlns="http://www.w3.org/2000/svg">
<path d="M-1 111H959H1919V454H-1V111Z" fill="#FF8721"/>
<path d="M1919 114L-1.00006 111V15.4732C21.4304 8.87486 49.609 4.09224 80.6547 1.6144C156.378 -4.11721 236.33 6.19969 297.301 20.1613C358.271 34.1229 408.358 51.8175 472.01 64.8238C593.951 89.7196 763.245 94.4077 899.732 76.6544C950.386 70.0557 996.552 60.65 1049.32 55.5063C1117.42 48.9604 1191.65 49.8986 1257.46 58.1369C1347.93 69.6148 1421.95 94.7458 1520.94 94.7311C1574.12 94.7311 1623.69 87.1477 1676.41 85.0902C1766.26 81.563 1847.35 93.9227 1919 111Z" fill="#FF8721"/>
</svg>
