<svg width="320" height="481" viewBox="0 0 320 481" fill="none" xmlns="http://www.w3.org/2000/svg">
<path d="M245.025 123.405C236.914 131.489 229.615 144.511 223.706 161.443C217.797 178.375 213.438 198.754 210.975 220.97C207.438 253.804 208.238 289.249 204.263 321.749C195.062 396.889 163.013 434.878 133.6 440.802C104.188 446.727 74.475 429.891 45.0875 437.857C29.3 442.141 12.8875 456.6 0 481V0H320C319.312 1.53963 318.663 3.1462 318.013 4.81971C308.125 30.2905 302.288 66.6726 290.938 87.3572C277.725 111.59 260.125 108.745 245.025 123.405Z" fill="#FF8721"/>
</svg>
