<svg width="1828" height="480" viewBox="0 0 1828 480" fill="none" xmlns="http://www.w3.org/2000/svg">
<path d="M1399.24 123.124C1352.85 131.19 1311.11 144.183 1277.32 161.076C1243.52 177.97 1218.6 198.303 1204.51 220.468C1184.28 253.228 1188.86 288.592 1166.13 321.018C1113.51 395.988 930.227 433.891 762.024 439.801C593.822 445.712 423.904 428.915 255.844 436.863C165.559 441.137 71.7003 455.563 -2 479.908V0H1828C1824.07 1.53613 1820.35 3.13905 1816.63 4.80876C1760.09 30.2217 1726.71 66.5212 1661.8 87.1588C1586.24 111.336 1485.59 108.498 1399.24 123.124Z" fill="#FF8721"/>
</svg>
