<svg width="768" height="480" viewBox="0 0 768 480" fill="none" xmlns="http://www.w3.org/2000/svg">
<path d="M588.06 123.148C568.593 131.215 551.077 144.21 536.895 161.107C522.712 178.005 512.252 198.341 506.34 220.511C497.85 253.277 499.77 288.648 490.23 321.08C468.15 396.064 391.23 433.974 320.64 439.886C250.05 445.798 178.74 428.997 108.21 436.947C70.32 441.222 30.93 455.651 0 480V0H768C766.35 1.53643 764.79 3.13966 763.23 4.80969C739.5 30.2275 725.49 66.534 698.25 87.1756C666.54 111.358 624.3 108.519 588.06 123.148Z" fill="#FF8721"/>
</svg>
