<svg width="86" height="42" viewBox="0 0 86 42" fill="none" xmlns="http://www.w3.org/2000/svg">
<path d="M25.8947 41.3951L26.3254 41.1547L21.5494 27.8432L21.5041 27.7168L21.3736 27.6848L14.1049 25.9031L13.3924 25.7284L13.85 26.3018L25.8947 41.3951Z" fill="url(#paint0_linear)" stroke="white" stroke-width="0.5"/>
<path d="M21.2546 28.1704L21.4134 28.2094L21.5127 28.0795L26.3356 21.7726L26.8639 21.0818L26.0494 21.3866L13.9578 25.9118L13.1988 26.1958L13.9859 26.3887L21.2546 28.1704Z" fill="url(#paint1_linear)" stroke="white" stroke-width="0.5"/>
<path d="M13.85 26.3018L14.2807 26.0615L9.50412 12.7445L9.45877 12.6181L9.32832 12.5861L2.05952 10.8044L1.34719 10.6298L1.80457 11.2032L13.85 26.3018Z" fill="url(#paint2_linear)" stroke="white" stroke-width="0.5"/>
<path d="M9.20926 13.0718L9.36805 13.1107L9.46737 12.9808L14.2877 6.67707L14.8158 5.98647L14.0015 6.29105L1.91241 10.8131L1.1532 11.0971L1.94048 11.2901L9.20926 13.0718Z" fill="url(#paint3_linear)" stroke="white" stroke-width="0.5"/>
<path d="M13.81 26.2303L14.2954 26.1465L14.3392 6.52577L14.3408 5.78454L13.8906 6.37335L9.07021 12.6771L8.98752 12.7853L9.03348 12.9134L13.81 26.2303Z" fill="url(#paint4_linear)" stroke="white" stroke-width="0.5"/>
<path d="M25.9414 21.7767L26.3721 21.5363L21.5932 8.22243L21.5478 8.09605L21.4174 8.06408L14.1486 6.28237L13.4361 6.1077L13.8937 6.68112L25.9414 21.7767Z" fill="url(#paint5_linear)" stroke="white" stroke-width="0.5"/>
<path d="M21.2985 8.54974L21.4573 8.58867L21.5566 8.45879L26.3796 2.15186L26.9078 1.46104L26.0933 1.76586L14.0017 6.2911L13.2428 6.57513L14.0298 6.76805L21.2985 8.54974Z" fill="url(#paint6_linear)" stroke="white" stroke-width="0.5"/>
<path d="M14.3184 6.32516L13.8877 6.56557L18.6668 19.8794L18.7121 20.0057L18.8425 20.0377L26.1113 21.8194L26.8239 21.9941L26.3662 21.4207L14.3184 6.32516Z" fill="url(#paint7_linear)" stroke="white" stroke-width="0.5"/>
<path d="M18.9614 19.552L18.8026 19.5131L18.7033 19.643L13.8805 25.9499L13.3523 26.6407L14.1667 26.3359L26.2583 21.8107L27.0172 21.5267L26.2302 21.3337L18.9614 19.552Z" fill="url(#paint8_linear)" stroke="white" stroke-width="0.5"/>
<path d="M14.3582 6.39665L13.8729 6.48055L13.8291 26.1014L13.8274 26.8426L14.2777 26.2538L19.1005 19.9467L19.1832 19.8386L19.1372 19.7104L14.3582 6.39665Z" fill="url(#paint9_linear)" stroke="white" stroke-width="0.5"/>
<path d="M33.0281 12.7176L33.0281 12.7175C33.2197 12.4468 33.4915 12.3073 33.8794 12.3073C34.0553 12.3073 34.2364 12.3388 34.4239 12.4044L34.4239 12.4044L34.4256 12.405C34.6333 12.4759 34.8388 12.5596 35.0419 12.6561L35.2828 12.7705L35.3815 12.5228L35.7703 11.5468L35.8574 11.328L35.6443 11.2279C35.3702 11.0992 35.0825 10.9987 34.7818 10.9261C34.4822 10.8472 34.1812 10.8075 33.8794 10.8075C33.2715 10.8075 32.739 10.94 32.2944 11.2186L32.2944 11.2186L32.2931 11.2194C31.8597 11.4947 31.5297 11.8757 31.3042 12.3557L31.3042 12.3557C31.0797 12.8335 30.9709 13.3761 30.9709 13.9777C30.9709 14.585 31.0649 15.1289 31.2595 15.604L31.2599 15.605C31.4582 16.0831 31.7679 16.4625 32.188 16.7348L32.188 16.7348L32.1915 16.737C32.6223 17.0062 33.1532 17.1321 33.7684 17.1321C34.0828 17.1321 34.3716 17.1073 34.6338 17.056L34.6338 17.056C34.8939 17.0051 35.1553 16.9262 35.4175 16.8202L35.5738 16.7571V16.5884V15.5806V15.2273L35.2407 15.3449C34.9781 15.4375 34.7362 15.5087 34.5144 15.5591L34.5132 15.5593C34.3042 15.6079 34.0931 15.6322 33.8794 15.6322C33.4426 15.6322 33.1684 15.4924 32.999 15.2496C32.8156 14.9733 32.709 14.5614 32.709 13.9856C32.709 13.4186 32.8247 13.0048 33.0281 12.7176Z" fill="url(#paint10_linear)" stroke="white" stroke-width="0.5"/>
<path d="M38.7102 17.0527H38.9602V16.8027V12.3867H40.2499H40.4999V12.1367V11.1368V10.8868H40.2499H35.9724H35.7224V11.1368V12.1367V12.3867H35.9724H37.2621V16.8027V17.0527H37.5121H38.7102Z" fill="url(#paint11_linear)" stroke="white" stroke-width="0.5"/>
<path d="M45.0548 13.9432L45.0548 13.9432L45.0555 13.9417C45.2094 13.6166 45.2859 13.2705 45.2859 12.9064C45.2859 12.3019 45.0979 11.799 44.6991 11.4305C44.2985 11.05 43.6903 10.8868 42.9329 10.8868H41.1235H40.8735V11.1368V16.8027V17.0527H41.1235H42.3219H42.5719V16.8027V15.0371H42.8377C43.4096 15.0371 43.8904 14.9471 44.2589 14.7447C44.62 14.5492 44.8912 14.2833 45.0548 13.9432ZM42.5719 13.5531V12.3708H42.8695C43.1565 12.3708 43.3251 12.4337 43.42 12.516C43.5081 12.5924 43.5718 12.7195 43.5718 12.9461C43.5718 13.1869 43.4958 13.3183 43.3796 13.398C43.2394 13.4924 43.0276 13.5531 42.7187 13.5531H42.5719Z" fill="url(#paint12_linear)" stroke="white" stroke-width="0.5"/>
<path d="M48.9401 16.8758L48.9942 17.0527H49.1791H50.4727H50.8261L50.7085 16.7195L48.7007 11.0298L48.6418 10.863H48.4649H46.9969H46.8197L46.761 11.0301L44.7612 16.7198L44.6442 17.0527H44.9971H46.2905H46.4755L46.5296 16.8758L46.8881 15.7037H48.5815L48.9401 16.8758ZM47.7522 12.8527C47.7895 12.7257 47.8268 12.5947 47.864 12.4597L47.7522 12.8527ZM48.1406 14.1959H47.3431L47.6467 13.2078C47.6713 13.1389 47.7017 13.0353 47.7373 12.903C47.7376 12.9021 47.7379 12.9011 47.7381 12.9002C47.7748 13.0198 47.8049 13.1193 47.8284 13.1991L47.8283 13.1991L47.8296 13.2033L48.1406 14.1959Z" fill="url(#paint13_linear)" stroke="white" stroke-width="0.5"/>
<path d="M52.8149 17.0527H53.0649V16.8027V12.3867H54.3544H54.6044V12.1367V11.1368V10.8868H54.3544H50.0769H49.8269V11.1368V12.1367V12.3867H50.0769H51.3666V16.8027V17.0527H51.6166H52.8149Z" fill="url(#paint14_linear)" stroke="white" stroke-width="0.5"/>
<path d="M58.4898 17.0527H58.7398V16.8027V15.8107V15.5607H58.4898H56.6764V14.6006H58.347H58.597V14.3506V13.3666V13.1166H58.347H56.6764V12.3708H58.4898H58.7398V12.1208V11.1368V10.8868H58.4898H55.2283H54.9783V11.1368V16.8027V17.0527H55.2283H58.4898Z" fill="url(#paint15_linear)" stroke="white" stroke-width="0.5"/>
<path d="M63.4977 11.1368V10.8868H63.2477H59.6687H59.4187V11.1368V16.8027V17.0527H59.6687H60.867H61.117V16.8027V12.3787H63.2477H63.4977V12.1287V11.1368Z" fill="url(#paint16_linear)" stroke="white" stroke-width="0.5"/>
<path d="M64.1172 10.8868H63.8672V11.1368V16.8027V17.0527H64.1172H65.5616H65.7025L65.7755 16.9321L67.913 13.3999C67.9109 13.4669 67.9088 13.5353 67.9066 13.6049L67.9066 13.6049C67.9013 13.7763 67.8986 13.935 67.8986 14.0808V16.8027V17.0527H68.1486H69.22H69.47V16.8027V11.1368V10.8868H69.22H67.7836H67.6432L67.5701 11.0068L65.4322 14.5178L65.4384 14.3272C65.4384 14.3271 65.4384 14.327 65.4384 14.327C65.4384 14.3269 65.4384 14.3269 65.4384 14.3269C65.4439 14.1608 65.4466 14.0099 65.4466 13.8745V11.1368V10.8868H65.1966H64.1172Z" fill="url(#paint17_linear)" stroke="white" stroke-width="0.5"/>
<path d="M73.0508 14.8784V16.8027V17.0527H73.3008H74.499H74.749V16.8027V11.1368V10.8868H74.499H72.6579C71.9505 10.8868 71.3642 11.0327 70.9302 11.3564C70.4821 11.6849 70.2654 12.1641 70.2654 12.7556C70.2654 13.0885 70.3198 13.3867 70.4404 13.6406L70.4403 13.6406L70.4414 13.6426C70.555 13.8762 70.7028 14.0729 70.8875 14.2258L70.8875 14.2259L70.8916 14.2291C70.9755 14.2957 71.0607 14.3553 71.1471 14.4075L69.6863 16.6669L69.4369 17.0527H69.8962H71.2296H71.37L71.4431 16.9328L72.6951 14.8784H73.0508ZM72.7055 12.3708H73.0508V13.4023H72.7374C72.4308 13.4023 72.246 13.3374 72.1399 13.2496C72.0372 13.1554 71.9795 13.0288 71.9795 12.8429C71.9795 12.6424 72.0406 12.5495 72.1192 12.4974C72.2388 12.4218 72.4259 12.3708 72.7055 12.3708Z" fill="url(#paint18_linear)" stroke="white" stroke-width="0.5"/>
<path d="M31.2249 27.6345V27.8845H31.4749H32.6732H32.9232V27.6345V23.2185H34.5104V27.6345V27.8845H34.7604H35.9585H36.2085V27.6345V21.9686V21.7186H35.9585H31.4749H31.2249V21.9686V27.6345Z" fill="url(#paint19_linear)" stroke="white" stroke-width="0.5"/>
<path d="M40.7264 23.5262L40.7264 23.5261C40.5624 23.2762 40.2883 23.1313 39.8404 23.1313C39.3926 23.1313 39.1142 23.2762 38.9447 23.5284L40.7264 23.5262ZM40.7264 23.5262C40.912 23.8089 41.0187 24.2227 41.0187 24.7937C41.0187 25.358 40.9125 25.7727 40.7259 26.0617C40.5624 26.3106 40.2864 26.456 39.8324 26.456C39.3915 26.456 39.1152 26.3121 38.9452 26.0595M40.7264 23.5262L38.9452 26.0595M38.9452 26.0595C38.7546 25.7708 38.646 25.357 38.646 24.7937C38.646 24.2237 38.7551 23.8108 38.9447 23.5284L38.9452 26.0595ZM38.1781 27.562L38.1793 27.5627C38.6306 27.836 39.1867 27.9638 39.8324 27.9638C40.4826 27.9638 41.0396 27.8362 41.4868 27.5619C41.9276 27.2916 42.255 26.9134 42.4655 26.4343C42.6782 25.957 42.7806 25.4081 42.7806 24.7937C42.7806 24.1798 42.6784 23.6333 42.4655 23.1609C42.2553 22.6768 41.9278 22.2981 41.4858 22.0326C41.0391 21.759 40.4854 21.6314 39.8404 21.6314C39.19 21.6314 38.6313 21.7589 38.1797 22.0323C37.7381 22.2973 37.4081 22.6727 37.1921 23.1513L37.1921 23.1513L37.191 23.1536C36.9836 23.6258 36.8843 24.172 36.8843 24.7858C36.8843 25.3995 36.9837 25.9478 37.1906 26.4246L37.1906 26.4246L37.1916 26.4269C37.4072 26.9104 37.7366 27.2913 38.1781 27.562Z" fill="url(#paint20_linear)" stroke="white" stroke-width="0.5"/>
<path d="M46.0438 26.2568L46.0438 26.2568C46.1578 26.1942 46.2317 26.087 46.2317 25.8649C46.2317 25.7443 46.2088 25.6655 46.1795 25.6144C46.1521 25.5667 46.1111 25.5285 46.0439 25.5004L46.0438 26.2568ZM46.0438 26.2568L46.0413 26.2582M46.0438 26.2568L46.0413 26.2582M46.0413 26.2582C45.8875 26.3451 45.6505 26.4005 45.3072 26.4005H45.1524M46.0413 26.2582L45.1524 26.4005M45.1524 26.4005V25.377H45.2119C45.5874 25.377 45.8597 25.4233 46.0438 25.5003L45.1524 26.4005ZM43.4541 27.6345V27.8845H43.7041H45.3548C46.1908 27.8845 46.8548 27.729 47.2919 27.3667L47.2921 27.3665C47.7338 26.9996 47.9458 26.4876 47.9458 25.8649C47.9458 25.4887 47.8526 25.1452 47.6612 24.8426L47.6611 24.8425C47.4648 24.5323 47.167 24.2994 46.7876 24.1358C46.4067 23.9692 45.933 23.893 45.3786 23.893H45.1524V23.2106H47.2832H47.5332V22.9606V21.9686V21.7186H47.2832H43.7041H43.4541V21.9686V27.6345Z" fill="url(#paint21_linear)" stroke="white" stroke-width="0.5"/>
<path d="M52.0263 27.8845H52.2763V27.6345V26.6427V26.3927H52.0263H50.213V25.4325H51.8834H52.1334V25.1825V24.1985V23.9485H51.8834H50.213V23.2026H52.0263H52.2763V22.9526V21.9686V21.7186H52.0263H48.7646H48.5146V21.9686V27.6345V27.8845H48.7646H52.0263Z" fill="url(#paint22_linear)" stroke="white" stroke-width="0.5"/>
<path d="M57.8914 21.9686V21.7186H57.6414H54.3402H54.1186L54.092 21.9386C54.0084 22.6283 53.8964 23.2443 53.7569 23.7871L53.7569 23.7871L53.7563 23.7892C53.6208 24.3362 53.4677 24.8312 53.2974 25.275C53.1458 25.6658 52.9841 26.0357 52.8126 26.3846H52.5308H52.2808V26.6346V29.285V29.535H52.5308H53.6895H53.9395V29.285V27.8845H56.9867V29.285V29.535H57.2367H58.3954H58.6454V29.285V26.6346V26.3846H58.3954H57.8914V21.9686ZM54.9341 25.5165L54.9344 25.5155C55.0795 25.0805 55.203 24.648 55.3053 24.2176C55.3923 23.8651 55.4604 23.5319 55.5091 23.2185H56.1931V26.3846H54.6093C54.7243 26.1066 54.8326 25.8172 54.9341 25.5165Z" fill="url(#paint23_linear)" stroke="white" stroke-width="0.5"/>
<path d="M63.3052 24.4444L63.0553 24.4367C63.05 24.6082 63.0473 24.7669 63.0473 24.9126V27.6345V27.8845H63.2973H64.3687H64.6187V27.6345V21.9686V21.7186H64.3687H62.9321H62.7917L62.7186 21.8386L60.5809 25.3496C60.583 25.2864 60.585 25.2228 60.5871 25.1588L60.5871 25.1588C60.5924 24.9926 60.5951 24.8419 60.5951 24.7063V21.9686V21.7186H60.3451H59.2659H59.0159V21.9686V27.6345V27.8845H59.2659H60.7101H60.851L60.924 27.7639L63.0616 24.2317C63.0595 24.2989 63.0574 24.3673 63.0553 24.4369L63.3052 24.4444ZM63.3052 24.4444C63.3104 24.2698 63.3157 24.1033 63.3211 23.9446L60.5633 25.8592L62.9321 21.9686H64.1187H64.3687V22.2186V27.3845V27.6345H64.1187H63.5473H63.2973V27.3845V24.9126C63.2973 24.7699 63.2999 24.6138 63.3052 24.4444ZM60.3255 25.5087C60.3241 25.5509 60.3227 25.593 60.3213 25.6349L60.3451 21.9686V22.2186V24.7063C60.3451 24.8387 60.3425 24.9867 60.3372 25.1508C60.3334 25.2715 60.3294 25.3908 60.3255 25.5087Z" fill="url(#paint24_linear)" stroke="white" stroke-width="0.5"/>
<path d="M67.9812 27.8845H68.2312V27.6345V23.2185H69.5207H69.7707V22.9685V21.9686V21.7186H69.5207H65.2434H64.9934V21.9686V22.9685V23.2185H65.2434H66.5329V27.6345V27.8845H66.7829H67.9812Z" fill="url(#paint25_linear)" stroke="white" stroke-width="0.5"/>
<path d="M73.656 27.8845H73.906V27.6345V26.6427V26.3927H73.656H71.8429V25.4325H73.5133H73.7633V25.1825V24.1985V23.9485H73.5133H71.8429V23.2026H73.656H73.906V22.9526V21.9686V21.7186H73.656H70.3945H70.1445V21.9686V27.6345V27.8845H70.3945H73.656Z" fill="url(#paint26_linear)" stroke="white" stroke-width="0.5"/>
<path d="M79.3189 27.8845H79.5689V27.6345V21.9686V21.7186H79.3189H75.7398H75.5172L75.4915 21.9397C75.4284 22.482 75.36 22.9949 75.2864 23.4784L75.2864 23.4784L75.286 23.4807C75.2175 23.961 75.1542 24.38 75.0963 24.7379C75.0383 25.0969 74.9937 25.3587 74.9626 25.5249C74.8777 25.9698 74.7983 26.2411 74.7322 26.3692L74.7321 26.3692L74.7307 26.3721C74.7052 26.4231 74.6816 26.4457 74.6667 26.4559C74.6537 26.4648 74.6363 26.472 74.6051 26.472C74.5437 26.472 74.4893 26.4659 74.4411 26.455C74.383 26.4404 74.3218 26.4232 74.2577 26.4036L73.9346 26.3047V26.6427V27.6266V27.8068L74.1055 27.8638C74.3084 27.9314 74.526 27.9638 74.7559 27.9638C75.1023 27.9638 75.4089 27.8979 75.6564 27.7444C75.9019 27.5955 76.0887 27.3805 76.2184 27.1096C76.3462 26.8534 76.4445 26.5526 76.5162 26.2101C76.5596 26.0045 76.6026 25.7704 76.6453 25.5083L76.6454 25.5077C76.6882 25.2409 76.728 24.961 76.7654 24.6685C76.8079 24.3711 76.845 24.079 76.8769 23.792L76.9515 23.2185H77.8707V27.6345V27.8845H78.1207H79.3189Z" fill="url(#paint27_linear)" stroke="white" stroke-width="0.5"/>
<path d="M83.1488 25.7103V27.6345V27.8845H83.3988H84.5971H84.8471V27.6345V21.9686V21.7186H84.5971H82.756C82.0486 21.7186 81.4623 21.8646 81.0281 22.1881C80.5803 22.5167 80.3633 22.9959 80.3633 23.5875C80.3633 23.9204 80.4177 24.2186 80.5383 24.4724L80.5383 24.4724L80.5394 24.4746C80.6532 24.7081 80.8009 24.9048 80.9857 25.0577L80.9856 25.0578L80.9898 25.0611C81.0737 25.1276 81.1589 25.1871 81.2452 25.2393L79.7844 27.4988L79.5351 27.8845H79.9944H81.3276H81.468L81.541 27.7646L82.7933 25.7103H83.1488ZM82.8037 23.2026H83.1488V24.2342H82.8354C82.5292 24.2342 82.3442 24.1694 82.2379 24.0816C82.1353 23.9873 82.0776 23.8606 82.0776 23.6747C82.0776 23.4742 82.1388 23.3813 82.2173 23.3292C82.3369 23.2536 82.524 23.2026 82.8037 23.2026Z" fill="url(#paint28_linear)" stroke="white" stroke-width="0.5"/>
<defs>
<linearGradient id="paint0_linear" x1="17.3537" y1="30.8394" x2="25.1607" y2="33.3244" gradientUnits="userSpaceOnUse">
<stop offset="0.00540541" stop-color="#FFB800"/>
<stop offset="0.9946" stop-color="#FF3D00"/>
</linearGradient>
<linearGradient id="paint1_linear" x1="22.8142" y1="25.9637" x2="17.3677" y2="21.799" gradientUnits="userSpaceOnUse">
<stop stop-color="#F5F5F5"/>
<stop offset="1" stop-color="#E6E6E6"/>
</linearGradient>
<linearGradient id="paint2_linear" x1="16.3762" y1="23.0954" x2="1.49119" y2="11.7132" gradientUnits="userSpaceOnUse">
<stop stop-color="#2420B4"/>
<stop offset="0.4505" stop-color="#6A65EF"/>
<stop offset="1" stop-color="#6D47DA"/>
</linearGradient>
<linearGradient id="paint3_linear" x1="10.7682" y1="10.8687" x2="5.32172" y2="6.70394" gradientUnits="userSpaceOnUse">
<stop stop-color="#5748EB"/>
<stop offset="0.4505" stop-color="#6547E0"/>
<stop offset="1" stop-color="#2B0C82"/>
</linearGradient>
<linearGradient id="paint4_linear" x1="18.7872" y1="19.9425" x2="9.34875" y2="12.725" gradientUnits="userSpaceOnUse">
<stop stop-color="#9E64FD"/>
<stop offset="0.4505" stop-color="#784CF5"/>
<stop offset="1" stop-color="#20007A"/>
</linearGradient>
<linearGradient id="paint5_linear" x1="28.469" y1="18.5722" x2="13.5808" y2="7.18748" gradientUnits="userSpaceOnUse">
<stop stop-color="#E1E1E1"/>
<stop offset="1" stop-color="#FAFAFA"/>
</linearGradient>
<linearGradient id="paint6_linear" x1="17.4105" y1="3.96126" x2="22.8571" y2="8.12619" gradientUnits="userSpaceOnUse">
<stop offset="0.00540541" stop-color="#FFB800"/>
<stop offset="0.9946" stop-color="#FF3D00"/>
</linearGradient>
<linearGradient id="paint7_linear" x1="11.7925" y1="9.52951" x2="26.6775" y2="20.9118" gradientUnits="userSpaceOnUse">
<stop stop-color="#8378EE"/>
<stop offset="0.4505" stop-color="#5E54BF"/>
<stop offset="1" stop-color="#080064"/>
</linearGradient>
<linearGradient id="paint8_linear" x1="17.4003" y1="21.7561" x2="22.8468" y2="25.921" gradientUnits="userSpaceOnUse">
<stop offset="0.00540541" stop-color="#FFB800"/>
<stop offset="0.9946" stop-color="#FF3D00"/>
</linearGradient>
<linearGradient id="paint9_linear" x1="9.38126" y1="12.6825" x2="18.8198" y2="19.8999" gradientUnits="userSpaceOnUse">
<stop stop-color="#BFBFBF"/>
<stop offset="1" stop-color="#F1F1F1"/>
</linearGradient>
<linearGradient id="paint10_linear" x1="84.5959" y1="20.1704" x2="31.2252" y2="20.1704" gradientUnits="userSpaceOnUse">
<stop stop-color="#8378EE"/>
<stop offset="0.4505" stop-color="#5E54BF"/>
<stop offset="1" stop-color="#413A8E"/>
</linearGradient>
<linearGradient id="paint11_linear" x1="84.5961" y1="20.1704" x2="31.2253" y2="20.1704" gradientUnits="userSpaceOnUse">
<stop stop-color="#8378EE"/>
<stop offset="0.4505" stop-color="#5E54BF"/>
<stop offset="1" stop-color="#413A8E"/>
</linearGradient>
<linearGradient id="paint12_linear" x1="84.5961" y1="20.1704" x2="31.2253" y2="20.1704" gradientUnits="userSpaceOnUse">
<stop stop-color="#8378EE"/>
<stop offset="0.4505" stop-color="#5E54BF"/>
<stop offset="1" stop-color="#413A8E"/>
</linearGradient>
<linearGradient id="paint13_linear" x1="84.5958" y1="20.1704" x2="31.2251" y2="20.1704" gradientUnits="userSpaceOnUse">
<stop stop-color="#8378EE"/>
<stop offset="0.4505" stop-color="#5E54BF"/>
<stop offset="1" stop-color="#413A8E"/>
</linearGradient>
<linearGradient id="paint14_linear" x1="84.596" y1="20.1704" x2="31.2252" y2="20.1704" gradientUnits="userSpaceOnUse">
<stop stop-color="#8378EE"/>
<stop offset="0.4505" stop-color="#5E54BF"/>
<stop offset="1" stop-color="#413A8E"/>
</linearGradient>
<linearGradient id="paint15_linear" x1="84.5961" y1="20.1704" x2="31.2253" y2="20.1704" gradientUnits="userSpaceOnUse">
<stop stop-color="#8378EE"/>
<stop offset="0.4505" stop-color="#5E54BF"/>
<stop offset="1" stop-color="#413A8E"/>
</linearGradient>
<linearGradient id="paint16_linear" x1="84.5959" y1="20.1704" x2="31.2251" y2="20.1704" gradientUnits="userSpaceOnUse">
<stop stop-color="#8378EE"/>
<stop offset="0.4505" stop-color="#5E54BF"/>
<stop offset="1" stop-color="#413A8E"/>
</linearGradient>
<linearGradient id="paint17_linear" x1="84.5961" y1="20.1704" x2="31.2253" y2="20.1704" gradientUnits="userSpaceOnUse">
<stop stop-color="#8378EE"/>
<stop offset="0.4505" stop-color="#5E54BF"/>
<stop offset="1" stop-color="#413A8E"/>
</linearGradient>
<linearGradient id="paint18_linear" x1="84.596" y1="20.1704" x2="31.2252" y2="20.1704" gradientUnits="userSpaceOnUse">
<stop stop-color="#8378EE"/>
<stop offset="0.4505" stop-color="#5E54BF"/>
<stop offset="1" stop-color="#413A8E"/>
</linearGradient>
<linearGradient id="paint19_linear" x1="84.5959" y1="20.1704" x2="31.2251" y2="20.1704" gradientUnits="userSpaceOnUse">
<stop stop-color="#8378EE"/>
<stop offset="0.4505" stop-color="#5E54BF"/>
<stop offset="1" stop-color="#413A8E"/>
</linearGradient>
<linearGradient id="paint20_linear" x1="84.5961" y1="20.1704" x2="31.2253" y2="20.1704" gradientUnits="userSpaceOnUse">
<stop stop-color="#8378EE"/>
<stop offset="0.4505" stop-color="#5E54BF"/>
<stop offset="1" stop-color="#413A8E"/>
</linearGradient>
<linearGradient id="paint21_linear" x1="84.596" y1="20.1704" x2="31.2252" y2="20.1704" gradientUnits="userSpaceOnUse">
<stop stop-color="#8378EE"/>
<stop offset="0.4505" stop-color="#5E54BF"/>
<stop offset="1" stop-color="#413A8E"/>
</linearGradient>
<linearGradient id="paint22_linear" x1="84.596" y1="20.1704" x2="31.2251" y2="20.1704" gradientUnits="userSpaceOnUse">
<stop stop-color="#8378EE"/>
<stop offset="0.4505" stop-color="#5E54BF"/>
<stop offset="1" stop-color="#413A8E"/>
</linearGradient>
<linearGradient id="paint23_linear" x1="84.596" y1="20.1704" x2="31.2251" y2="20.1704" gradientUnits="userSpaceOnUse">
<stop stop-color="#8378EE"/>
<stop offset="0.4505" stop-color="#5E54BF"/>
<stop offset="1" stop-color="#413A8E"/>
</linearGradient>
<linearGradient id="paint24_linear" x1="84.5961" y1="20.1704" x2="31.2253" y2="20.1704" gradientUnits="userSpaceOnUse">
<stop stop-color="#8378EE"/>
<stop offset="0.4505" stop-color="#5E54BF"/>
<stop offset="1" stop-color="#413A8E"/>
</linearGradient>
<linearGradient id="paint25_linear" x1="84.596" y1="20.1704" x2="31.2252" y2="20.1704" gradientUnits="userSpaceOnUse">
<stop stop-color="#8378EE"/>
<stop offset="0.4505" stop-color="#5E54BF"/>
<stop offset="1" stop-color="#413A8E"/>
</linearGradient>
<linearGradient id="paint26_linear" x1="84.596" y1="20.1704" x2="31.2253" y2="20.1704" gradientUnits="userSpaceOnUse">
<stop stop-color="#8378EE"/>
<stop offset="0.4505" stop-color="#5E54BF"/>
<stop offset="1" stop-color="#413A8E"/>
</linearGradient>
<linearGradient id="paint27_linear" x1="84.5961" y1="20.1704" x2="31.2253" y2="20.1704" gradientUnits="userSpaceOnUse">
<stop stop-color="#8378EE"/>
<stop offset="0.4505" stop-color="#5E54BF"/>
<stop offset="1" stop-color="#413A8E"/>
</linearGradient>
<linearGradient id="paint28_linear" x1="84.5961" y1="20.1704" x2="31.2253" y2="20.1704" gradientUnits="userSpaceOnUse">
<stop stop-color="#8378EE"/>
<stop offset="0.4505" stop-color="#5E54BF"/>
<stop offset="1" stop-color="#413A8E"/>
</linearGradient>
</defs>
</svg>
