<svg width="24" height="24" viewBox="0 0 24 24" fill="none" xmlns="http://www.w3.org/2000/svg">
<path fill-rule="evenodd" clip-rule="evenodd" d="M2 12C2 6.477 6.477 2 12 2C17.523 2 22 6.477 22 12C22 17.523 17.523 22 12 22C6.477 22 2 17.523 2 12ZM12.0002 19.9999C7.58925 19.9999 4.00025 16.4109 4.00025 11.9999C4.00025 7.58888 7.58925 3.99988 12.0002 3.99988C16.4112 3.99988 20.0002 7.58888 20.0002 11.9999C20.0002 16.4109 16.4112 19.9999 12.0002 19.9999ZM11 7.99987C11 7.44787 11.448 6.99987 12 6.99987C12.552 6.99987 13 7.44787 13 7.99987V12.9999C13 13.5519 12.552 13.9999 12 13.9999C11.448 13.9999 11 13.5519 11 12.9999V7.99987ZM11 15.9998C11 15.4478 11.448 14.9998 12 14.9998C12.552 14.9998 13 15.4478 13 15.9998C13 16.5518 12.552 16.9998 12 16.9998C11.448 16.9998 11 16.5518 11 15.9998Z" fill="#3300FF"/>
<mask id="mask0" mask-type="alpha" maskUnits="userSpaceOnUse" x="2" y="2" width="20" height="20">
<path fill-rule="evenodd" clip-rule="evenodd" d="M2 12C2 6.477 6.477 2 12 2C17.523 2 22 6.477 22 12C22 17.523 17.523 22 12 22C6.477 22 2 17.523 2 12ZM12.0002 19.9999C7.58925 19.9999 4.00025 16.4109 4.00025 11.9999C4.00025 7.58888 7.58925 3.99988 12.0002 3.99988C16.4112 3.99988 20.0002 7.58888 20.0002 11.9999C20.0002 16.4109 16.4112 19.9999 12.0002 19.9999ZM11 7.99987C11 7.44787 11.448 6.99987 12 6.99987C12.552 6.99987 13 7.44787 13 7.99987V12.9999C13 13.5519 12.552 13.9999 12 13.9999C11.448 13.9999 11 13.5519 11 12.9999V7.99987ZM11 15.9998C11 15.4478 11.448 14.9998 12 14.9998C12.552 14.9998 13 15.4478 13 15.9998C13 16.5518 12.552 16.9998 12 16.9998C11.448 16.9998 11 16.5518 11 15.9998Z" fill="white"/>
</mask>
<g mask="url(#mask0)">
</g>
</svg>
