<svg width="24" height="24" viewBox="0 0 24 24" fill="none" xmlns="http://www.w3.org/2000/svg">
<path d="M10.129 8.99969V15.7286C10.1367 16.2217 10.3381 16.6919 10.6895 17.0378C11.041 17.3838 11.5143 17.5777 12.0075 17.5777C12.5006 17.5777 12.974 17.3838 13.3254 17.0378C13.6769 16.6919 13.8782 16.2217 13.886 15.7286L13.8921 6.89032C13.8972 6.46888 13.8186 6.05061 13.6609 5.65977C13.5031 5.26894 13.2694 4.91329 12.9732 4.61347C12.677 4.31364 12.3242 4.07559 11.9353 3.91312C11.5464 3.75065 11.1291 3.66699 10.7076 3.66699C10.2862 3.66699 9.86888 3.75065 9.47999 3.91312C9.09109 4.07559 8.73831 4.31364 8.4421 4.61347C8.14589 4.91329 7.91214 5.26894 7.7544 5.65977C7.59666 6.05061 7.51807 6.46888 7.52318 6.89032V15.7881C7.5402 16.9642 8.01933 18.0863 8.85699 18.9119C9.69466 19.7375 10.8236 20.2004 11.9997 20.2004C13.1759 20.2004 14.3048 19.7375 15.1425 18.9119C15.9802 18.0863 16.4593 16.9642 16.4763 15.7881V7.47344" stroke="#5752A0" stroke-miterlimit="10" stroke-linecap="square"/>
</svg>
