<svg width="24" height="24" viewBox="0 0 24 24" fill="none" xmlns="http://www.w3.org/2000/svg">
<g id="book-open">
<path id="&#240;&#159;&#142;&#168; Icon &#208;&#161;olor" fill-rule="evenodd" clip-rule="evenodd" d="M19.78 4.02447C20.077 3.95747 20.387 4.02947 20.625 4.21847C20.862 4.40947 21 4.69647 21 5.00047V17.2025C21 17.6705 20.676 18.0755 20.22 18.1775L12.22 19.9755C12.146 19.9925 12.073 20.0005 12 20.0005C11.927 20.0005 11.854 19.9925 11.78 19.9755L3.78 18.1775C3.324 18.0755 3 17.6705 3 17.2025V5.00047C3 4.69647 3.138 4.40947 3.375 4.21847C3.613 4.02947 3.922 3.95647 4.22 4.02447L12 5.77247L19.78 4.02447ZM5 6.25047L11 7.59747V17.7505L5 16.4025V6.25047ZM19 16.4025L13 17.7505V7.59747L19 6.25047V16.4025Z" fill="white"/>
<mask id="mask0" mask-type="alpha" maskUnits="userSpaceOnUse" x="3" y="3" width="18" height="18">
<path id="&#240;&#159;&#142;&#168; Icon &#208;&#161;olor_2" fill-rule="evenodd" clip-rule="evenodd" d="M19.78 4.02447C20.077 3.95747 20.387 4.02947 20.625 4.21847C20.862 4.40947 21 4.69647 21 5.00047V17.2025C21 17.6705 20.676 18.0755 20.22 18.1775L12.22 19.9755C12.146 19.9925 12.073 20.0005 12 20.0005C11.927 20.0005 11.854 19.9925 11.78 19.9755L3.78 18.1775C3.324 18.0755 3 17.6705 3 17.2025V5.00047C3 4.69647 3.138 4.40947 3.375 4.21847C3.613 4.02947 3.922 3.95647 4.22 4.02447L12 5.77247L19.78 4.02447ZM5 6.25047L11 7.59747V17.7505L5 16.4025V6.25047ZM19 16.4025L13 17.7505V7.59747L19 6.25047V16.4025Z" fill="white"/>
</mask>
<g mask="url(#mask0)">
</g>
</g>
</svg>
