<svg width="24" height="25" viewBox="0 0 24 25" fill="none" xmlns="http://www.w3.org/2000/svg">
<path fill-rule="evenodd" clip-rule="evenodd" d="M4.29251 17.8C4.08251 17.59 3.97751 17.298 4.00351 17.002L4.38251 12.832C4.42451 12.375 4.62651 11.944 4.95251 11.618L13.9485 2.62196C14.6505 1.91696 15.9235 1.95196 16.6645 2.69096L19.4025 5.42896L19.4035 5.42996C20.1685 6.19596 20.1995 7.41396 19.4715 8.14396L10.4745 17.141C10.1495 17.466 9.71851 17.668 9.26051 17.71L5.09051 18.089C5.06051 18.091 5.03051 18.092 4.99951 18.092C4.73651 18.092 4.48151 17.988 4.29251 17.8ZM16.0185 8.77096L13.3235 6.07596L15.2715 4.12696L17.9655 6.82096L16.0185 8.77096ZM9.07951 15.717L6.10251 15.988L6.36651 13.032L11.9835 7.41496L14.6795 10.112L9.07951 15.717ZM18.9995 22.092C19.5495 22.092 19.9995 21.642 19.9995 21.092C19.9995 20.543 19.5495 20.092 18.9995 20.092H4.99951C4.45051 20.092 3.99951 20.543 3.99951 21.092C3.99951 21.642 4.45051 22.092 4.99951 22.092H18.9995Z" fill="white"/>
</svg>
