<svg width="24" height="24" viewBox="0 0 24 24" fill="none" xmlns="http://www.w3.org/2000/svg">
<path fill-rule="evenodd" clip-rule="evenodd" d="M16.6629 4.59753L19.4029 7.33653C20.1699 8.10453 20.2009 9.32253 19.4709 10.0515L17.4689 12.0545L18.7069 13.2925C19.0979 13.6835 19.0979 14.3165 18.7069 14.7065C18.5119 14.9025 18.2559 14.9995 17.9999 14.9995C17.7439 14.9995 17.4889 14.9025 17.2929 14.7065L16.0549 13.4685L10.4749 19.0475C10.1499 19.3725 9.7179 19.5755 9.2609 19.6175L5.0909 19.9955C5.0609 19.9985 5.0309 19.9995 4.9999 19.9995C4.7369 19.9995 4.4819 19.8955 4.2929 19.7065C4.0829 19.4965 3.9779 19.2045 4.0039 18.9095L4.3829 14.7395C4.4249 14.2825 4.6269 13.8505 4.9519 13.5255L10.5319 7.94553L9.2929 6.70653C8.9029 6.31653 8.9029 5.68353 9.2929 5.29253C9.6839 4.90253 10.3169 4.90253 10.7069 5.29253L11.9459 6.53153L13.9489 4.52953C14.6769 3.80153 15.8959 3.82953 16.6629 4.59753ZM16.0559 10.6418L13.3599 7.94581L15.2719 6.03481L17.9659 8.72881L16.0559 10.6418ZM9.0786 17.6243L6.1026 17.8953L6.3666 14.9392L11.9456 9.35925L14.6416 12.0553L9.0786 17.6243Z" fill="#5752A0"/>
<mask id="mask0" mask-type="alpha" maskUnits="userSpaceOnUse" x="4" y="4" width="16" height="16">
<path fill-rule="evenodd" clip-rule="evenodd" d="M16.6629 4.59753L19.4029 7.33653C20.1699 8.10453 20.2009 9.32253 19.4709 10.0515L17.4689 12.0545L18.7069 13.2925C19.0979 13.6835 19.0979 14.3165 18.7069 14.7065C18.5119 14.9025 18.2559 14.9995 17.9999 14.9995C17.7439 14.9995 17.4889 14.9025 17.2929 14.7065L16.0549 13.4685L10.4749 19.0475C10.1499 19.3725 9.7179 19.5755 9.2609 19.6175L5.0909 19.9955C5.0609 19.9985 5.0309 19.9995 4.9999 19.9995C4.7369 19.9995 4.4819 19.8955 4.2929 19.7065C4.0829 19.4965 3.9779 19.2045 4.0039 18.9095L4.3829 14.7395C4.4249 14.2825 4.6269 13.8505 4.9519 13.5255L10.5319 7.94553L9.2929 6.70653C8.9029 6.31653 8.9029 5.68353 9.2929 5.29253C9.6839 4.90253 10.3169 4.90253 10.7069 5.29253L11.9459 6.53153L13.9489 4.52953C14.6769 3.80153 15.8959 3.82953 16.6629 4.59753ZM16.0559 10.6418L13.3599 7.94581L15.2719 6.03481L17.9659 8.72881L16.0559 10.6418ZM9.0786 17.6243L6.1026 17.8953L6.3666 14.9392L11.9456 9.35925L14.6416 12.0553L9.0786 17.6243Z" fill="white"/>
</mask>
<g mask="url(#mask0)">
</g>
</svg>
