<svg width="24" height="24" viewBox="0 0 24 24" fill="none" xmlns="http://www.w3.org/2000/svg">
<g id="folder">
<path id="&#240;&#159;&#142;&#168; Icon &#208;&#161;olor" fill-rule="evenodd" clip-rule="evenodd" d="M2 18.0685C2 19.4095 3.122 20.5005 4.5 20.5005H19.5C20.878 20.5005 22 19.4095 22 18.0685V9.47849C22 8.13649 20.878 7.04649 19.5 7.04649H12.474L9.875 3.86749C9.685 3.63449 9.4 3.50049 9.101 3.50049H4.5C3.122 3.50049 2 4.59049 2 5.93149V18.0685ZM4 18.0685V13.7555V5.93149C4 5.69349 4.224 5.50049 4.5 5.50049H8.626L11.226 8.67849C11.416 8.91149 11.7 9.04649 12 9.04649H19.5C19.776 9.04649 20 9.23949 20 9.47849V18.0685C20 18.3065 19.776 18.5005 19.5 18.5005H4.5C4.224 18.5005 4 18.3065 4 18.0685Z" fill="#5752A0"/>
<mask id="mask0" mask-type="alpha" maskUnits="userSpaceOnUse" x="2" y="3" width="20" height="18">
<path id="&#240;&#159;&#142;&#168; Icon &#208;&#161;olor_2" fill-rule="evenodd" clip-rule="evenodd" d="M2 18.0685C2 19.4095 3.122 20.5005 4.5 20.5005H19.5C20.878 20.5005 22 19.4095 22 18.0685V9.47849C22 8.13649 20.878 7.04649 19.5 7.04649H12.474L9.875 3.86749C9.685 3.63449 9.4 3.50049 9.101 3.50049H4.5C3.122 3.50049 2 4.59049 2 5.93149V18.0685ZM4 18.0685V13.7555V5.93149C4 5.69349 4.224 5.50049 4.5 5.50049H8.626L11.226 8.67849C11.416 8.91149 11.7 9.04649 12 9.04649H19.5C19.776 9.04649 20 9.23949 20 9.47849V18.0685C20 18.3065 19.776 18.5005 19.5 18.5005H4.5C4.224 18.5005 4 18.3065 4 18.0685Z" fill="white"/>
</mask>
<g mask="url(#mask0)">
</g>
</g>
</svg>
