<svg width="24" height="24" viewBox="0 0 24 24" fill="none" xmlns="http://www.w3.org/2000/svg">
<g id="globe-2">
<path id="&#240;&#159;&#142;&#168; Icon &#208;&#161;olor" fill-rule="evenodd" clip-rule="evenodd" d="M1.99951 12.0005C1.99951 6.48649 6.48551 2.00049 11.9995 2.00049C17.5135 2.00049 21.9995 6.48649 21.9995 12.0005C21.9995 17.5135 17.5135 22.0005 11.9995 22.0005C6.48551 22.0005 1.99951 17.5135 1.99951 12.0005ZM11.9995 4.00049C12.6155 4.00049 13.2105 4.07649 13.7865 4.20849C13.6175 4.58049 13.3565 4.91949 13.0125 5.18849C12.8089 5.34912 12.5818 5.48446 12.3547 5.61975L12.3065 5.64849C11.6555 6.03649 10.9185 6.47649 10.4565 7.32249C9.84051 8.45249 9.84051 9.60649 9.84051 10.6245C9.84051 11.9795 9.79651 12.7805 8.89251 13.4875C7.52351 14.5605 5.42851 13.9615 4.13251 13.4165C4.05051 12.9555 3.99951 12.4835 3.99951 12.0005C3.99951 7.58949 7.58851 4.00049 11.9995 4.00049ZM6.98751 16.0735C6.28651 16.0735 5.59751 15.9615 4.96151 15.7995C6.31651 18.2985 8.96251 20.0005 11.9995 20.0005C13.1005 20.0005 14.1505 19.7765 15.1055 19.3725C15.1045 19.0925 14.9355 18.8075 14.5915 18.2915L14.5659 18.2526C14.4433 18.0664 14.3198 17.879 14.2085 17.6845C13.2215 15.9675 13.9535 14.7395 14.6005 13.6565L14.7005 13.4885C14.9499 13.0676 14.9664 12.6079 14.9873 12.027L14.9875 12.0225C15.0005 11.6115 15.0175 11.1465 15.1255 10.6525C15.5345 8.78549 17.5615 8.31749 18.9895 8.11949C18.2235 6.74449 17.0635 5.62149 15.6635 4.89649C15.3675 5.61249 14.8895 6.25949 14.2465 6.76249C13.9545 6.99217 13.6503 7.17449 13.3558 7.35093L13.3315 7.36549L13.3261 7.36873C12.8354 7.66235 12.4118 7.91583 12.2125 8.28049C11.8405 8.96349 11.8405 9.73249 11.8405 10.6245C11.8405 12.0045 11.8405 13.7205 10.1245 15.0625C9.17051 15.8095 8.06751 16.0735 6.98751 16.0735ZM16.2585 17.1845C16.4725 17.5075 16.7165 17.8855 16.8885 18.3185C18.7775 16.8535 19.9995 14.5695 19.9995 12.0005C19.9995 11.3225 19.9065 10.6675 19.7455 10.0385C18.7865 10.1535 17.2395 10.3485 17.0785 11.0805C17.0095 11.3975 16.9975 11.7345 16.9855 12.0925L16.9853 12.0993C16.9593 12.8256 16.9299 13.6492 16.4205 14.5075L16.3185 14.6805C15.6875 15.7375 15.5535 16.0115 15.9425 16.6875C16.0342 16.8482 16.1385 17.0045 16.2409 17.158L16.2585 17.1845Z" fill="white"/>
<mask id="mask0" mask-type="alpha" maskUnits="userSpaceOnUse" x="1" y="2" width="21" height="21">
<path id="&#240;&#159;&#142;&#168; Icon &#208;&#161;olor_2" fill-rule="evenodd" clip-rule="evenodd" d="M1.99951 12.0005C1.99951 6.48649 6.48551 2.00049 11.9995 2.00049C17.5135 2.00049 21.9995 6.48649 21.9995 12.0005C21.9995 17.5135 17.5135 22.0005 11.9995 22.0005C6.48551 22.0005 1.99951 17.5135 1.99951 12.0005ZM11.9995 4.00049C12.6155 4.00049 13.2105 4.07649 13.7865 4.20849C13.6175 4.58049 13.3565 4.91949 13.0125 5.18849C12.8089 5.34912 12.5818 5.48446 12.3547 5.61975L12.3065 5.64849C11.6555 6.03649 10.9185 6.47649 10.4565 7.32249C9.84051 8.45249 9.84051 9.60649 9.84051 10.6245C9.84051 11.9795 9.79651 12.7805 8.89251 13.4875C7.52351 14.5605 5.42851 13.9615 4.13251 13.4165C4.05051 12.9555 3.99951 12.4835 3.99951 12.0005C3.99951 7.58949 7.58851 4.00049 11.9995 4.00049ZM6.98751 16.0735C6.28651 16.0735 5.59751 15.9615 4.96151 15.7995C6.31651 18.2985 8.96251 20.0005 11.9995 20.0005C13.1005 20.0005 14.1505 19.7765 15.1055 19.3725C15.1045 19.0925 14.9355 18.8075 14.5915 18.2915L14.5659 18.2526C14.4433 18.0664 14.3198 17.879 14.2085 17.6845C13.2215 15.9675 13.9535 14.7395 14.6005 13.6565L14.7005 13.4885C14.9499 13.0676 14.9664 12.6079 14.9873 12.027L14.9875 12.0225C15.0005 11.6115 15.0175 11.1465 15.1255 10.6525C15.5345 8.78549 17.5615 8.31749 18.9895 8.11949C18.2235 6.74449 17.0635 5.62149 15.6635 4.89649C15.3675 5.61249 14.8895 6.25949 14.2465 6.76249C13.9545 6.99217 13.6503 7.17449 13.3558 7.35093L13.3315 7.36549L13.3261 7.36873C12.8354 7.66235 12.4118 7.91583 12.2125 8.28049C11.8405 8.96349 11.8405 9.73249 11.8405 10.6245C11.8405 12.0045 11.8405 13.7205 10.1245 15.0625C9.17051 15.8095 8.06751 16.0735 6.98751 16.0735ZM16.2585 17.1845C16.4725 17.5075 16.7165 17.8855 16.8885 18.3185C18.7775 16.8535 19.9995 14.5695 19.9995 12.0005C19.9995 11.3225 19.9065 10.6675 19.7455 10.0385C18.7865 10.1535 17.2395 10.3485 17.0785 11.0805C17.0095 11.3975 16.9975 11.7345 16.9855 12.0925L16.9853 12.0993C16.9593 12.8256 16.9299 13.6492 16.4205 14.5075L16.3185 14.6805C15.6875 15.7375 15.5535 16.0115 15.9425 16.6875C16.0342 16.8482 16.1385 17.0045 16.2409 17.158L16.2585 17.1845Z" fill="white"/>
</mask>
<g mask="url(#mask0)">
</g>
</g>
</svg>
