<svg width="24" height="24" viewBox="0 0 24 24" fill="none" xmlns="http://www.w3.org/2000/svg">
<path d="M19.4245 4.5754C18.4512 3.5925 17.2933 2.8116 16.0173 2.27754C14.7414 1.74349 13.3724 1.46682 11.9892 1.46341C10.606 1.46001 9.23573 1.72994 7.95714 2.25771C6.67856 2.78547 5.51685 3.56067 4.53876 4.53876C3.56067 5.51685 2.78547 6.67856 2.25771 7.95714C1.72994 9.23573 1.46001 10.606 1.46341 11.9892C1.46682 13.3724 1.74349 14.7414 2.27754 16.0173C2.8116 17.2933 3.5925 18.4512 4.5754 19.4245C5.54866 20.4074 6.70654 21.1883 7.98251 21.7223C9.25849 22.2564 10.6274 22.533 12.0106 22.5364C13.3939 22.5398 14.7641 22.2699 16.0427 21.7421C17.3213 21.2144 18.483 20.4392 19.4611 19.4611C20.4392 18.483 21.2144 17.3213 21.7421 16.0427C22.2699 14.7641 22.5398 13.3939 22.5364 12.0106C22.533 10.6274 22.2564 9.25849 21.7223 7.98251C21.1883 6.70654 20.4074 5.54866 19.4245 4.5754ZM8.62493 9.74993C8.84743 9.74993 9.06494 9.81591 9.24994 9.93952C9.43495 10.0631 9.57914 10.2388 9.66429 10.4444C9.74944 10.65 9.77172 10.8762 9.72831 11.0944C9.6849 11.3126 9.57776 11.5131 9.42042 11.6704C9.26309 11.8278 9.06263 11.9349 8.8444 11.9783C8.62617 12.0217 8.39997 11.9994 8.19441 11.9143C7.98884 11.8291 7.81314 11.6849 7.68952 11.4999C7.56591 11.3149 7.49993 11.0974 7.49993 10.8749C7.49956 10.7271 7.5284 10.5806 7.58481 10.444C7.64121 10.3073 7.72406 10.1831 7.8286 10.0786C7.93314 9.97406 8.05731 9.89121 8.19397 9.83481C8.33063 9.7784 8.47709 9.74956 8.62493 9.74993ZM16.4845 14.7266C15.922 16.6157 14.1313 17.9999 12.0023 17.9999C9.87321 17.9999 8.08258 16.6157 7.5154 14.7266C7.49953 14.6704 7.49704 14.6112 7.50812 14.5538C7.51919 14.4964 7.54353 14.4424 7.57919 14.3961C7.61484 14.3498 7.66083 14.3125 7.71348 14.2871C7.76613 14.2617 7.82399 14.249 7.88243 14.2499H16.1179C16.1763 14.249 16.2341 14.2618 16.2867 14.2872C16.3393 14.3127 16.3852 14.35 16.4208 14.3963C16.4564 14.4426 16.4807 14.4966 16.4918 14.5539C16.5028 14.6113 16.5003 14.6704 16.4845 14.7266ZM15.3749 11.9999C15.1524 11.9999 14.9349 11.9339 14.7499 11.8103C14.5649 11.6867 14.4207 11.511 14.3356 11.3054C14.2504 11.0999 14.2281 10.8737 14.2715 10.6554C14.315 10.4372 14.4221 10.2368 14.5794 10.0794C14.7368 9.9221 14.9372 9.81495 15.1555 9.77154C15.3737 9.72813 15.5999 9.75041 15.8054 9.83556C16.011 9.92071 16.1867 10.0649 16.3103 10.2499C16.4339 10.4349 16.4999 10.6524 16.4999 10.8749C16.5003 11.0228 16.4715 11.1692 16.415 11.3059C16.3586 11.4425 16.2758 11.5667 16.1712 11.6712C16.0667 11.7758 15.9425 11.8586 15.8059 11.915C15.6692 11.9715 15.5228 12.0003 15.3749 11.9999Z" fill="#FF8721"/>
</svg>
