<svg width="24" height="24" viewBox="0 0 24 24" fill="none" xmlns="http://www.w3.org/2000/svg">
<path fill-rule="evenodd" clip-rule="evenodd" d="M3 4H10C10.55 4 11 4.45 11 5C11 5.55 10.55 6 10 6H3C2.45 6 2 5.55 2 5C2 4.45 2.45 4 3 4ZM6 11.0001H10C10.55 11.0001 11 11.4501 11 12.0001C11 12.5501 10.55 13.0001 10 13.0001H6C5.45 13.0001 5 12.5501 5 12.0001C5 11.4501 5.45 11.0001 6 11.0001ZM10.0002 17.9999H8.00025C7.45025 17.9999 7.00025 18.4499 7.00025 18.9999C7.00025 19.5499 7.45025 19.9999 8.00025 19.9999H10.0002C10.5502 19.9999 11.0002 19.5499 11.0002 18.9999C11.0002 18.4499 10.5502 17.9999 10.0002 17.9999ZM19.0002 16.6438L20.3052 15.3838C20.7032 15.0008 21.3362 15.0118 21.7192 15.4088C22.1032 15.8068 22.0922 16.4398 21.6952 16.8228L18.6952 19.7198C18.5002 19.9058 18.2502 19.9998 18.0002 19.9998C17.7442 19.9998 17.4882 19.9028 17.2932 19.7068L14.2932 16.7068C13.9022 16.3168 13.9022 15.6838 14.2932 15.2928C14.6832 14.9028 15.3162 14.9028 15.7072 15.2928L17.0002 16.5858V7.3568L15.6952 8.6158C15.2982 8.9998 14.6652 8.9878 14.2812 8.5908C13.8972 8.1938 13.9082 7.5608 14.3052 7.1768L17.3052 4.2798C17.6992 3.9038 18.3222 3.9058 18.7072 4.2928L21.7072 7.2928C22.0972 7.6838 22.0972 8.3168 21.7072 8.7068C21.5122 8.9028 21.2562 8.9998 21.0002 8.9998C20.7442 8.9998 20.4882 8.9028 20.2932 8.7068L19.0002 7.4138V16.6438Z" fill="white"/>
<mask id="mask0" mask-type="alpha" maskUnits="userSpaceOnUse" x="2" y="4" width="21" height="16">
<path fill-rule="evenodd" clip-rule="evenodd" d="M3 4H10C10.55 4 11 4.45 11 5C11 5.55 10.55 6 10 6H3C2.45 6 2 5.55 2 5C2 4.45 2.45 4 3 4ZM6 11.0001H10C10.55 11.0001 11 11.4501 11 12.0001C11 12.5501 10.55 13.0001 10 13.0001H6C5.45 13.0001 5 12.5501 5 12.0001C5 11.4501 5.45 11.0001 6 11.0001ZM10.0002 17.9999H8.00025C7.45025 17.9999 7.00025 18.4499 7.00025 18.9999C7.00025 19.5499 7.45025 19.9999 8.00025 19.9999H10.0002C10.5502 19.9999 11.0002 19.5499 11.0002 18.9999C11.0002 18.4499 10.5502 17.9999 10.0002 17.9999ZM19.0002 16.6438L20.3052 15.3838C20.7032 15.0008 21.3362 15.0118 21.7192 15.4088C22.1032 15.8068 22.0922 16.4398 21.6952 16.8228L18.6952 19.7198C18.5002 19.9058 18.2502 19.9998 18.0002 19.9998C17.7442 19.9998 17.4882 19.9028 17.2932 19.7068L14.2932 16.7068C13.9022 16.3168 13.9022 15.6838 14.2932 15.2928C14.6832 14.9028 15.3162 14.9028 15.7072 15.2928L17.0002 16.5858V7.3568L15.6952 8.6158C15.2982 8.9998 14.6652 8.9878 14.2812 8.5908C13.8972 8.1938 13.9082 7.5608 14.3052 7.1768L17.3052 4.2798C17.6992 3.9038 18.3222 3.9058 18.7072 4.2928L21.7072 7.2928C22.0972 7.6838 22.0972 8.3168 21.7072 8.7068C21.5122 8.9028 21.2562 8.9998 21.0002 8.9998C20.7442 8.9998 20.4882 8.9028 20.2932 8.7068L19.0002 7.4138V16.6438Z" fill="white"/>
</mask>
<g mask="url(#mask0)">
</g>
</svg>
