<svg width="24" height="24" viewBox="0 0 24 24" fill="none" xmlns="http://www.w3.org/2000/svg">
<g id="options-2-fill">
<path id="&#240;&#159;&#142;&#168; Icon &#208;&#161;olor" fill-rule="evenodd" clip-rule="evenodd" d="M3 7H4.185C4.599 8.161 5.698 9 7 9C8.302 9 9.401 8.161 9.815 7H21C21.553 7 22 6.553 22 6C22 5.447 21.553 5 21 5H9.815C9.401 3.839 8.302 3 7 3C5.698 3 4.599 3.839 4.185 5H3C2.447 5 2 5.447 2 6C2 6.553 2.447 7 3 7ZM19 9C17.698 9 16.599 9.839 16.185 11H3C2.447 11 2 11.447 2 12C2 12.553 2.447 13 3 13H16.185C16.599 14.161 17.698 15 19 15C20.654 15 22 13.654 22 12C22 10.346 20.654 9 19 9ZM13.815 17H21C21.553 17 22 17.447 22 18C22 18.553 21.553 19 21 19H13.815C13.401 20.161 12.302 21 11 21C9.698 21 8.599 20.161 8.185 19H3C2.447 19 2 18.553 2 18C2 17.447 2.447 17 3 17H8.185C8.599 15.839 9.698 15 11 15C12.302 15 13.401 15.839 13.815 17Z" fill="#5752A0"/>
<mask id="mask0" mask-type="alpha" maskUnits="userSpaceOnUse" x="2" y="3" width="20" height="18">
<path id="&#240;&#159;&#142;&#168; Icon &#208;&#161;olor_2" fill-rule="evenodd" clip-rule="evenodd" d="M3 7H4.185C4.599 8.161 5.698 9 7 9C8.302 9 9.401 8.161 9.815 7H21C21.553 7 22 6.553 22 6C22 5.447 21.553 5 21 5H9.815C9.401 3.839 8.302 3 7 3C5.698 3 4.599 3.839 4.185 5H3C2.447 5 2 5.447 2 6C2 6.553 2.447 7 3 7ZM19 9C17.698 9 16.599 9.839 16.185 11H3C2.447 11 2 11.447 2 12C2 12.553 2.447 13 3 13H16.185C16.599 14.161 17.698 15 19 15C20.654 15 22 13.654 22 12C22 10.346 20.654 9 19 9ZM13.815 17H21C21.553 17 22 17.447 22 18C22 18.553 21.553 19 21 19H13.815C13.401 20.161 12.302 21 11 21C9.698 21 8.599 20.161 8.185 19H3C2.447 19 2 18.553 2 18C2 17.447 2.447 17 3 17H8.185C8.599 15.839 9.698 15 11 15C12.302 15 13.401 15.839 13.815 17Z" fill="white"/>
</mask>
<g mask="url(#mask0)">
</g>
</g>
</svg>
