<svg width="24" height="24" viewBox="0 0 24 24" fill="none" xmlns="http://www.w3.org/2000/svg">
<g id="person-done">
<path id="&#240;&#159;&#142;&#168; Icon &#208;&#161;olor" fill-rule="evenodd" clip-rule="evenodd" d="M6 7C6 4.794 7.794 3 10 3C12.206 3 14 4.794 14 7C14 9.206 12.206 11 10 11C7.794 11 6 9.206 6 7ZM10 9C8.897 9 8 8.103 8 7C8 5.897 8.897 5 10 5C11.103 5 12 5.897 12 7C12 8.103 11.103 9 10 9ZM3 20C3 16.14 6.141 13 10 13C13.859 13 17 16.14 17 20C17 20.552 16.553 21 16 21C15.447 21 15 20.552 15 20C15 17.243 12.757 15 10 15C7.243 15 5 17.243 5 20C5 20.552 4.553 21 4 21C3.447 21 3 20.552 3 20ZM19.145 8.656L21.755 5.656C22.117 5.24 22.073 4.608 21.656 4.246C21.239 3.883 20.608 3.926 20.245 4.344L18.379 6.489L17.745 5.78C17.378 5.368 16.746 5.333 16.333 5.702C15.922 6.07 15.887 6.702 16.255 7.114L17.645 8.667C17.834 8.879 18.105 9 18.39 9H18.396C18.684 8.998 18.956 8.873 19.145 8.656Z" fill="white"/>
</g>
</svg>
