<svg width="24" height="24" viewBox="0 0 24 24" fill="none" xmlns="http://www.w3.org/2000/svg">
<g id="pin">
<path id="&#240;&#159;&#142;&#168; Icon &#208;&#161;olor" fill-rule="evenodd" clip-rule="evenodd" d="M4 9.922C4 5.553 7.589 2 12 2C16.411 2 20 5.553 20 9.922C20 15.397 12.951 21.501 12.651 21.758C12.463 21.919 12.232 22 12 22C11.768 22 11.537 21.919 11.349 21.758C11.049 21.501 4 15.397 4 9.922ZM12 19.646C10.325 18.062 6 13.615 6 9.922C6 6.657 8.691 4 12 4C15.309 4 18 6.657 18 9.922C18 13.615 13.675 18.062 12 19.646ZM8.5 9.4995C8.5 7.5695 10.07 5.9995 12 5.9995C13.93 5.9995 15.5 7.5695 15.5 9.4995C15.5 11.4295 13.93 12.9995 12 12.9995C10.07 12.9995 8.5 11.4295 8.5 9.4995ZM10.5 9.4995C10.5 10.3265 11.173 10.9995 12 10.9995C12.827 10.9995 13.5 10.3265 13.5 9.4995C13.5 8.6725 12.827 7.9995 12 7.9995C11.173 7.9995 10.5 8.6725 10.5 9.4995Z" fill="#FF8721"/>
<mask id="mask0" mask-type="alpha" maskUnits="userSpaceOnUse" x="4" y="2" width="16" height="20">
<path id="&#240;&#159;&#142;&#168; Icon &#208;&#161;olor_2" fill-rule="evenodd" clip-rule="evenodd" d="M4 9.922C4 5.553 7.589 2 12 2C16.411 2 20 5.553 20 9.922C20 15.397 12.951 21.501 12.651 21.758C12.463 21.919 12.232 22 12 22C11.768 22 11.537 21.919 11.349 21.758C11.049 21.501 4 15.397 4 9.922ZM12 19.646C10.325 18.062 6 13.615 6 9.922C6 6.657 8.691 4 12 4C15.309 4 18 6.657 18 9.922C18 13.615 13.675 18.062 12 19.646ZM8.5 9.4995C8.5 7.5695 10.07 5.9995 12 5.9995C13.93 5.9995 15.5 7.5695 15.5 9.4995C15.5 11.4295 13.93 12.9995 12 12.9995C10.07 12.9995 8.5 11.4295 8.5 9.4995ZM10.5 9.4995C10.5 10.3265 11.173 10.9995 12 10.9995C12.827 10.9995 13.5 10.3265 13.5 9.4995C13.5 8.6725 12.827 7.9995 12 7.9995C11.173 7.9995 10.5 8.6725 10.5 9.4995Z" fill="white"/>
</mask>
<g mask="url(#mask0)">
</g>
</g>
</svg>
