<svg width="18" height="17" viewBox="0 0 18 17" fill="none" xmlns="http://www.w3.org/2000/svg">
<g opacity="0.6">
<path fill-rule="evenodd" clip-rule="evenodd" d="M6.90913 0.911621C3.36804 0.911621 0.45459 3.71792 0.45459 7.23184C0.45459 10.7458 3.36804 13.5521 6.90913 13.5521C8.73452 13.5521 10.3931 12.8064 11.5718 11.6024C11.6002 11.639 11.6314 11.6741 11.6654 11.7074L15.4473 15.396C15.8426 15.7817 16.4757 15.7738 16.8614 15.3784C17.247 14.9831 17.2391 14.3499 16.8437 13.9643L13.0619 10.2756C12.9529 10.1693 12.8259 10.0929 12.691 10.0463C13.1211 9.20068 13.3637 8.24571 13.3637 7.23184C13.3637 3.71792 10.4502 0.911621 6.90913 0.911621ZM2.45459 7.23184C2.45459 4.86921 4.42531 2.91162 6.90913 2.91162C9.39296 2.91162 11.3637 4.86921 11.3637 7.23184C11.3637 9.59447 9.39296 11.5521 6.90913 11.5521C4.42531 11.5521 2.45459 9.59447 2.45459 7.23184Z" fill="#5752A0"/>
</g>
</svg>
