<svg width="24" height="24" viewBox="0 0 24 24" fill="none" xmlns="http://www.w3.org/2000/svg">
<path fill-rule="evenodd" clip-rule="evenodd" d="M7.25762 21.539C7.65562 21.842 8.12762 22 8.61362 22C8.72862 22 8.84462 21.992 8.96162 21.974C9.57262 21.878 10.1096 21.543 10.4716 21.03L10.7026 20.702C11.0346 20.23 11.5426 19.951 12.1306 19.935C12.7176 19.902 13.2776 20.208 13.6276 20.712L13.7456 20.884C14.1046 21.402 14.6406 21.742 15.2546 21.841C15.8636 21.938 16.4706 21.787 16.9656 21.413L19.0266 19.857C20.0206 19.108 20.2486 17.66 19.5346 16.628L19.2746 16.253C18.9456 15.779 18.8496 15.162 19.0156 14.601C19.1966 13.989 19.6496 13.509 20.2256 13.315L20.4266 13.248C21.6136 12.851 22.2716 11.537 21.8916 10.319L21.1046 7.798C20.9166 7.193 20.5066 6.704 19.9516 6.42C19.4106 6.143 18.7966 6.096 18.2196 6.288L17.8806 6.401C17.3436 6.581 16.7456 6.482 16.2866 6.137L16.1796 6.056C15.7426 5.728 15.4836 5.193 15.4856 4.627L15.4876 4.348C15.4896 3.713 15.2476 3.118 14.8046 2.673C14.3766 2.242 13.8086 2.004 13.2066 2.003L10.6596 2H10.6556C9.40262 2 8.37762 3.042 8.37262 4.326L8.37162 4.567C8.36962 5.164 8.09462 5.729 7.63862 6.077L7.50962 6.175C6.99662 6.565 6.33162 6.676 5.73262 6.472C5.17462 6.281 4.57762 6.322 4.04962 6.588C3.50962 6.861 3.11062 7.335 2.92562 7.922L2.10962 10.517C1.72262 11.749 2.37262 13.04 3.59062 13.457L3.75362 13.514H3.75462C4.27162 13.691 4.68962 14.143 4.87262 14.725L4.92762 14.893C5.14762 15.539 5.07062 16.22 4.69662 16.75C3.97662 17.773 4.19562 19.216 5.18562 19.966L7.25762 21.539ZM6.77962 14.123C6.40762 12.939 5.51862 12.005 4.40262 11.622L4.23862 11.566C4.05562 11.503 3.95862 11.306 4.01762 11.117L4.83462 8.521C4.86262 8.43 4.92062 8.389 4.95262 8.373C4.99462 8.351 5.03862 8.348 5.08562 8.364C6.31762 8.784 7.67762 8.56 8.72062 7.767L8.84962 7.669C9.79762 6.946 10.3666 5.79 10.3716 4.575L10.3726 4.333C10.3736 4.149 10.5006 4 10.6566 4L13.2036 4.003C13.2896 4.003 13.3506 4.047 13.3866 4.084C13.4246 4.122 13.4876 4.205 13.4876 4.338L13.4856 4.618C13.4816 5.814 14.0386 6.949 14.9746 7.653L15.0826 7.734C16.0676 8.475 17.3506 8.685 18.5136 8.298L18.8536 8.185C18.9156 8.164 18.9806 8.169 19.0406 8.2C19.0826 8.222 19.1586 8.275 19.1956 8.393L19.9826 10.914C20.0396 11.098 19.9526 11.298 19.7916 11.351L19.5906 11.419C18.3956 11.819 17.4646 12.797 17.0986 14.033C16.7616 15.168 16.9606 16.424 17.6306 17.392L17.8906 17.767C17.9976 17.922 17.9656 18.153 17.8216 18.261L15.7606 19.816C15.6886 19.872 15.6166 19.875 15.5726 19.866C15.5216 19.858 15.4496 19.83 15.3906 19.746L15.2726 19.575C14.5366 18.512 13.3546 17.909 12.0386 17.936C10.8666 17.97 9.75662 18.573 9.06762 19.55L8.83662 19.878C8.77762 19.962 8.70462 19.989 8.65462 19.997C8.61062 20.002 8.53962 20.002 8.46662 19.947L6.39462 18.373C6.25762 18.269 6.22862 18.049 6.35862 17.865C7.07262 16.851 7.24562 15.499 6.81962 14.243L6.77962 14.123ZM11.9998 10.4999C11.1728 10.4999 10.4998 11.1729 10.4998 11.9999C10.4998 12.8269 11.1728 13.4999 11.9998 13.4999C12.8268 13.4999 13.4998 12.8269 13.4998 11.9999C13.4998 11.1729 12.8268 10.4999 11.9998 10.4999ZM8.49982 11.9999C8.49982 13.9299 10.0698 15.4999 11.9998 15.4999C13.9298 15.4999 15.4998 13.9299 15.4998 11.9999C15.4998 10.0699 13.9298 8.4999 11.9998 8.4999C10.0698 8.4999 8.49982 10.0699 8.49982 11.9999Z" fill="#B5B0FF"/>
<mask id="mask0" mask-type="alpha" maskUnits="userSpaceOnUse" x="1" y="2" width="21" height="20">
<path fill-rule="evenodd" clip-rule="evenodd" d="M7.25762 21.539C7.65562 21.842 8.12762 22 8.61362 22C8.72862 22 8.84462 21.992 8.96162 21.974C9.57262 21.878 10.1096 21.543 10.4716 21.03L10.7026 20.702C11.0346 20.23 11.5426 19.951 12.1306 19.935C12.7176 19.902 13.2776 20.208 13.6276 20.712L13.7456 20.884C14.1046 21.402 14.6406 21.742 15.2546 21.841C15.8636 21.938 16.4706 21.787 16.9656 21.413L19.0266 19.857C20.0206 19.108 20.2486 17.66 19.5346 16.628L19.2746 16.253C18.9456 15.779 18.8496 15.162 19.0156 14.601C19.1966 13.989 19.6496 13.509 20.2256 13.315L20.4266 13.248C21.6136 12.851 22.2716 11.537 21.8916 10.319L21.1046 7.798C20.9166 7.193 20.5066 6.704 19.9516 6.42C19.4106 6.143 18.7966 6.096 18.2196 6.288L17.8806 6.401C17.3436 6.581 16.7456 6.482 16.2866 6.137L16.1796 6.056C15.7426 5.728 15.4836 5.193 15.4856 4.627L15.4876 4.348C15.4896 3.713 15.2476 3.118 14.8046 2.673C14.3766 2.242 13.8086 2.004 13.2066 2.003L10.6596 2H10.6556C9.40262 2 8.37762 3.042 8.37262 4.326L8.37162 4.567C8.36962 5.164 8.09462 5.729 7.63862 6.077L7.50962 6.175C6.99662 6.565 6.33162 6.676 5.73262 6.472C5.17462 6.281 4.57762 6.322 4.04962 6.588C3.50962 6.861 3.11062 7.335 2.92562 7.922L2.10962 10.517C1.72262 11.749 2.37262 13.04 3.59062 13.457L3.75362 13.514H3.75462C4.27162 13.691 4.68962 14.143 4.87262 14.725L4.92762 14.893C5.14762 15.539 5.07062 16.22 4.69662 16.75C3.97662 17.773 4.19562 19.216 5.18562 19.966L7.25762 21.539ZM6.77962 14.123C6.40762 12.939 5.51862 12.005 4.40262 11.622L4.23862 11.566C4.05562 11.503 3.95862 11.306 4.01762 11.117L4.83462 8.521C4.86262 8.43 4.92062 8.389 4.95262 8.373C4.99462 8.351 5.03862 8.348 5.08562 8.364C6.31762 8.784 7.67762 8.56 8.72062 7.767L8.84962 7.669C9.79762 6.946 10.3666 5.79 10.3716 4.575L10.3726 4.333C10.3736 4.149 10.5006 4 10.6566 4L13.2036 4.003C13.2896 4.003 13.3506 4.047 13.3866 4.084C13.4246 4.122 13.4876 4.205 13.4876 4.338L13.4856 4.618C13.4816 5.814 14.0386 6.949 14.9746 7.653L15.0826 7.734C16.0676 8.475 17.3506 8.685 18.5136 8.298L18.8536 8.185C18.9156 8.164 18.9806 8.169 19.0406 8.2C19.0826 8.222 19.1586 8.275 19.1956 8.393L19.9826 10.914C20.0396 11.098 19.9526 11.298 19.7916 11.351L19.5906 11.419C18.3956 11.819 17.4646 12.797 17.0986 14.033C16.7616 15.168 16.9606 16.424 17.6306 17.392L17.8906 17.767C17.9976 17.922 17.9656 18.153 17.8216 18.261L15.7606 19.816C15.6886 19.872 15.6166 19.875 15.5726 19.866C15.5216 19.858 15.4496 19.83 15.3906 19.746L15.2726 19.575C14.5366 18.512 13.3546 17.909 12.0386 17.936C10.8666 17.97 9.75662 18.573 9.06762 19.55L8.83662 19.878C8.77762 19.962 8.70462 19.989 8.65462 19.997C8.61062 20.002 8.53962 20.002 8.46662 19.947L6.39462 18.373C6.25762 18.269 6.22862 18.049 6.35862 17.865C7.07262 16.851 7.24562 15.499 6.81962 14.243L6.77962 14.123ZM11.9998 10.4999C11.1728 10.4999 10.4998 11.1729 10.4998 11.9999C10.4998 12.8269 11.1728 13.4999 11.9998 13.4999C12.8268 13.4999 13.4998 12.8269 13.4998 11.9999C13.4998 11.1729 12.8268 10.4999 11.9998 10.4999ZM8.49982 11.9999C8.49982 13.9299 10.0698 15.4999 11.9998 15.4999C13.9298 15.4999 15.4998 13.9299 15.4998 11.9999C15.4998 10.0699 13.9298 8.4999 11.9998 8.4999C10.0698 8.4999 8.49982 10.0699 8.49982 11.9999Z" fill="white"/>
</mask>
<g mask="url(#mask0)">
</g>
</svg>
