<svg width="24" height="24" viewBox="0 0 24 24" fill="none" xmlns="http://www.w3.org/2000/svg">
<path fill-rule="evenodd" clip-rule="evenodd" d="M17.0985 20.842C17.2435 20.918 17.4025 20.955 17.5615 20.955C17.7695 20.955 17.9765 20.891 18.1495 20.763C18.4575 20.539 18.6105 20.16 18.5465 19.785L17.5745 14.157L21.6945 10.172C21.9695 9.907 22.0675 9.509 21.9505 9.146C21.8345 8.783 21.5205 8.519 21.1435 8.464L15.4425 7.636L12.8955 2.51C12.5575 1.83 11.4415 1.83 11.1035 2.51L8.55655 7.636L2.85555 8.464C2.47855 8.519 2.16455 8.783 2.04855 9.146C1.93155 9.509 2.02955 9.907 2.30455 10.172L6.42455 14.157L5.45255 19.785C5.38855 20.16 5.54155 20.539 5.84955 20.763C6.15455 20.987 6.56255 21.018 6.90055 20.842L11.9995 18.178L17.0985 20.842ZM12.4625 16.1632C12.3175 16.0882 12.1585 16.0502 11.9995 16.0502C11.8405 16.0502 11.6815 16.0882 11.5365 16.1632L7.76755 18.1332L8.48455 13.9762C8.54155 13.6502 8.43255 13.3182 8.19455 13.0872L5.15854 10.1512L9.36155 9.53925C9.68655 9.49225 9.96755 9.28925 10.1135 8.99525L11.9995 5.20125L13.8855 8.99525C14.0315 9.28925 14.3125 9.49225 14.6375 9.53925L18.8405 10.1512L15.8045 13.0872C15.5665 13.3182 15.4575 13.6502 15.5145 13.9762L16.2315 18.1332L12.4625 16.1632Z" fill="white"/>
<mask id="mask0" mask-type="alpha" maskUnits="userSpaceOnUse" x="2" y="2" width="20" height="19">
<path fill-rule="evenodd" clip-rule="evenodd" d="M17.0985 20.842C17.2435 20.918 17.4025 20.955 17.5615 20.955C17.7695 20.955 17.9765 20.891 18.1495 20.763C18.4575 20.539 18.6105 20.16 18.5465 19.785L17.5745 14.157L21.6945 10.172C21.9695 9.907 22.0675 9.509 21.9505 9.146C21.8345 8.783 21.5205 8.519 21.1435 8.464L15.4425 7.636L12.8955 2.51C12.5575 1.83 11.4415 1.83 11.1035 2.51L8.55655 7.636L2.85555 8.464C2.47855 8.519 2.16455 8.783 2.04855 9.146C1.93155 9.509 2.02955 9.907 2.30455 10.172L6.42455 14.157L5.45255 19.785C5.38855 20.16 5.54155 20.539 5.84955 20.763C6.15455 20.987 6.56255 21.018 6.90055 20.842L11.9995 18.178L17.0985 20.842ZM12.4625 16.1632C12.3175 16.0882 12.1585 16.0502 11.9995 16.0502C11.8405 16.0502 11.6815 16.0882 11.5365 16.1632L7.76755 18.1332L8.48455 13.9762C8.54155 13.6502 8.43255 13.3182 8.19455 13.0872L5.15854 10.1512L9.36155 9.53925C9.68655 9.49225 9.96755 9.28925 10.1135 8.99525L11.9995 5.20125L13.8855 8.99525C14.0315 9.28925 14.3125 9.49225 14.6375 9.53925L18.8405 10.1512L15.8045 13.0872C15.5665 13.3182 15.4575 13.6502 15.5145 13.9762L16.2315 18.1332L12.4625 16.1632Z" fill="white"/>
</mask>
<g mask="url(#mask0)">
</g>
</svg>
