<svg width="16" height="17" viewBox="0 0 16 17" fill="none" xmlns="http://www.w3.org/2000/svg">
<path fill-rule="evenodd" clip-rule="evenodd" d="M9.28161 0.996566C8.72742 0.380801 7.77899 0.330883 7.16322 0.885072C6.54746 1.43926 6.49754 2.38769 7.05173 3.00346L10.7989 7.16703H1.5C0.671573 7.16703 0 7.8386 0 8.66703C0 9.49546 0.671573 10.167 1.5 10.167H10.7983L7.05173 14.3299C6.49754 14.9457 6.54746 15.8941 7.16322 16.4483C7.77899 17.0025 8.72742 16.9526 9.28161 16.3368L15.2636 9.69016C15.5137 9.42218 15.6667 9.06248 15.6667 8.66703C15.6667 8.46743 15.6277 8.27693 15.5569 8.10273C15.493 7.94517 15.4013 7.79618 15.2816 7.66324L9.28161 0.996566Z" fill="white"/>
</svg>
