<svg width="17" height="17" viewBox="0 0 17 17" fill="none" xmlns="http://www.w3.org/2000/svg">
<path fill-rule="evenodd" clip-rule="evenodd" d="M9.78161 0.996566C9.22742 0.380801 8.27899 0.330883 7.66322 0.885072C7.04746 1.43926 6.99754 2.38769 7.55173 3.00346L11.2989 7.16703H2C1.17157 7.16703 0.5 7.8386 0.5 8.66703C0.5 9.49546 1.17157 10.167 2 10.167H11.2983L7.55173 14.3299C6.99754 14.9457 7.04746 15.8941 7.66322 16.4483C8.27899 17.0025 9.22742 16.9526 9.78161 16.3368L15.7636 9.69016C16.0137 9.42218 16.1667 9.06248 16.1667 8.66703C16.1667 8.46743 16.1277 8.27693 16.0569 8.10273C15.993 7.94517 15.9013 7.79618 15.7816 7.66324L9.78161 0.996566Z" fill="white"/>
</svg>
