<svg width="94" height="94" viewBox="0 0 94 94" fill="none" xmlns="http://www.w3.org/2000/svg">
<rect y="46.6691" width="66" height="66" rx="24" transform="rotate(-45 0 46.6691)" fill="#FF8721"/>
<path fill-rule="evenodd" clip-rule="evenodd" d="M49.2234 32.5943C48.4845 31.7733 47.2199 31.7068 46.3989 32.4457C45.5779 33.1846 45.5113 34.4492 46.2502 35.2702L54.26 44.1699H35.5C34.3954 44.1699 33.5 45.0653 33.5 46.1699C33.5 47.2745 34.3954 48.1699 35.5 48.1699H54.2586L46.2502 57.068C45.5113 57.889 45.5779 59.1536 46.3989 59.8925C47.2199 60.6315 48.4845 60.5649 49.2234 59.7439L60.2051 47.542C60.5429 47.1839 60.75 46.7011 60.75 46.1699C60.75 45.9546 60.716 45.7473 60.653 45.553C60.5689 45.2928 60.4301 45.0462 60.2366 44.8312L49.2234 32.5943Z" fill="white"/>
</svg>
