<svg width="18" height="18" viewBox="0 0 18 18" fill="none" xmlns="http://www.w3.org/2000/svg">
<path fill-rule="evenodd" clip-rule="evenodd" d="M7.3125 14.625C3.27392 14.625 0 11.3511 0 7.3125C0 3.27392 3.27392 0 7.3125 0C11.3511 0 14.625 3.27392 14.625 7.3125C14.625 8.99267 14.0583 10.5405 13.1057 11.7753L17.6862 16.1711C18.1046 16.5895 18.1046 17.2679 17.6862 17.6863C17.2678 18.1047 16.5894 18.1047 16.171 17.6863L11.5626 13.2638C10.3648 14.1207 8.89755 14.625 7.3125 14.625ZM7.3125 12.375C10.1084 12.375 12.375 10.1084 12.375 7.31251C12.375 4.51657 10.1084 2.25001 7.3125 2.25001C4.51656 2.25001 2.25 4.51657 2.25 7.31251C2.25 10.1084 4.51656 12.375 7.3125 12.375Z" fill="white"/>
</svg>
