<svg width="28" height="28" viewBox="0 0 28 28" fill="none" xmlns="http://www.w3.org/2000/svg">
<path d="M15.0959 3.00073C17.1059 3.00421 17.5238 3.01998 18.5352 3.06613C19.706 3.11953 20.5057 3.3055 21.2054 3.57744C21.9287 3.85851 22.5421 4.23464 23.1537 4.84616C23.7652 5.45773 24.1414 6.07117 24.4225 6.79452C24.6944 7.4942 24.8803 8.29383 24.9337 9.46465C24.9799 10.4761 24.9957 10.894 24.9991 12.9039V15.0959C24.9957 17.1059 24.9799 17.5238 24.9337 18.5352C24.8803 19.706 24.6944 20.5057 24.4225 21.2054C24.1414 21.9287 23.7652 22.5421 23.1537 23.1537C22.5421 23.7652 21.9287 24.1414 21.2054 24.4225C20.5057 24.6944 19.706 24.8803 18.5352 24.9337C17.5238 24.9799 17.1059 24.9957 15.0959 24.9991H12.9039C10.894 24.9957 10.4761 24.9799 9.46465 24.9337C8.29383 24.8803 7.4942 24.6944 6.79452 24.4225C6.07117 24.1414 5.45773 23.7652 4.84616 23.1537C4.23464 22.5421 3.85851 21.9287 3.57744 21.2054C3.3055 20.5057 3.11953 19.706 3.06613 18.5352C3.01998 17.5238 3.00421 17.1059 3.00073 15.0959V12.9039C3.00421 10.894 3.01998 10.4761 3.06613 9.46465C3.11953 8.29383 3.3055 7.4942 3.57744 6.79452C3.85851 6.07117 4.23464 5.45773 4.84616 4.84616C5.45773 4.23464 6.07117 3.85851 6.79452 3.57744C7.4942 3.3055 8.29383 3.11953 9.46465 3.06613C10.4761 3.01998 10.894 3.00421 12.9039 3.00073H15.0959ZM14.5718 4.98208H13.4281C11.011 4.98366 10.6349 4.99679 9.55499 5.04606C8.4825 5.09496 7.90006 5.27416 7.51245 5.4248C6.999 5.62435 6.63257 5.86272 6.24766 6.24766C5.86272 6.63257 5.62435 6.999 5.4248 7.51245C5.27416 7.90006 5.09496 8.4825 5.04606 9.55499C4.99679 10.6349 4.98366 11.011 4.98208 13.4281V14.5718C4.98366 16.9889 4.99679 17.365 5.04606 18.4449C5.09496 19.5174 5.27416 20.0998 5.4248 20.4874C5.62435 21.0009 5.86276 21.3673 6.24766 21.7522C6.63257 22.1372 6.999 22.3755 7.51245 22.5751C7.90006 22.7257 8.4825 22.9049 9.55499 22.9538C10.5548 22.9994 10.9512 23.0141 12.9234 23.0172H15.0765C17.0487 23.0141 17.4451 22.9994 18.4449 22.9538C19.5174 22.9049 20.0998 22.7257 20.4874 22.5751C21.0009 22.3755 21.3673 22.1372 21.7522 21.7522C22.1372 21.3673 22.3755 21.0009 22.5751 20.4874C22.7257 20.0998 22.9049 19.5174 22.9538 18.4449C22.9994 17.445 23.0141 17.0485 23.0172 15.0765V12.9234C23.0141 10.9514 22.9994 10.5549 22.9538 9.55499C22.9049 8.4825 22.7257 7.90006 22.5751 7.51245C22.3755 6.999 22.1372 6.63257 21.7522 6.24766C21.3673 5.86272 21.0009 5.62435 20.4874 5.4248C20.0998 5.27416 19.5174 5.09496 18.4449 5.04606C17.365 4.99679 16.9889 4.98366 14.5718 4.98208ZM13.9965 8.35654C17.1152 8.35654 19.6433 10.8847 19.6433 14.0034C19.6433 17.1221 17.1152 19.6503 13.9965 19.6503C10.8778 19.6503 8.3496 17.1221 8.3496 14.0034C8.3496 10.8847 10.8778 8.35654 13.9965 8.35654ZM13.9965 10.3379C11.972 10.3379 10.331 11.979 10.331 14.0034C10.331 16.0278 11.972 17.6689 13.9965 17.6689C16.0209 17.6689 17.662 16.0278 17.662 14.0034C17.662 11.979 16.0209 10.3379 13.9965 10.3379ZM19.8664 6.81384C20.5952 6.81384 21.186 7.40465 21.186 8.13344C21.186 8.86224 20.5952 9.45301 19.8664 9.45301C19.1377 9.45301 18.5469 8.86224 18.5469 8.13344C18.5469 7.40465 19.1377 6.81384 19.8664 6.81384Z" fill="white"/>
</svg>