<svg width="32" height="32" viewBox="0 0 32 32" fill="none" xmlns="http://www.w3.org/2000/svg">
<path d="M24 5.97338C21.8783 3.85164 19.0006 2.65967 16 2.65967C12.9994 2.65967 10.1217 3.85164 7.99999 5.97338C5.87826 8.09511 4.68628 10.9728 4.68628 13.9734C4.68628 16.974 5.87826 19.8516 7.99999 21.9734L15.0267 29.0134C15.1506 29.1383 15.2981 29.2375 15.4606 29.3052C15.623 29.3729 15.7973 29.4078 15.9733 29.4078C16.1493 29.4078 16.3236 29.3729 16.4861 29.3052C16.6486 29.2375 16.796 29.1383 16.92 29.0134L24 21.9067C26.1129 19.7938 27.2998 16.9281 27.2998 13.94C27.2998 10.952 26.1129 8.08628 24 5.97338ZM22.0933 20L16 26.12L9.90665 20C8.70285 18.7951 7.88329 17.2604 7.55158 15.5898C7.21987 13.9192 7.39091 12.1877 8.04306 10.6143C8.69521 9.04086 9.79921 7.69611 11.2155 6.75001C12.6318 5.80392 14.2968 5.29895 16 5.29895C17.7032 5.29895 19.3682 5.80392 20.7845 6.75001C22.2008 7.69611 23.3048 9.04086 23.9569 10.6143C24.6091 12.1877 24.7801 13.9192 24.4484 15.5898C24.1167 17.2604 23.2971 18.7951 22.0933 20ZM12 9.88004C10.9236 10.9597 10.3192 12.4221 10.3192 13.9467C10.3192 15.4713 10.9236 16.9337 12 18.0134C12.7997 18.8144 13.8181 19.3615 14.9275 19.5859C16.0369 19.8103 17.1879 19.7022 18.2361 19.2749C19.2842 18.8477 20.1829 18.1204 20.8193 17.1844C21.4557 16.2483 21.8015 15.1452 21.8133 14.0134C21.8193 13.2576 21.6738 12.5084 21.3852 11.8099C21.0966 11.1114 20.671 10.4779 20.1333 9.94671C19.6049 9.40615 18.9748 8.97543 18.2792 8.67933C17.5837 8.38323 16.8364 8.22761 16.0805 8.22141C15.3246 8.21522 14.5749 8.35857 13.8746 8.64323C13.1743 8.92788 12.5372 9.34822 12 9.88004ZM18.2533 16.12C17.748 16.633 17.0803 16.9546 16.3642 17.0297C15.648 17.1048 14.9281 16.9289 14.3273 16.5319C13.7266 16.135 13.2824 15.5417 13.0707 14.8535C12.8589 14.1653 12.8929 13.4249 13.1666 12.7589C13.4403 12.0929 13.9369 11.5427 14.5714 11.2024C15.2059 10.862 15.939 10.7526 16.6452 10.8929C17.3515 11.0331 17.9871 11.4144 18.4433 11.9714C18.8996 12.5284 19.1482 13.2267 19.1467 13.9467C19.1273 14.7697 18.782 15.5514 18.1867 16.12H18.2533Z" fill="white"/>
</svg>