<svg width="32" height="32" viewBox="0 0 32 32" fill="none" xmlns="http://www.w3.org/2000/svg">
<path d="M25.3334 5.33325H6.66675C5.60588 5.33325 4.58847 5.75468 3.83832 6.50482C3.08818 7.25497 2.66675 8.27239 2.66675 9.33325V22.6666C2.66675 23.7274 3.08818 24.7449 3.83832 25.495C4.58847 26.2452 5.60588 26.6666 6.66675 26.6666H25.3334C26.3943 26.6666 27.4117 26.2452 28.1618 25.495C28.912 24.7449 29.3334 23.7274 29.3334 22.6666V9.33325C29.3334 8.27239 28.912 7.25497 28.1618 6.50482C27.4117 5.75468 26.3943 5.33325 25.3334 5.33325ZM6.66675 7.99992H25.3334C25.687 7.99992 26.0262 8.14039 26.2762 8.39044C26.5263 8.64049 26.6667 8.97963 26.6667 9.33325L16.0001 15.8399L5.33341 9.33325C5.33341 8.97963 5.47389 8.64049 5.72394 8.39044C5.97399 8.14039 6.31313 7.99992 6.66675 7.99992ZM26.6667 22.6666C26.6667 23.0202 26.5263 23.3593 26.2762 23.6094C26.0262 23.8594 25.687 23.9999 25.3334 23.9999H6.66675C6.31313 23.9999 5.97399 23.8594 5.72394 23.6094C5.47389 23.3593 5.33341 23.0202 5.33341 22.6666V12.3733L15.3067 18.4666C15.5094 18.5836 15.7394 18.6452 15.9734 18.6452C16.2075 18.6452 16.4374 18.5836 16.6401 18.4666L26.6667 12.3733V22.6666Z" fill="white"/>
</svg>