<svg width="28" height="28" viewBox="0 0 28 28" fill="none" xmlns="http://www.w3.org/2000/svg">
<path d="M18.1989 14.8772C19.0536 14.3429 20.1816 14.5981 20.719 15.4475C21.2567 16.295 20.9995 17.4155 20.1457 17.9496C19.0184 18.6533 17.7934 19.1522 16.5236 19.4393L20.0106 22.9024C20.7256 23.6103 20.7256 24.7595 20.0106 25.4685C19.2974 26.1772 18.1403 26.1772 17.4278 25.4685L13.9997 22.0654L10.5738 25.4685C10.2169 25.8224 9.74926 25.9996 9.28105 25.9996C8.8138 25.9996 8.34694 25.8224 7.98965 25.4685C7.27566 24.7595 7.27566 23.611 7.98888 22.9024L11.4755 19.4393C10.2063 19.1522 8.98125 18.6525 7.85422 17.9496C7.00003 17.4155 6.74339 16.2958 7.28125 15.4475C7.81853 14.5981 8.94576 14.3429 9.80097 14.8772C12.3544 16.4715 15.6439 16.4722 18.1989 14.8772ZM14.0004 2C17.4404 2 20.2379 4.77839 20.2379 8.19472C20.2379 11.6095 17.4404 14.387 14.0004 14.387C10.5603 14.387 7.76259 11.6095 7.76259 8.19472C7.76259 4.77839 10.5603 2 14.0004 2ZM14.0004 5.63013C12.5771 5.63013 11.4178 6.78053 11.4178 8.19472C11.4178 9.60758 12.5771 10.7584 14.0004 10.7584C15.4242 10.7584 16.583 9.60758 16.583 8.19472C16.583 6.78053 15.4242 5.63013 14.0004 5.63013Z" fill="white"/>
</svg>