<svg width="32" height="32" viewBox="0 0 32 32" fill="none" xmlns="http://www.w3.org/2000/svg">
<path d="M25.9201 17.3335C25.6268 17.3335 25.3201 17.2401 25.0268 17.1735C24.4328 17.0426 23.849 16.8688 23.2801 16.6535C22.6616 16.4285 21.9817 16.4401 21.3712 16.6863C20.7608 16.9324 20.2629 17.3957 19.9735 17.9868L19.6801 18.5868C18.3815 17.8644 17.1881 16.9671 16.1335 15.9201C15.0865 14.8655 14.1892 13.6721 13.4668 12.3735L14.0268 12.0001C14.618 11.7107 15.0812 11.2129 15.3273 10.6024C15.5735 9.99195 15.5852 9.31203 15.3601 8.69348C15.1484 8.12338 14.9747 7.53988 14.8401 6.94682C14.7735 6.65348 14.7201 6.34682 14.6801 6.04015C14.5182 5.10098 14.0263 4.25047 13.293 3.6418C12.5596 3.03313 11.6331 2.70629 10.6801 2.72015H6.68013C6.10551 2.71475 5.53647 2.83323 5.01175 3.06752C4.48703 3.30181 4.01895 3.64641 3.63937 4.07786C3.2598 4.50931 2.97765 5.01747 2.81212 5.56777C2.64659 6.11806 2.60157 6.69756 2.68013 7.26682C3.39045 12.8527 5.94151 18.0427 9.93034 22.017C13.9192 25.9913 19.1184 28.5235 24.7068 29.2135H25.2135C26.1967 29.2149 27.146 28.8542 27.8801 28.2001C28.302 27.8229 28.6389 27.3604 28.8688 26.8432C29.0986 26.3261 29.2161 25.7661 29.2135 25.2001V21.2001C29.1971 20.274 28.8599 19.3822 28.2593 18.677C27.6586 17.9719 26.8319 17.497 25.9201 17.3335ZM26.5868 25.3335C26.5866 25.5228 26.546 25.7099 26.4678 25.8823C26.3897 26.0547 26.2757 26.2085 26.1335 26.3335C25.9845 26.4621 25.8103 26.5582 25.622 26.6156C25.4337 26.673 25.2355 26.6904 25.0401 26.6668C20.0467 26.0266 15.4084 23.7421 11.8571 20.1739C8.30573 16.6056 6.04335 11.9566 5.4268 6.96015C5.40558 6.76484 5.42418 6.56726 5.48147 6.37934C5.53876 6.19142 5.63356 6.01707 5.76013 5.86682C5.88508 5.72459 6.03888 5.6106 6.21131 5.53244C6.38373 5.45427 6.57082 5.41372 6.76013 5.41348H10.7601C11.0702 5.40658 11.373 5.50799 11.6163 5.70024C11.8597 5.8925 12.0284 6.16358 12.0935 6.46682C12.1468 6.83126 12.2135 7.19126 12.2935 7.54682C12.4475 8.24967 12.6525 8.94039 12.9068 9.61348L11.0401 10.4801C10.8805 10.5534 10.737 10.6574 10.6177 10.7863C10.4984 10.9151 10.4057 11.0663 10.345 11.2311C10.2843 11.3958 10.2568 11.571 10.2639 11.7464C10.2711 11.9219 10.3129 12.0942 10.3868 12.2535C12.3057 16.3638 15.6098 19.6679 19.7201 21.5868C20.0447 21.7202 20.4089 21.7202 20.7335 21.5868C20.8997 21.5273 21.0526 21.4354 21.183 21.3164C21.3135 21.1974 21.419 21.0536 21.4935 20.8935L22.3201 19.0268C23.0094 19.2733 23.7129 19.4781 24.4268 19.6401C24.7824 19.7201 25.1424 19.7868 25.5068 19.8401C25.81 19.9052 26.0811 20.0739 26.2734 20.3173C26.4656 20.5607 26.567 20.8634 26.5601 21.1735L26.5868 25.3335Z" fill="white"/>
</svg>