<svg width="32" height="32" viewBox="0 0 32 32" fill="none" xmlns="http://www.w3.org/2000/svg">
<path d="M19.6932 7.82667C19.9993 8.0005 20.3618 8.04618 20.7015 7.95376C21.0413 7.86134 21.3306 7.63831 21.5065 7.33333C21.6521 7.07647 21.8788 6.87519 22.151 6.76104C22.4233 6.64689 22.7258 6.62633 23.011 6.70259C23.2962 6.77885 23.548 6.94761 23.727 7.18242C23.9059 7.41722 24.0019 7.70478 23.9999 8C23.9999 8.35362 23.8594 8.69276 23.6093 8.94281C23.3593 9.19286 23.0201 9.33333 22.6665 9.33333C22.3129 9.33333 21.9738 9.47381 21.7237 9.72386C21.4737 9.97391 21.3332 10.313 21.3332 10.6667C21.3332 11.0203 21.4737 11.3594 21.7237 11.6095C21.9738 11.8595 22.3129 12 22.6665 12C23.3686 11.9995 24.0581 11.8143 24.6659 11.463C25.2737 11.1116 25.7783 10.6065 26.129 9.99833C26.4797 9.39018 26.6642 8.70043 26.664 7.9984C26.6637 7.29636 26.4786 6.60676 26.1274 5.99889C25.7762 5.39102 25.2712 4.88629 24.6631 4.53542C24.0551 4.18454 23.3654 3.99989 22.6633 4C21.9613 4.00011 21.2716 4.18499 20.6637 4.53606C20.0557 4.88713 19.5509 5.39202 19.1999 6C19.1117 6.15218 19.0545 6.32029 19.0316 6.49466C19.0087 6.66904 19.0205 6.84622 19.0664 7.016C19.1122 7.18579 19.1912 7.34483 19.2988 7.48396C19.4064 7.62309 19.5404 7.73956 19.6932 7.82667ZM25.4265 17.3333C25.0765 17.2879 24.7228 17.3831 24.4429 17.598C24.163 17.813 23.9797 18.1301 23.9332 18.48C23.6534 20.7402 22.5568 22.8201 20.85 24.328C19.1432 25.8359 16.944 26.6677 14.6665 26.6667H7.21319L8.07986 25.8C8.3282 25.5502 8.46758 25.2122 8.46758 24.86C8.46758 24.5077 8.3282 24.1698 8.07986 23.92C6.77979 22.6148 5.89504 20.9541 5.53705 19.147C5.17906 17.34 5.36384 15.4674 6.06813 13.7651C6.77241 12.0629 7.96469 10.6071 9.49478 9.58119C11.0249 8.55528 12.8243 8.00512 14.6665 8C15.0201 8 15.3593 7.85952 15.6093 7.60947C15.8594 7.35943 15.9999 7.02029 15.9999 6.66667C15.9999 6.31304 15.8594 5.97391 15.6093 5.72386C15.3593 5.47381 15.0201 5.33333 14.6665 5.33333C12.4122 5.34274 10.2061 5.98698 8.30092 7.19226C6.39579 8.39754 4.8687 10.1151 3.89461 12.1482C2.92052 14.1812 2.53883 16.4476 2.79325 18.6875C3.04768 20.9275 3.92795 23.0505 5.33319 24.8133L3.05319 27.0533C2.86818 27.2408 2.74286 27.4789 2.69302 27.7376C2.64319 27.9962 2.67109 28.2638 2.77319 28.5067C2.87322 28.7502 3.04308 28.9586 3.26138 29.1057C3.47967 29.2528 3.73663 29.332 3.99986 29.3333H14.6665C17.5885 29.3337 20.4102 28.268 22.6023 26.3361C24.7944 24.4042 26.2063 21.7388 26.5732 18.84C26.5976 18.6657 26.5872 18.4882 26.5427 18.318C26.4981 18.1477 26.4203 17.9879 26.3137 17.8478C26.2071 17.7077 26.0738 17.5901 25.9216 17.5019C25.7693 17.4136 25.601 17.3563 25.4265 17.3333ZM23.1732 13.4267C22.9305 13.3193 22.6612 13.2868 22.3999 13.3333L22.1599 13.4133L21.9199 13.5333L21.7199 13.7067C21.5999 13.8295 21.5049 13.9744 21.4399 14.1333C21.361 14.2996 21.3244 14.4828 21.3332 14.6667C21.3293 14.8445 21.361 15.0213 21.4265 15.1867C21.4955 15.3467 21.5951 15.4916 21.7199 15.6133C21.8444 15.7369 21.9922 15.8347 22.1547 15.901C22.3171 15.9674 22.4911 16.001 22.6665 16C23.0201 16 23.3593 15.8595 23.6093 15.6095C23.8594 15.3594 23.9999 15.0203 23.9999 14.6667C24.0044 14.4918 23.9678 14.3182 23.8932 14.16C23.7499 13.8396 23.4936 13.5833 23.1732 13.44V13.4267Z" fill="white"/>
</svg>