<svg width="28" height="28" viewBox="0 0 28 28" fill="none" xmlns="http://www.w3.org/2000/svg">
<path d="M9.92114 22.9347C18.2186 22.9347 22.756 16.0605 22.756 10.0998C22.756 9.90446 22.7521 9.71 22.7431 9.5166C23.6238 8.87994 24.3895 8.0855 24.9935 7.18095C24.1852 7.53995 23.3154 7.78199 22.4029 7.89105C23.3343 7.33275 24.0493 6.44904 24.3865 5.39576C23.5148 5.91246 22.5497 6.28827 21.5222 6.49064C20.6991 5.61388 19.5267 5.06543 18.2295 5.06543C15.7381 5.06543 13.7178 7.0857 13.7178 9.57614C13.7178 9.93023 13.7575 10.2744 13.8348 10.6047C10.0858 10.4162 6.76132 8.62111 4.53666 5.89162C4.14889 6.5581 3.92576 7.33275 3.92576 8.15885C3.92576 9.72399 4.72214 11.1056 5.9331 11.9138C5.19328 11.891 4.49805 11.6877 3.89006 11.3495C3.889 11.3683 3.889 11.3872 3.889 11.407C3.889 13.592 5.4442 15.4159 7.50809 15.8295C7.1293 15.9325 6.73054 15.9881 6.31894 15.9881C6.02835 15.9881 5.74569 15.9594 5.47093 15.9068C6.04524 17.699 7.71046 19.0032 9.68509 19.04C8.14088 20.2499 6.19598 20.9709 4.08249 20.9709C3.71847 20.9709 3.35946 20.9501 3.00635 20.9084C5.00287 22.1878 7.37327 22.9347 9.92114 22.9347Z" fill="white"/>
</svg>