<svg width="28" height="28" viewBox="0 0 28 28" fill="none" xmlns="http://www.w3.org/2000/svg">
<path d="M17.3733 3C23.5333 3 25 4.46667 25 10.6267V17.3733C25 23.5333 23.5333 25 17.3733 25H10.6267C4.46667 25 3 23.5333 3 17.3733V10.6267C3 4.46667 4.46667 3 10.6267 3H17.3733ZM8.72919 9.875H7.12503C6.66669 9.875 6.57502 10.0908 6.57502 10.3287C6.57502 10.7536 7.11887 12.861 9.10727 15.6481C10.4329 17.5515 12.3005 18.5833 14 18.5833C15.0197 18.5833 15.1459 18.3542 15.1459 17.9594V16.5208C15.1459 16.0625 15.2425 15.971 15.5654 15.971C15.8033 15.971 16.2112 16.09 17.1629 17.0077C18.2506 18.0954 18.4299 18.5833 19.0417 18.5833H20.6459C21.1042 18.5833 21.3334 18.3542 21.2012 17.9019C21.0565 17.4512 20.5372 16.7972 19.8481 16.022C19.4742 15.5801 18.9134 15.1043 18.7434 14.8663C18.5055 14.5605 18.5735 14.4245 18.7434 14.1526L18.772 14.1121C19.0137 13.7685 20.7124 11.3326 20.9018 10.4647C21.0037 10.1248 20.9018 9.875 20.4167 9.875H18.8125C18.4046 9.875 18.2166 10.0908 18.1146 10.3287C18.1146 10.3287 17.2988 12.3171 16.1432 13.6087C15.7693 13.9826 15.5993 14.1016 15.3954 14.1016C15.2934 14.1016 15.1458 13.9826 15.1458 13.6427V10.4647C15.1458 10.0568 15.0275 9.875 14.6875 9.875H12.1667C11.9118 9.875 11.7585 10.0643 11.7585 10.2437C11.7585 10.6304 12.3363 10.7196 12.3959 11.8073V14.1696C12.3959 14.6875 12.3023 14.7814 12.0984 14.7814C11.5546 14.7814 10.2317 12.7841 9.44715 10.4986C9.29339 10.0544 9.13917 9.875 8.72919 9.875Z" fill="white"/>
</svg>