<svg width="358" height="330" viewBox="0 0 358 330" fill="none" xmlns="http://www.w3.org/2000/svg">
  <path d="M341.358 265.391C363.708 241.396 362.377 203.824 338.383 181.472C314.39 159.12 276.82 160.452 254.47 184.447C232.119 208.442 233.451 246.014 257.444 268.366C281.437 290.718 319.007 289.387 341.358 265.391Z" fill="url(#paint0_linear)"/>
  <path opacity="0.22" d="M239.9 120.099C239.865 149.19 229.262 177.276 210.064 199.131C190.865 220.985 164.38 235.118 135.538 238.898C106.696 242.679 77.4636 235.849 53.2819 219.681C29.1003 203.512 11.6175 179.107 4.08812 151.008C-3.44123 122.909 -0.504041 93.0315 12.3529 66.937C25.2098 40.8425 47.1104 20.3094 73.9776 9.1601C100.845 -1.98915 130.848 -2.99479 158.401 6.3304C185.954 15.6556 209.18 34.6762 223.756 59.8512C234.357 78.1579 239.927 98.9439 239.9 120.099Z" fill="url(#paint1_linear)"/>
  <path d="M225.1 120.099C225.101 145.592 215.839 170.217 199.039 189.39C182.239 208.563 159.044 220.978 133.774 224.324C108.503 227.67 82.8773 221.719 61.6668 207.579C40.4563 193.438 25.1059 172.072 18.473 147.457C11.8401 122.843 14.3766 96.6561 25.6103 73.772C36.844 50.888 56.0095 32.8656 79.5394 23.0595C103.069 13.2535 129.361 12.3319 153.519 20.4662C177.678 28.6006 198.058 45.2367 210.867 67.278C220.19 83.32 225.101 101.544 225.1 120.099Z" fill="url(#paint2_linear)"/>
  <path d="M178.229 91.2808C174.301 115.014 173.171 140.335 158.13 160.22C144.381 178.437 118.82 184.249 97.348 177.926C84.3261 173.775 71.8574 168.055 60.2169 160.893C57.9567 159.601 29.2204 145.34 18.4578 146.847C22.5162 162.251 30.0227 176.53 40.4099 188.607C50.7971 200.683 63.7933 210.241 78.4162 216.557C93.0392 222.873 108.906 225.782 124.819 225.065C140.731 224.347 156.272 220.022 170.268 212.416C184.263 204.81 196.347 194.122 205.606 181.16C214.864 168.198 221.056 153.301 223.712 137.594C226.368 121.888 225.42 105.783 220.939 90.4968C216.457 75.2106 208.56 61.1432 197.844 49.3574C187.055 58.6408 181.324 72.5794 178.229 91.2808Z" fill="url(#paint3_linear)"/>
  <path opacity="0.62" d="M87.7962 161.995C97.7403 163.611 107.88 163.611 117.824 161.995C133.968 159.305 147.717 146.927 155.009 132.1C167.144 107.506 156.435 74.8658 178.741 55.2227C169.969 62.9454 163.619 69.0267 161.171 80.8126C159.145 92.6418 154.861 103.97 148.551 114.179C141.852 124.081 131.6 132.1 119.734 133.768C106.846 135.598 94.5498 130.028 82.0651 127.31C72.7016 125.212 55.3737 123.247 52.8176 136.513C51.8489 141.572 55.1046 146.577 59.0599 149.967C67.4102 156.441 77.3243 160.591 87.7962 161.995Z" fill="url(#paint4_linear)"/>
  <path opacity="0.48" d="M81.7423 135.302C78.2005 133.816 74.4153 132.995 70.576 132.881C68.2071 132.721 65.8346 133.136 63.661 134.092C56.9075 137.563 61.8852 146.631 66.3517 150.048C70.7552 153.094 75.8719 154.948 81.2041 155.43C85.6437 156.049 93.1238 155.78 94.4153 150.452C95.5723 145.851 91.9668 140.711 88.1192 138.478C86.0765 137.26 83.9448 136.199 81.7423 135.302Z" fill="url(#paint5_linear)"/>
  <path opacity="0.48" d="M201.423 103.04C193.163 103.04 187.324 110.197 184.553 118.216C181.485 127.015 179.171 136.083 175.943 144.801C170.292 159.736 161.386 171.71 146.668 178.329C149.655 176.957 153.637 177.011 156.839 175.638C160.05 174.167 163.098 172.363 165.933 170.257C171.934 166.059 175.674 160.65 180.167 154.946C182.41 151.652 185.586 149.103 189.288 147.627C191.153 146.962 193.193 146.984 195.043 147.69C196.893 148.395 198.43 149.737 199.378 151.475C199.823 152.661 200.042 153.921 200.024 155.188C200.293 165.494 194.939 174.858 187.782 181.908C179.71 189.981 169.243 195.201 159.045 200.34C170.149 197.254 180.674 192.373 190.203 185.891C197.541 181.179 203.81 174.983 208.607 167.701C217.675 153.035 223.245 130.029 216.464 113.561C215.284 110.512 213.224 107.884 210.545 106.01C207.867 104.136 204.691 103.102 201.423 103.04Z" fill="url(#paint6_linear)"/>
  <path d="M185.279 37.5716C184.122 38.4058 183.019 39.2938 181.97 40.2625C179.519 42.3303 177.2 44.5501 175.028 46.9089C169.026 53.3809 164.564 61.1263 161.978 69.5658C157.78 83.5581 154.067 104.143 136.686 106.968C125.519 108.798 112.308 101.318 113.976 88.7246C114.96 83.5858 117.28 78.797 120.703 74.8398C123.932 70.7228 127.591 66.9826 130.389 62.5965C133.618 57.5915 135.582 51.8331 139.053 47.1241C143.971 40.6659 150.666 35.7841 158.319 33.0779C160.256 32.3245 162.193 31.6518 164.184 31.0867C166.875 30.2256 169.754 29.5798 172.579 28.9609C173.063 29.23 173.575 29.526 174.059 29.8489C171.826 30.6293 169.619 31.4634 167.413 32.4052C162.322 34.4837 157.454 37.071 152.883 40.1279C152.13 40.6123 151.43 41.1504 150.677 41.6886C141.529 48.5772 134.21 58.8024 133.242 70.2385C132.849 73.4217 133.401 76.6499 134.829 79.5219C135.572 80.9297 136.701 82.0971 138.082 82.888C139.464 83.6789 141.042 84.0606 142.632 83.9887C149.117 83.2891 151.996 75.2434 154.471 70.2385C157.361 63.6454 160.771 57.2929 164.669 51.2411C168.481 46.0106 173.348 41.638 178.956 38.4058C180.395 37.5652 181.887 36.8192 183.422 36.1724L185.279 37.5716Z" fill="url(#paint7_linear)"/>
  <path d="M82.3879 107.641C82.0494 108.022 81.6354 108.329 81.1723 108.542C80.7092 108.755 80.2069 108.87 79.6972 108.879C78.0025 108.864 76.3097 108.999 74.6388 109.283C71.2754 110.44 70.522 115.283 72.4593 118.27C74.6948 121.065 77.8519 122.973 81.3654 123.652C86.3354 124.976 91.3867 125.974 96.487 126.639C102.874 127.959 109.424 128.303 115.914 127.661C125.277 126.262 133.564 120.88 140.802 114.772C133.362 118.837 125.38 121.818 117.097 123.625C111.017 124.943 104.424 125.562 98.7471 122.952C93.0698 120.342 89.0069 113.534 91.294 107.749C91.7405 106.54 92.525 105.484 93.5541 104.708C96.487 102.609 100.604 104.089 103.483 106.215C106.362 108.341 108.649 110.951 111.555 112.942C115.706 115.711 120.649 117.044 125.63 116.738C130.61 116.431 135.353 114.503 139.134 111.247C136.82 113.346 127.295 112.108 124.524 111.382C119.909 109.88 115.721 107.297 112.308 103.847C103.913 96.0976 97.5901 85.6033 87.3656 79.9794C83.2758 77.7191 77.168 75.2704 72.4055 76.3737C71.2852 76.5809 70.2251 77.0353 69.3023 77.7037C68.3796 78.372 67.6174 79.2376 67.0711 80.2375C66.5248 81.2374 66.2081 82.3465 66.1442 83.4841C66.0802 84.6217 66.2705 85.7593 66.7013 86.8142C68.2585 90.2948 70.6526 93.3361 73.6701 95.667L79.2936 100.753C80.9349 102.34 83.7063 105.731 82.3879 107.641Z" fill="url(#paint8_linear)"/>
  <path opacity="0.62" d="M54.8088 154.354C49.5889 149.349 42.4586 149.269 35.9741 146.874C32.0458 145.421 28.1174 143.887 24.1352 142.326L16.6013 139.474C15.3987 133.041 14.7952 126.51 14.7986 119.965C14.8009 105.351 17.8814 90.9019 23.8392 77.5578C24.6047 77.2217 25.4257 77.0301 26.2608 76.9927C27.7593 77.0661 29.2076 77.5557 30.4434 78.4065C31.6791 79.2573 32.6532 80.4356 33.2566 81.8093C33.8162 82.8438 34.2068 83.9612 34.4135 85.119C34.728 89.3046 34.4105 93.5136 33.4718 97.6045C33.0138 99.6462 32.9731 101.759 33.3523 103.817C33.7314 105.875 34.5226 107.835 35.6782 109.579C36.9711 110.799 38.1425 112.142 39.176 113.588C39.5748 114.578 39.8285 115.62 39.9294 116.683C40.4944 121.203 40.333 125.805 41.2478 130.137C41.5763 132.396 42.4003 134.554 43.661 136.456C44.9216 138.359 46.5876 139.959 48.5395 141.142C44.215 139.796 40.5737 136.838 38.3688 132.882C36.6199 130.191 35.0593 127.231 32.9875 124.621C30.2968 121.257 28.1981 122.145 27.6062 126.477C27.6062 126.962 27.6062 127.473 27.6062 127.957C27.5998 131.037 28.4015 134.064 29.9313 136.737C31.4611 139.409 33.6654 141.634 36.3239 143.187C38.5982 144.305 40.9338 145.293 43.3196 146.147C47.6856 148.041 51.6012 150.838 54.8088 154.354Z" fill="url(#paint9_linear)"/>
  <path opacity="0.62" d="M178.122 32.3506C175.832 32.6269 173.605 33.2816 171.53 34.288C169.422 35.2428 167.381 36.3396 165.422 37.5708C160.231 40.2962 155.419 43.6885 151.107 47.6615C146.772 51.7214 144.186 57.3088 143.897 63.2415C143.829 64.3443 144.142 65.4368 144.784 66.336C145.434 66.9224 146.267 67.2646 147.14 67.3039C148.014 67.3432 148.875 67.0771 149.574 66.5512C150.943 65.4276 152.03 63.9993 152.749 62.3804C157.565 53.5544 163.511 44.7016 172.095 39.589C173.655 38.701 175.243 37.8937 176.83 37.1403C178.323 36.424 179.77 35.6151 181.162 34.7185L181.351 34.584L178.122 32.3506Z" fill="url(#paint10_linear)"/>
  <path opacity="0.48" d="M134.829 206.745C132.375 209.379 129.249 211.295 125.788 212.288C109.483 217.669 91.6978 209.947 81.527 196.923C72.9169 185.864 65.383 174.374 52.8445 167.324C45.81 163.061 37.5459 161.288 29.382 162.292C28.7631 162.292 28.1443 162.507 27.5254 162.642C26.4455 162.856 25.4029 163.227 24.4311 163.745C23.6 162.115 22.8721 160.434 22.2517 158.713C22.3617 158.439 22.5163 158.184 22.7091 157.96C23.8662 156.665 25.4528 155.834 27.1756 155.619C30.5748 155.284 34.0052 155.475 37.3463 156.184C43.1582 156.937 48.8624 160.677 53.7325 163.826C64.4951 170.687 73.9394 179.298 85.4823 184.707C95.0478 189.161 105.568 191.177 116.102 190.573C119.974 190.058 123.892 189.986 127.78 190.357C129.719 190.571 131.574 191.27 133.173 192.389C134.772 193.508 136.063 195.012 136.928 196.762C137.458 198.467 137.544 200.279 137.177 202.026C136.809 203.773 136.001 205.398 134.829 206.745Z" fill="url(#paint11_linear)"/>
  <path opacity="0.48" d="M197.198 142.353C198.629 142.383 200.047 142.081 201.34 141.469C202.634 140.857 203.767 139.953 204.651 138.828C206.383 136.548 207.654 133.952 208.392 131.186C210.167 125.427 211.082 118.915 208.392 113.534C205.701 108.152 199.216 109.551 195.342 112.619C190.902 116.117 188.803 124.028 188.723 129.437C188.566 132.285 189.159 135.124 190.445 137.671C191.101 138.945 192.06 140.038 193.237 140.855C194.415 141.671 195.775 142.185 197.198 142.353Z" fill="url(#paint12_linear)"/>
  <path opacity="0.62" d="M122.694 51.7518C121.426 51.4235 120.097 51.4087 118.822 51.7087C117.547 52.0088 116.364 52.6146 115.375 53.474C111.648 56.6293 109.004 60.8735 107.815 65.6097C105.218 74.2926 105.406 83.5709 108.353 92.1414C107.572 82.858 113.734 77.6109 119.277 71.1798C122.425 67.4126 126.918 62.4345 126.461 57.1873C126.402 56.1066 126.07 55.0584 125.496 54.1408C124.922 53.2232 124.124 52.4661 123.178 51.9402L122.694 51.7518Z" fill="url(#paint13_linear)"/>
  <path opacity="0.62" d="M83.5718 21.2915C78.4037 25.0589 73.9174 29.682 70.3068 34.961C68.5392 37.5116 66.9996 40.2129 65.7058 43.0335C61.9232 51.5544 60.085 60.8106 60.3244 70.1304C60.36 72.0237 60.5309 73.9121 60.8357 75.7811C62.2886 85.1183 66.217 94.617 64.5488 103.766C62.4501 114.879 49.2927 118.673 43.8845 107.614C41.0018 101.286 39.5152 94.4125 39.5256 87.4594C39.3601 80.652 40.1204 73.8537 41.7858 67.2511C44.6934 55.2207 50.3999 44.0466 58.441 34.6381C66.1708 29.0651 74.626 24.5746 83.5718 21.2915Z" fill="url(#paint14_linear)"/>
  <path opacity="0.28" d="M215.388 75.7543C207.221 61.4257 195.767 49.2424 181.97 40.2082L178.956 38.3515C178.283 37.9748 177.584 37.5174 176.83 37.1138C175.108 36.1182 173.333 35.1763 171.449 34.2884C170.131 33.6426 168.758 32.9699 167.332 32.351C165.906 31.7321 165.207 31.4092 164.104 31.0325C153.429 26.7323 142.102 24.2756 130.605 23.7672C129.017 23.7672 127.43 23.6326 125.842 23.6326C123.797 23.6326 121.779 23.6326 119.788 23.8748C109.993 24.3886 100.328 26.3472 91.1059 29.687C87.8665 30.822 84.6953 32.1426 81.6079 33.6426C76.0114 36.2797 70.6779 39.4422 65.6791 43.0874C56.4164 49.7667 48.3399 57.9528 41.786 67.305C38.5192 71.8877 35.6478 76.7397 33.2028 81.8087C26.4556 95.7409 22.9595 111.023 22.9783 126.504C22.9698 131.783 23.3746 137.056 24.1891 142.272C24.8697 146.73 25.8587 151.136 27.1488 155.457C27.7677 157.69 28.5211 159.897 29.3552 162.13C36.4921 181.394 49.2146 198.09 65.8944 210.081C47.7024 199.14 33.2477 182.949 24.4313 163.637C23.6002 162.007 22.8723 160.327 22.2518 158.605C19.7678 152.409 17.9021 145.983 16.6821 139.42C15.4795 132.987 14.876 126.456 14.8794 119.911C14.894 98.4258 21.484 77.4596 33.7638 59.83C46.0436 42.2003 63.4249 28.7518 83.572 21.2916L88.4422 19.6233C90.9445 18.8698 93.4737 18.1702 96.0298 17.5782C103.891 15.7612 111.935 14.8582 120.004 14.8874C124.311 14.8893 128.615 15.1499 132.892 15.6677C134.829 15.9099 136.793 16.2059 138.731 16.5557C150.642 18.6412 162.098 22.7939 172.579 28.826C173.064 29.095 173.575 29.391 174.059 29.7139C175.431 30.4943 176.75 31.3823 178.122 32.2702C179.494 33.1582 180.274 33.7233 181.297 34.4767C182.032 34.9599 182.741 35.4808 183.423 36.0374L185.279 37.4905C198.171 47.7131 208.484 60.8192 215.388 75.7543Z" fill="white"/>
  <path opacity="0.62" d="M132.892 15.5869C128.034 17.4394 123.604 20.259 119.869 23.8747C118.898 24.7437 117.999 25.6885 117.178 26.7001C114.543 30.469 111.571 33.9905 108.299 37.2213C104.801 40.1812 99.5543 41.7957 95.626 39.5085C94.05 38.4379 92.7962 36.9574 91.9996 35.2266C91.2031 33.4958 90.894 31.5805 91.1057 29.687C91.355 27.0816 92.1332 24.5544 93.3927 22.2602C94.1999 20.7264 95.1686 19.1658 96.0834 17.5782C93.3927 18.1701 90.998 18.8697 88.4957 19.6232C87.3534 22.8708 85.9496 26.0204 84.2983 29.0411C83.4373 30.5749 82.5494 32.0818 81.6076 33.6425C77.9214 39.9929 74.3428 46.6393 74.5581 54.0929C74.5802 56.3101 75.1634 58.4855 76.2532 60.4164C77.3555 61.9809 78.8379 63.2391 80.5608 64.0723C82.2837 64.9056 84.1903 65.2865 86.101 65.1792C89.9363 64.9719 93.6489 63.756 96.8637 61.6542C109.591 54.0929 118.389 41.6343 126.461 29.5524C127.783 27.5355 129.23 25.6033 130.793 23.7671C133.113 20.9554 135.833 18.4986 138.865 16.4749L132.892 15.5869Z" fill="url(#paint15_linear)"/>
  <path opacity="0.3" d="M100.308 124.97C93.7424 149.188 73.6431 164.849 55.4273 159.951C37.2115 155.054 27.7404 131.348 34.3056 107.103C40.8708 82.8587 60.997 67.2518 79.2128 72.1222C97.4286 76.9927 106.9 100.726 100.308 124.97Z" fill="white"/>
  <path opacity="0.3" d="M98.1551 35.0424C108.137 29.284 119.68 30.7102 124.12 38.2445C128.56 45.7789 123.851 56.5423 113.842 62.3007C103.832 68.0591 92.3163 66.633 87.8767 59.0986C83.4371 51.5642 88.1458 40.8008 98.1551 35.0424Z" fill="white"/>
  <path opacity="0.31" d="M225.101 120.1C225.096 142.48 217.948 164.275 204.698 182.31C191.447 200.346 172.786 213.681 151.431 220.373C130.076 227.066 107.142 226.766 85.9692 219.519C64.7962 212.271 46.4892 198.454 33.7139 180.079C36.7653 180.185 39.7311 181.115 42.2971 182.769C48.2166 186.025 54.0822 189.254 59.9747 192.537C62.2853 194.17 65.0907 194.949 67.9122 194.744C72.6209 193.775 74.3429 188.016 74.6927 183.254C75.0425 178.491 75.0963 171.441 81.5808 170.957C83.9619 170.891 86.3158 171.477 88.3881 172.652C99.9311 178.652 104.963 192.053 111.34 203.408C112.908 206.511 115.097 209.258 117.77 211.481C121.25 213.825 125.333 215.114 129.528 215.194C132.932 215.719 136.413 215.104 139.43 213.445C143.87 210.512 144.811 204.538 144.811 199.237C144.139 183.092 135.125 168.508 129.394 153.305C126.246 145.017 124.793 124.836 139.538 127.311C151.161 129.275 152.991 145.636 158.695 153.493C161.386 157.368 166.767 160.651 170.938 158.041C172.477 156.918 173.648 155.363 174.301 153.574C180.032 140.496 175.566 125.239 169.377 112.377C162.758 98.546 147.287 79.4948 157.538 63.8072C159.255 61.4149 161.449 59.4048 163.983 57.9041C166.516 56.4035 169.333 55.4448 172.256 55.0888C176.143 54.5328 180.094 54.5964 183.961 55.2772C185.871 55.5463 187.808 55.923 189.719 56.3804C194.646 57.3702 199.386 59.1319 203.764 61.6006C206.08 63.0297 208.26 64.6691 210.275 66.498C210.49 66.7133 210.76 66.9285 210.975 67.1707C220.316 83.2392 225.193 101.513 225.101 120.1Z" fill="#004E8E"/>
  <path d="M238.933 232.116C238.933 232.116 213.332 216.289 192.854 246.701C192.647 247.017 192.542 247.388 192.551 247.766C192.561 248.143 192.685 248.509 192.907 248.814C193.128 249.119 193.438 249.35 193.794 249.476C194.15 249.601 194.536 249.615 194.9 249.517C198.883 248.188 203.099 247.704 207.28 248.093C211.226 248.55 214.998 249.975 218.261 252.241L238.933 232.116Z" fill="url(#paint16_linear)"/>
  <path d="M268.281 280.428C268.281 280.428 270.547 310.435 234.124 314.61C233.754 314.64 233.384 314.558 233.06 314.376C232.736 314.194 232.474 313.921 232.306 313.589C232.138 313.258 232.072 312.885 232.117 312.516C232.162 312.147 232.315 311.8 232.557 311.519C235.57 308.6 237.941 305.085 239.519 301.198C240.93 297.482 241.4 293.474 240.888 289.532L268.281 280.428Z" fill="url(#paint17_linear)"/>
  <path d="M262.561 284.648C293.895 265.6 316.382 224.875 313.467 220.11C310.799 215.714 264.064 216.527 232.72 235.571C227.05 239.022 215.176 251.275 211.177 260.014L230.928 292.567C240.288 292.9 256.885 288.084 262.561 284.648Z" fill="url(#paint18_linear)"/>
  <path d="M216.604 251.429C214.492 254.078 212.675 256.95 211.185 259.993L230.936 292.546C234.311 292.602 237.683 292.304 240.996 291.657L216.604 251.429Z" fill="url(#paint19_linear)"/>
  <path d="M223.356 262.525C221.62 264.611 217.513 269.538 217.247 269.924L225.277 283.145C228.285 282.431 230.631 281.279 234.218 280.379L223.356 262.525Z" fill="url(#paint20_linear)"/>
  <path d="M305.47 239.915C312.353 230.006 315.097 220.468 314.438 219.379C313.779 218.289 304.193 216.955 292.294 218.226L305.47 239.915Z" fill="url(#paint21_linear)"/>
  <path d="M286.995 251.369C292.133 246.126 292.048 237.712 286.807 232.574C281.565 227.436 273.15 227.521 268.012 232.763C262.875 238.005 262.959 246.42 268.201 251.558C273.442 256.696 281.857 256.611 286.995 251.369Z" fill="url(#paint22_linear)"/>
  <path d="M275.248 251.353C280.375 252.599 285.542 249.453 286.788 244.326C288.035 239.199 284.889 234.032 279.762 232.786C274.636 231.54 269.469 234.686 268.222 239.813C266.976 244.94 270.121 250.107 275.248 251.353Z" fill="url(#paint23_linear)"/>
  <path d="M284.113 240.913C284.849 242.024 285.281 243.309 285.365 244.639C285.449 245.969 285.183 247.298 284.593 248.494C285.726 247.231 286.503 245.69 286.843 244.028C287.184 242.367 287.075 240.644 286.53 239.038C285.984 237.432 285.021 236 283.739 234.89C282.457 233.779 280.902 233.03 279.234 232.719C277.567 232.409 275.847 232.547 274.251 233.122C272.655 233.696 271.24 234.685 270.153 235.987C269.065 237.288 268.344 238.856 268.063 240.529C267.782 242.202 267.951 243.92 268.554 245.505C268.431 238.141 279.386 233.117 284.113 240.913Z" fill="url(#paint24_linear)"/>
  <path d="M212.602 281.223L212.549 281.202C212.11 280.464 211.958 279.591 212.121 278.748C212.284 277.905 212.752 277.152 213.435 276.632L235.144 260.457L248.95 254.804C249.77 254.469 250.682 254.437 251.523 254.714C252.365 254.99 253.08 255.557 253.541 256.314C254.009 257.078 254.185 257.986 254.036 258.87C253.887 259.754 253.424 260.555 252.731 261.124L240.981 270.828L217.125 282.595C216.335 282.971 215.434 283.039 214.598 282.785C213.761 282.531 213.049 281.974 212.602 281.223Z" fill="url(#paint25_linear)"/>
  <path d="M252.795 261.088C253.487 260.519 253.951 259.718 254.1 258.834C254.249 257.95 254.073 257.042 253.604 256.278L212.585 281.204L212.638 281.226C213.094 281.973 213.814 282.522 214.654 282.766C215.495 283.01 216.397 282.931 217.182 282.544L240.981 270.828L252.795 261.088Z" fill="url(#paint26_linear)"/>
  <path opacity="0.75" d="M241.211 286.67C238.989 285.335 235.437 277.433 235.437 277.433C257.268 281.637 282.052 262.251 282.573 263.1C283.094 263.949 271.563 277.374 259.57 282.376C250.254 286.26 243.406 287.982 241.211 286.67Z" fill="#FFE6F7"/>
  <path opacity="0.4" d="M276.802 247.535C276.222 247.885 275.551 248.055 274.874 248.025C274.198 247.994 273.545 247.763 273 247.362C272.454 246.961 272.039 246.407 271.808 245.77C271.577 245.134 271.539 244.443 271.7 243.785C271.861 243.127 272.214 242.531 272.713 242.073C273.212 241.615 273.836 241.316 274.505 241.212C275.174 241.108 275.86 241.205 276.474 241.49C277.088 241.775 277.604 242.236 277.957 242.814C278.192 243.2 278.349 243.628 278.418 244.074C278.487 244.521 278.468 244.976 278.36 245.415C278.253 245.853 278.06 246.266 277.792 246.63C277.525 246.994 277.188 247.302 276.802 247.535Z" fill="#FFE6F7"/>
  <path opacity="0.4" d="M282.8 246.579C282.525 246.744 282.208 246.824 281.889 246.81C281.569 246.795 281.261 246.686 281.003 246.496C280.745 246.307 280.549 246.045 280.439 245.745C280.329 245.444 280.311 245.118 280.386 244.807C280.462 244.495 280.627 244.214 280.862 243.996C281.098 243.779 281.392 243.636 281.708 243.586C282.024 243.536 282.348 243.58 282.639 243.713C282.93 243.846 283.175 244.062 283.343 244.335C283.456 244.517 283.532 244.721 283.566 244.933C283.6 245.145 283.591 245.362 283.54 245.57C283.49 245.779 283.398 245.976 283.271 246.149C283.144 246.322 282.984 246.468 282.8 246.579Z" fill="#FFE6F7"/>
  <path opacity="0.4" d="M233.515 232.269C233.515 232.269 223.93 228.017 214.599 231.02C205.532 233.945 199.089 241.839 199.089 241.839C204.378 238.634 210.034 236.079 215.934 234.228C221.606 232.413 227.583 231.747 233.515 232.269Z" fill="#FFE6F7"/>
  <path opacity="0.4" d="M235.587 265.154C232.979 266.743 230.599 267.61 230.273 267.073C229.947 266.536 231.812 264.834 234.43 263.249C237.049 261.665 239.414 260.804 239.733 261.326C240.053 261.849 238.199 263.555 235.587 265.154Z" fill="#FFE6F7"/>
  <path opacity="0.4" d="M244.304 259.847C243.191 260.534 242.081 260.753 241.837 260.348C241.594 259.942 242.295 259.054 243.404 258.378C244.512 257.702 245.637 257.476 245.881 257.882C246.124 258.288 245.404 259.193 244.304 259.847Z" fill="#FFE6F7"/>
  <path opacity="0.4" d="M310.678 228.78C310.678 228.78 306.162 237.854 305.25 237.488C304.338 237.122 293.897 219.386 293.897 219.386C293.897 219.386 303.202 232.159 305.001 232.462C306.8 232.765 310.678 228.78 310.678 228.78Z" fill="#FFE6F7"/>
  <defs>
  <linearGradient id="paint0_linear" x1="30422.6" y1="32931.1" x2="34874.7" y2="36929.3" gradientUnits="userSpaceOnUse">
  <stop stop-color="#F5EF64"/>
  <stop offset="1" stop-color="#0063ED"/>
  </linearGradient>
  <linearGradient id="paint1_linear" x1="39.3914" y1="38.5666" x2="233.67" y2="235.012" gradientUnits="userSpaceOnUse">
  <stop stop-color="#F5EF64"/>
  <stop offset="1" stop-color="#0063ED"/>
  </linearGradient>
  <linearGradient id="paint2_linear" x1="17145.9" y1="32891.7" x2="30453.5" y2="46347.6" gradientUnits="userSpaceOnUse">
  <stop stop-color="#F5EF64"/>
  <stop offset="1" stop-color="#0063ED"/>
  </linearGradient>
  <linearGradient id="paint3_linear" x1="49.3197" y1="48.6578" x2="219.623" y2="220.887" gradientUnits="userSpaceOnUse">
  <stop stop-color="#D1D94F"/>
  <stop offset="1" stop-color="#0052BB"/>
  </linearGradient>
  <linearGradient id="paint4_linear" x1="21819.2" y1="15150.4" x2="9643.83" y2="25043.7" gradientUnits="userSpaceOnUse">
  <stop stop-color="#D1D94F"/>
  <stop offset="1" stop-color="#0052BB"/>
  </linearGradient>
  <linearGradient id="paint5_linear" x1="130.363" y1="162.588" x2="62.1802" y2="139.18" gradientUnits="userSpaceOnUse">
  <stop stop-color="#819D4B"/>
  <stop offset="1" stop-color="#0052BB"/>
  </linearGradient>
  <linearGradient id="paint6_linear" x1="152.857" y1="302.377" x2="195.321" y2="99.112" gradientUnits="userSpaceOnUse">
  <stop stop-color="#3F7CFF"/>
  <stop offset="1" stop-color="#003C88"/>
  </linearGradient>
  <linearGradient id="paint7_linear" x1="6642.57" y1="13421.3" x2="10830.2" y2="12433.5" gradientUnits="userSpaceOnUse">
  <stop stop-color="#D1D94F"/>
  <stop offset="1" stop-color="#0052BB"/>
  </linearGradient>
  <linearGradient id="paint8_linear" x1="5770.18" y1="9046.74" x2="9702.84" y2="9960.21" gradientUnits="userSpaceOnUse">
  <stop stop-color="#D1D94F"/>
  <stop offset="1" stop-color="#0052BB"/>
  </linearGradient>
  <linearGradient id="paint9_linear" x1="5.27365" y1="84.0158" x2="92.055" y2="200.739" gradientUnits="userSpaceOnUse">
  <stop stop-color="#DEBE36"/>
  <stop offset="1" stop-color="#0052BB"/>
  </linearGradient>
  <linearGradient id="paint10_linear" x1="5139.96" y1="5137.84" x2="4408.59" y2="5873.22" gradientUnits="userSpaceOnUse">
  <stop stop-color="#D1D94F"/>
  <stop offset="1" stop-color="#0052BB"/>
  </linearGradient>
  <linearGradient id="paint11_linear" x1="5155.6" y1="12272.4" x2="12665.6" y2="12272.4" gradientUnits="userSpaceOnUse">
  <stop stop-color="#819D4B"/>
  <stop offset="1" stop-color="#0052BB"/>
  </linearGradient>
  <linearGradient id="paint12_linear" x1="3077.9" y1="6385.65" x2="3227.86" y2="5999.95" gradientUnits="userSpaceOnUse">
  <stop stop-color="#3F6B72"/>
  <stop offset="1" stop-color="#003C88"/>
  </linearGradient>
  <linearGradient id="paint13_linear" x1="140.076" y1="24.1168" x2="89.809" y2="108.66" gradientUnits="userSpaceOnUse">
  <stop stop-color="#DEBE36"/>
  <stop offset="1" stop-color="#5E9177"/>
  </linearGradient>
  <linearGradient id="paint14_linear" x1="3926.77" y1="13322.3" x2="2599.83" y2="17325.9" gradientUnits="userSpaceOnUse">
  <stop stop-color="#DEBE36"/>
  <stop offset="1" stop-color="#5E9177"/>
  </linearGradient>
  <linearGradient id="paint15_linear" x1="5918.31" y1="7620.8" x2="7451.61" y2="7620.8" gradientUnits="userSpaceOnUse">
  <stop stop-color="#DEBE36"/>
  <stop offset="1" stop-color="#5E9177"/>
  </linearGradient>
  <linearGradient id="paint16_linear" x1="212.906" y1="220.658" x2="219.164" y2="264.828" gradientUnits="userSpaceOnUse">
  <stop stop-color="#56519F"/>
  <stop offset="1" stop-color="#39B8B8"/>
  </linearGradient>
  <linearGradient id="paint17_linear" x1="-17532.4" y1="-2392.36" x2="-18169.3" y2="-3037.37" gradientUnits="userSpaceOnUse">
  <stop stop-color="#56519F"/>
  <stop offset="1" stop-color="#39B8B8"/>
  </linearGradient>
  <linearGradient id="paint18_linear" x1="263.454" y1="223.762" x2="258.872" y2="293.259" gradientUnits="userSpaceOnUse">
  <stop stop-color="#EFE0ED"/>
  <stop offset="1" stop-color="#D6BFD3"/>
  </linearGradient>
  <linearGradient id="paint19_linear" x1="-204.16" y1="10970.6" x2="2615.33" y2="13665" gradientUnits="userSpaceOnUse">
  <stop stop-color="#56519F"/>
  <stop offset="1" stop-color="#39B8B8"/>
  </linearGradient>
  <linearGradient id="paint20_linear" x1="208.473" y1="199.859" x2="232.648" y2="305.988" gradientUnits="userSpaceOnUse">
  <stop stop-color="#39B8B8"/>
  <stop offset="1" stop-color="#22457E"/>
  </linearGradient>
  <linearGradient id="paint21_linear" x1="912.867" y1="6244.73" x2="1441.05" y2="6765.5" gradientUnits="userSpaceOnUse">
  <stop stop-color="#56519F"/>
  <stop offset="1" stop-color="#39B8B8"/>
  </linearGradient>
  <linearGradient id="paint22_linear" x1="-3926.53" y1="6687.33" x2="-3934.52" y2="7893.4" gradientUnits="userSpaceOnUse">
  <stop stop-color="#39B8B8"/>
  <stop offset="1" stop-color="#56519F"/>
  </linearGradient>
  <linearGradient id="paint23_linear" x1="276.823" y1="262.388" x2="278.324" y2="217.346" gradientUnits="userSpaceOnUse">
  <stop stop-color="#3B2757"/>
  <stop offset="1" stop-color="#7C5890"/>
  </linearGradient>
  <linearGradient id="paint24_linear" x1="-1998.84" y1="4968.71" x2="-1916.2" y2="4263.49" gradientUnits="userSpaceOnUse">
  <stop stop-color="#3B2757"/>
  <stop offset="1" stop-color="#7C5890"/>
  </linearGradient>
  <linearGradient id="paint25_linear" x1="-544.984" y1="13398.6" x2="637.728" y2="14280.3" gradientUnits="userSpaceOnUse">
  <stop stop-color="#56519F"/>
  <stop offset="1" stop-color="#39B8B8"/>
  </linearGradient>
  <linearGradient id="paint26_linear" x1="-810.369" y1="12935.2" x2="328.601" y2="13773.1" gradientUnits="userSpaceOnUse">
  <stop stop-color="#56519F"/>
  <stop offset="1" stop-color="#39B8B8"/>
  </linearGradient>
  </defs>
</svg>
