<svg width="66" height="70" viewBox="0 0 66 70" fill="none" xmlns="http://www.w3.org/2000/svg">
<path d="M29.9215 23.9233C29.9215 23.9233 17.9397 16.516 8.35568 30.749C8.25909 30.8969 8.20974 31.0708 8.21417 31.2474C8.21859 31.424 8.27659 31.5952 8.38047 31.7381C8.48434 31.881 8.62919 31.989 8.79583 32.0478C8.96246 32.1065 9.14302 32.1132 9.31356 32.067C11.1777 31.4452 13.1508 31.2184 15.1073 31.4009C16.9542 31.6145 18.7197 32.2814 20.2466 33.3422L29.9215 23.9233Z" fill="url(#paint0_linear)"/>
<path d="M43.6569 46.5345C43.6569 46.5345 44.7176 60.5783 27.6711 62.5323C27.4979 62.5459 27.3245 62.5078 27.173 62.4227C27.0214 62.3376 26.8986 62.2094 26.82 62.0544C26.7415 61.8994 26.7107 61.7245 26.7317 61.552C26.7527 61.3795 26.8244 61.2171 26.9378 61.0854C28.3478 59.7193 29.4574 58.0742 30.1958 56.2551C30.8562 54.5158 31.0763 52.6402 30.8366 50.7952L43.6569 46.5345Z" fill="url(#paint1_linear)"/>
<path d="M40.9802 48.5086C55.6451 39.5937 66.1691 20.5339 64.8051 18.3037C63.5561 16.2464 41.6837 16.6269 27.0138 25.5398C24.3603 27.1548 18.8032 32.8894 16.9314 36.9794L26.1753 52.215C30.5558 52.3707 38.3238 50.1166 40.9802 48.5086Z" fill="url(#paint2_linear)"/>
<path d="M19.4715 32.9618C18.483 34.2016 17.6327 35.5455 16.9354 36.9695L26.1792 52.2052C27.7588 52.2312 29.3367 52.0918 30.8872 51.7892L19.4715 32.9618Z" fill="url(#paint3_linear)"/>
<path d="M22.6316 38.1549C21.8191 39.1313 19.8968 41.4374 19.7725 41.618L23.5305 47.8057C24.9381 47.4715 26.0361 46.9324 27.715 46.5111L22.6316 38.1549Z" fill="url(#paint4_linear)"/>
<path d="M61.0624 27.5731C64.2834 22.9354 65.5677 18.4714 65.2594 17.9616C64.9511 17.4517 60.4648 16.8271 54.8955 17.4219L61.0624 27.5731Z" fill="url(#paint5_linear)"/>
<path d="M52.4155 32.9334C54.8201 30.4799 54.7806 26.5416 52.3274 24.137C49.8741 21.7324 45.936 21.772 43.5314 24.2255C41.1268 26.679 41.1662 30.6173 43.6195 33.0219C46.0728 35.4265 50.0109 35.3869 52.4155 32.9334Z" fill="url(#paint6_linear)"/>
<path d="M46.9178 32.9265C49.3172 33.5098 51.7353 32.0375 52.3187 29.6379C52.9022 27.2383 51.43 24.8202 49.0306 24.2369C46.6311 23.6535 44.2131 25.1259 43.6297 27.5255C43.0462 29.925 44.5184 32.3431 46.9178 32.9265Z" fill="url(#paint7_linear)"/>
<path d="M51.067 28.04C51.4113 28.5601 51.6133 29.1615 51.6526 29.784C51.692 30.4066 51.5675 31.0285 51.2914 31.5879C51.8218 30.9972 52.1853 30.2759 52.3446 29.4981C52.5039 28.7204 52.4533 27.9142 52.198 27.1625C51.9426 26.4109 51.4917 25.7407 50.8917 25.221C50.2916 24.7013 49.564 24.3507 48.7836 24.2053C48.0031 24.0599 47.1981 24.1249 46.4511 24.3936C45.7041 24.6624 45.0421 25.1252 44.5331 25.7345C44.0242 26.3437 43.6866 27.0775 43.5551 27.8605C43.4236 28.6434 43.5029 29.4472 43.7849 30.1893C43.7272 26.7429 48.8545 24.3916 51.067 28.04Z" fill="url(#paint8_linear)"/>
<path d="M17.5986 46.9063L17.5738 46.8963C17.3683 46.5511 17.2971 46.1423 17.3735 45.7479C17.45 45.3535 17.6688 45.0009 17.9884 44.7574L28.1488 37.1874L34.6102 34.5416C34.9938 34.3848 35.4208 34.3698 35.8145 34.4993C36.2082 34.6288 36.5429 34.8942 36.7586 35.2481C36.9777 35.6059 37.06 36.0309 36.9904 36.4446C36.9207 36.8584 36.7038 37.233 36.3796 37.4993L30.8804 42.0411L19.7153 47.5482C19.3459 47.7242 18.9241 47.7559 18.5326 47.6371C18.1411 47.5184 17.808 47.2578 17.5986 46.9063Z" fill="url(#paint9_linear)"/>
<path d="M36.4094 37.4823C36.7336 37.2159 36.9505 36.8413 37.0202 36.4276C37.0898 36.0138 37.0075 35.5889 36.7883 35.2311L17.5906 46.8971L17.6155 46.9071C17.829 47.2568 18.1656 47.5139 18.5591 47.6281C18.9526 47.7423 19.3745 47.7052 19.7421 47.5242L30.8804 42.041L36.4094 37.4823Z" fill="url(#paint10_linear)"/>
<path opacity="0.75" d="M30.9882 49.4553C29.948 48.8304 28.2857 45.132 28.2857 45.132C38.5029 47.0996 50.1022 38.0265 50.346 38.4241C50.5899 38.8216 45.193 45.1046 39.5801 47.4454C35.2202 49.2632 32.0154 50.0692 30.9882 49.4553Z" fill="#FFE6F7"/>
<path opacity="0.4" d="M47.6451 31.1391C47.3737 31.3029 47.0598 31.3827 46.7431 31.3683C46.4264 31.3539 46.1211 31.246 45.8657 31.0582C45.6103 30.8704 45.4162 30.6112 45.308 30.3132C45.1997 30.0152 45.1822 29.6919 45.2576 29.3839C45.333 29.076 45.4979 28.7973 45.7315 28.583C45.9651 28.3687 46.257 28.2284 46.5702 28.1798C46.8835 28.1312 47.2042 28.1765 47.4917 28.31C47.7792 28.4435 48.0208 28.6592 48.1858 28.9298C48.2959 29.1103 48.3692 29.3107 48.4016 29.5195C48.4339 29.7284 48.4247 29.9415 48.3745 30.1468C48.3242 30.3521 48.2339 30.5454 48.1088 30.7157C47.9836 30.886 47.826 31.0299 47.6451 31.1391Z" fill="#FFE6F7"/>
<path opacity="0.4" d="M50.4522 30.6922C50.3239 30.7695 50.1755 30.807 50.0259 30.8001C49.8763 30.7932 49.732 30.7422 49.6113 30.6535C49.4906 30.5649 49.3988 30.4425 49.3474 30.3017C49.2961 30.161 49.2875 30.0082 49.3228 29.8626C49.358 29.7171 49.4356 29.5851 49.5456 29.4835C49.6556 29.3819 49.7933 29.315 49.9412 29.2914C50.0891 29.2678 50.2407 29.2885 50.3769 29.3508C50.5131 29.4131 50.6279 29.5143 50.7067 29.6417C50.7596 29.7272 50.795 29.8224 50.8108 29.9217C50.8267 30.021 50.8227 30.1224 50.799 30.2201C50.7753 30.3179 50.7325 30.4099 50.673 30.491C50.6134 30.572 50.5384 30.6404 50.4522 30.6922Z" fill="#FFE6F7"/>
<path opacity="0.4" d="M27.3861 23.9948C27.3861 23.9948 22.9003 22.0046 18.5329 23.4102C14.2896 24.7792 11.2742 28.4735 11.2742 28.4735C13.7495 26.9739 16.3965 25.7779 19.1579 24.9116C21.8124 24.0621 24.6097 23.7504 27.3861 23.9948Z" fill="#FFE6F7"/>
<path opacity="0.4" d="M28.3558 39.3858C27.1354 40.1294 26.0217 40.5354 25.869 40.284C25.7163 40.0325 26.5892 39.2359 27.8146 38.4944C29.04 37.7528 30.1468 37.3498 30.2965 37.5942C30.4462 37.8387 29.5782 38.6373 28.3558 39.3858Z" fill="#FFE6F7"/>
<path opacity="0.4" d="M32.4354 36.902C31.9146 37.2233 31.3951 37.326 31.2811 37.1362C31.1671 36.9463 31.4953 36.5306 32.0141 36.2143C32.5328 35.898 33.0593 35.7923 33.1733 35.9822C33.2873 36.172 32.9502 36.5957 32.4354 36.902Z" fill="#FFE6F7"/>
<path opacity="0.4" d="M63.4995 22.3618C63.4995 22.3618 61.3863 26.6083 60.9594 26.437C60.5326 26.2658 55.6458 17.9653 55.6458 17.9653C55.6458 17.9653 60.0009 23.9431 60.8429 24.085C61.6849 24.227 63.4995 22.3618 63.4995 22.3618Z" fill="#FFE6F7"/>
<defs>
<linearGradient id="paint0_linear" x1="17.7405" y1="18.5604" x2="20.6696" y2="39.2329" gradientUnits="userSpaceOnUse">
<stop stop-color="#56519F"/>
<stop offset="1" stop-color="#39B8B8"/>
</linearGradient>
<linearGradient id="paint1_linear" x1="-8287.38" y1="-1204.38" x2="-8585.44" y2="-1506.25" gradientUnits="userSpaceOnUse">
<stop stop-color="#56519F"/>
<stop offset="1" stop-color="#39B8B8"/>
</linearGradient>
<linearGradient id="paint2_linear" x1="41.398" y1="20.0128" x2="39.2537" y2="52.5387" gradientUnits="userSpaceOnUse">
<stop stop-color="#EFE0ED"/>
<stop offset="1" stop-color="#D6BFD3"/>
</linearGradient>
<linearGradient id="paint3_linear" x1="-177.453" y1="5049.7" x2="1142.12" y2="6310.74" gradientUnits="userSpaceOnUse">
<stop stop-color="#56519F"/>
<stop offset="1" stop-color="#39B8B8"/>
</linearGradient>
<linearGradient id="paint4_linear" x1="15.6661" y1="8.82638" x2="26.9801" y2="58.4966" gradientUnits="userSpaceOnUse">
<stop stop-color="#39B8B8"/>
<stop offset="1" stop-color="#22457E"/>
</linearGradient>
<linearGradient id="paint5_linear" x1="345.335" y1="2837.93" x2="592.531" y2="3081.66" gradientUnits="userSpaceOnUse">
<stop stop-color="#56519F"/>
<stop offset="1" stop-color="#39B8B8"/>
</linearGradient>
<linearGradient id="paint6_linear" x1="-1919.58" y1="3045.07" x2="-1923.33" y2="3609.53" gradientUnits="userSpaceOnUse">
<stop stop-color="#39B8B8"/>
<stop offset="1" stop-color="#56519F"/>
</linearGradient>
<linearGradient id="paint7_linear" x1="47.655" y1="38.0909" x2="48.3573" y2="17.0107" gradientUnits="userSpaceOnUse">
<stop stop-color="#3B2757"/>
<stop offset="1" stop-color="#7C5890"/>
</linearGradient>
<linearGradient id="paint8_linear" x1="-1017.4" y1="2240.73" x2="-978.716" y2="1910.67" gradientUnits="userSpaceOnUse">
<stop stop-color="#3B2757"/>
<stop offset="1" stop-color="#7C5890"/>
</linearGradient>
<linearGradient id="paint9_linear" x1="-336.965" y1="6186.06" x2="216.565" y2="6598.7" gradientUnits="userSpaceOnUse">
<stop stop-color="#56519F"/>
<stop offset="1" stop-color="#39B8B8"/>
</linearGradient>
<linearGradient id="paint10_linear" x1="-461.169" y1="5969.18" x2="71.8879" y2="6361.35" gradientUnits="userSpaceOnUse">
<stop stop-color="#56519F"/>
<stop offset="1" stop-color="#39B8B8"/>
</linearGradient>
</defs>
</svg>
