<svg width="25" height="24" viewBox="0 0 25 24" fill="none" xmlns="http://www.w3.org/2000/svg">
<path d="M23.9697 12V12.0325C23.9633 14.2053 23.3135 16.3276 22.1023 18.1315C20.8911 19.9355 19.1729 21.3403 17.1642 22.1688C15.1556 22.9974 12.9465 23.2125 10.8158 22.787C8.685 22.3615 6.72797 21.3145 5.19156 19.7781C3.65514 18.2417 2.60816 16.2847 2.18268 14.1539C1.75721 12.0232 1.97231 9.81413 2.80084 7.80547C3.62937 5.79682 5.03422 4.07853 6.83818 2.86737C8.64213 1.65621 10.7644 1.00643 12.9372 1H12.9697C13.2347 1 13.4972 1 13.7597 1.03C14.1893 1.06008 14.6168 1.11601 15.0397 1.1975C15.7323 1.32873 16.4105 1.52717 17.0647 1.79C18.4374 2.34205 19.6851 3.16458 20.7335 4.20866C21.7819 5.25274 22.6095 6.49703 23.1672 7.8675C23.4376 8.53229 23.6411 9.22236 23.7747 9.9275C23.856 10.3546 23.9119 10.7862 23.9422 11.22C23.9697 11.48 23.9697 11.75 23.9697 12Z" fill="#9C2275"/>
<path d="M23.7198 11.125V11.155C23.7154 13.1076 23.1325 15.0152 22.0449 16.6369C20.9573 18.2587 19.4137 19.5218 17.6088 20.267C15.8039 21.0122 13.8188 21.206 11.9038 20.824C9.98892 20.4419 8.23009 19.5012 6.84936 18.1205C5.46862 16.7397 4.52786 14.9809 4.14583 13.066C3.76379 11.1511 3.9576 9.16588 4.70279 7.36101C5.44799 5.55614 6.71116 4.01249 8.33288 2.92487C9.95459 1.83726 11.8622 1.25445 13.8148 1.25H13.8448C14.0948 1.25 14.3173 1.25 14.5548 1.2775C14.94 1.30437 15.3232 1.35446 15.7023 1.4275C16.1646 1.51557 16.6199 1.63672 17.0648 1.79C18.4376 2.34205 19.6852 3.16458 20.7336 4.20866C21.782 5.25274 22.6096 6.49703 23.1673 7.8675C23.3282 8.32315 23.4544 8.79032 23.5448 9.265C23.6178 9.64834 23.6679 10.0357 23.6948 10.425C23.7198 10.6575 23.7198 10.8925 23.7198 11.125Z" fill="#C04181"/>
<path d="M19.6348 5.48242C19.9031 5.75959 20.1536 6.05352 20.3848 6.36242" stroke="white" stroke-linecap="round" stroke-linejoin="round"/>
<path d="M15.4697 3C16.5272 3.30624 17.5236 3.79345 18.4147 4.44" stroke="white" stroke-linecap="round" stroke-linejoin="round"/>
<path d="M8.21973 9.25V14.75C8.21973 15.2804 8.43044 15.7891 8.80551 16.1642C9.18059 16.5393 9.68929 16.75 10.2197 16.75H15.7197C16.2502 16.75 16.7589 16.5393 17.1339 16.1642C17.509 15.7891 17.7197 15.2804 17.7197 14.75V9.25C17.7197 8.71957 17.509 8.21086 17.1339 7.83579C16.7589 7.46071 16.2502 7.25 15.7197 7.25H10.2197C9.68929 7.25 9.18059 7.46071 8.80551 7.83579C8.43044 8.21086 8.21973 8.71957 8.21973 9.25ZM15.0497 15.75H10.8897C10.4468 15.75 10.022 15.5741 9.70886 15.2609C9.39567 14.9477 9.21973 14.5229 9.21973 14.08V9.92C9.21973 9.47709 9.39567 9.05232 9.70886 8.73913C10.022 8.42595 10.4468 8.25 10.8897 8.25H15.0497C15.4926 8.25 15.9174 8.42595 16.2306 8.73913C16.5438 9.05232 16.7197 9.47709 16.7197 9.92V14.08C16.7197 14.5229 16.5438 14.9477 16.2306 15.2609C15.9174 15.5741 15.4926 15.75 15.0497 15.75Z" fill="white"/>
<path d="M12.9697 9.75C12.5247 9.75 12.0897 9.88196 11.7197 10.1292C11.3497 10.3764 11.0613 10.7278 10.891 11.139C10.7207 11.5501 10.6761 12.0025 10.763 12.439C10.8498 12.8754 11.0641 13.2763 11.3787 13.591C11.6934 13.9057 12.0943 14.1199 12.5308 14.2068C12.9672 14.2936 13.4196 14.249 13.8308 14.0787C14.2419 13.9084 14.5933 13.62 14.8405 13.25C15.0878 12.88 15.2197 12.445 15.2197 12C15.2197 11.4033 14.9827 10.831 14.5607 10.409C14.1388 9.98705 13.5665 9.75 12.9697 9.75ZM12.9697 13.25C12.7225 13.25 12.4808 13.1767 12.2753 13.0393C12.0697 12.902 11.9095 12.7068 11.8149 12.4784C11.7203 12.2499 11.6955 11.9986 11.7437 11.7561C11.792 11.5137 11.911 11.2909 12.0858 11.1161C12.2607 10.9413 12.4834 10.8222 12.7259 10.774C12.9683 10.7258 13.2197 10.7505 13.4481 10.8452C13.6765 10.9398 13.8717 11.1 14.0091 11.3055C14.1464 11.5111 14.2197 11.7528 14.2197 12C14.2197 12.3315 14.088 12.6495 13.8536 12.8839C13.6192 13.1183 13.3012 13.25 12.9697 13.25Z" fill="white"/>
<path d="M15.4697 10C15.7459 10 15.9697 9.77614 15.9697 9.5C15.9697 9.22386 15.7459 9 15.4697 9C15.1936 9 14.9697 9.22386 14.9697 9.5C14.9697 9.77614 15.1936 10 15.4697 10Z" fill="white"/>
</svg>
