<svg width="41" height="40" viewBox="0 0 41 40" fill="none" xmlns="http://www.w3.org/2000/svg">
<path d="M20.9757 19.4C20.18 19.4 19.417 19.0839 18.8544 18.5213C18.2918 17.9587 17.9757 17.1957 17.9757 16.4C17.9757 15.6044 18.2918 14.8413 18.8544 14.2787C19.417 13.7161 20.18 13.4 20.9757 13.4C21.7713 13.4 22.5344 13.7161 23.097 14.2787C23.6596 14.8413 23.9757 15.6044 23.9757 16.4C23.9757 16.794 23.8981 17.1841 23.7473 17.5481C23.5966 17.912 23.3756 18.2427 23.097 18.5213C22.8184 18.7999 22.4877 19.0209 22.1237 19.1716C21.7598 19.3224 21.3696 19.4 20.9757 19.4ZM20.9757 8C18.7479 8 16.6113 8.885 15.036 10.4603C13.4607 12.0356 12.5757 14.1722 12.5757 16.4C12.5757 22.7 20.9757 32 20.9757 32C20.9757 32 29.3757 22.7 29.3757 16.4C29.3757 14.1722 28.4907 12.0356 26.9154 10.4603C25.3401 8.885 23.2035 8 20.9757 8Z" fill="white"/>
</svg>
