<svg width="42" height="40" viewBox="0 0 42 40" fill="none" xmlns="http://www.w3.org/2000/svg">
<g clip-path="url(#clip0)">
<path d="M20.7273 9.15112C20.9166 9 21.0302 9 21.6362 9C21.9391 9 22.3936 9.03779 22.6587 9.07558C23.9084 9.2267 24.7037 9.4156 25.8019 9.94449C26.9002 10.4734 27.5819 10.9645 28.5286 11.8335C29.3997 12.6646 29.8541 13.3069 30.3843 14.3269C31.1038 15.7247 31.4826 17.3493 31.5583 19.1627C31.5962 19.7671 31.5583 19.9182 31.4068 20.1071C31.1418 20.4472 30.5358 20.4094 30.3086 19.9938C30.2328 19.8805 30.2328 19.7671 30.195 19.276C30.1571 18.5204 30.1192 18.0293 30.0056 17.4248C29.5891 15.1203 28.4529 13.2691 26.6351 11.9468C25.1203 10.8512 23.7948 10.4357 21.7498 10.2846C21.0303 10.2846 20.9166 10.2846 20.7652 10.1334C20.4622 9.94449 20.4622 9.41556 20.7273 9.15112Z" fill="white"/>
<path d="M24.4765 13.8735C23.757 13.4579 22.6587 13.1179 21.6741 13.0423C21.3332 13.0045 21.106 12.929 20.9924 12.7779C20.7651 12.589 20.7651 12.249 20.9166 12.0223C21.106 11.7201 21.4089 11.6823 22.2799 11.8334C24.4764 12.1356 26.1806 13.1557 27.3168 14.7802C27.9606 15.6869 28.3393 16.7825 28.4529 17.9159C28.4908 18.3314 28.4908 19.0871 28.4529 19.2382C28.415 19.3515 28.2635 19.5404 28.1121 19.5782C27.9606 19.6538 27.6576 19.6538 27.5061 19.5404C27.241 19.3893 27.1274 19.2004 27.1274 18.5959C27.1274 17.6892 26.9002 16.707 26.4457 15.9514C25.9913 15.0824 25.3097 14.3646 24.4765 13.8735Z" fill="white"/>
<path d="M25.4233 18.8605C25.1961 19.0494 24.8174 19.0494 24.5902 18.8605C24.4008 18.7471 24.3629 18.596 24.3251 18.2182C24.2872 17.7271 24.1736 17.387 24.06 17.0848C23.757 16.4048 23.189 16.0648 22.2422 15.9514C21.7878 15.9136 21.6742 15.8381 21.5227 15.687C21.2576 15.3847 21.3712 14.8936 21.712 14.7047C21.8635 14.6291 21.9014 14.6291 22.2044 14.6669C22.3937 14.6669 22.6588 14.7047 22.8103 14.7425C23.5298 14.8936 24.06 15.1581 24.5524 15.5737C25.1583 16.1403 25.4991 16.7826 25.6127 17.7649C25.6884 18.4071 25.6505 18.6716 25.4233 18.8605Z" fill="white"/>
<path d="M31.5205 26.9073C31.5205 26.5673 31.4069 26.3028 31.1796 26.0384C30.9524 25.7739 29.3997 24.5272 28.6423 24.0361C28.0742 23.6583 27.2032 23.1294 26.8245 22.9405C26.2943 22.676 25.7641 22.6382 25.2718 22.7894C25.1582 22.8271 25.0824 22.8649 25.0067 22.9027C24.7795 23.016 24.5902 23.2427 24.1357 23.7716C23.8327 24.1494 23.5677 24.4894 23.5298 24.4894C23.5298 24.4894 23.4919 24.4894 23.4919 24.5272C23.454 24.565 23.3404 24.6028 23.2647 24.6405C22.7723 24.8672 22.1285 24.7161 21.0682 24.2249C20.235 23.8094 19.5155 23.3182 18.6823 22.5627C17.9628 21.9204 17.2432 21.127 16.8645 20.4848C16.3343 19.6536 15.9556 18.5958 15.9556 17.9913C15.9556 17.7269 16.0692 17.3869 16.1829 17.198L16.2207 17.1602C16.2207 17.1602 16.2207 17.1602 16.2586 17.1224C16.2965 17.0846 16.3344 17.0468 16.3722 17.0468C16.5237 16.9335 16.7131 16.7446 16.9024 16.5935C17.7734 15.9134 17.9628 15.6868 18.0764 15.309C18.19 14.9311 18.0764 14.4401 17.6977 13.76C17.0159 12.5133 15.1224 10.1332 14.4408 9.67987C14.3272 9.6043 14.1378 9.52876 14.0242 9.45318C13.7212 9.3776 13.3047 9.33985 13.0774 9.3776C12.7366 9.45318 12.32 9.71762 11.3732 10.3976C10.8052 10.8132 10.0477 11.531 9.85842 11.8332C9.44186 12.551 9.47969 13.1178 9.97202 14.5156C10.4265 15.7623 11.0324 17.009 11.7141 18.218L11.752 18.2557C11.9034 18.4824 12.0549 18.7469 12.2064 18.9735C12.2064 19.0113 12.2443 19.0113 12.2443 19.0491C12.3958 19.2758 12.5473 19.5403 12.6987 19.7669C12.7745 19.8425 12.8123 19.9558 12.8881 20.0313C13.0017 20.2203 13.1153 20.3714 13.2668 20.5603C13.4562 20.8247 13.6455 21.0892 13.8728 21.3536C16.0314 24.1493 18.5308 26.4161 21.4848 28.2673C21.5226 28.3051 21.5605 28.3051 21.5984 28.3429C22.0528 28.6073 22.5072 28.8718 22.9617 29.1362C23.0375 29.174 23.0753 29.2118 23.1511 29.2496C23.6055 29.514 24.0978 29.7407 24.5902 29.9674C24.628 30.0051 24.7038 30.0051 24.7416 30.0429C25.234 30.2696 25.7641 30.4963 26.2943 30.723C26.9381 30.9874 27.1653 31.0252 27.6577 30.9874C27.8849 30.9874 28.1121 30.9496 28.3015 30.8741C28.6044 30.7985 28.8695 30.6474 29.2104 30.4207C29.2861 30.383 29.324 30.3452 29.3997 30.3074C29.4755 30.2696 29.5512 30.1941 29.627 30.1185C30.0435 29.7785 30.498 29.2496 30.8767 28.7585C31.1418 28.4184 31.3312 28.0784 31.4448 27.814C31.4826 27.4362 31.5205 27.1717 31.5205 26.9073Z" fill="white"/>
</g>
<defs>
<clipPath id="clip0">
<rect x="9.54541" y="9" width="22" height="22" fill="white"/>
</clipPath>
</defs>
</svg>