<svg width="39" height="40" viewBox="0 0 39 40" fill="none" xmlns="http://www.w3.org/2000/svg">
<path d="M11.0303 10C10.4998 10 9.99113 10.2107 9.61606 10.5858C9.24099 10.9609 9.03027 11.4696 9.03027 12V24C9.03027 24.5304 9.24099 25.0391 9.61606 25.4142C9.99113 25.7893 10.4998 26 11.0303 26H15.0303V29C15.0303 29.2652 15.1356 29.5196 15.3232 29.7071C15.5107 29.8946 15.7651 30 16.0303 30H16.5303C16.7803 30 17.0303 29.9 17.2303 29.71L20.9303 26H27.0303C27.5607 26 28.0694 25.7893 28.4445 25.4142C28.8196 25.0391 29.0303 24.5304 29.0303 24V12C29.0303 10.89 28.1303 10 27.0303 10H11.0303ZM11.0303 12H27.0303V24H20.1103L17.0303 27.08V24H11.0303V12ZM19.2203 13.5C18.3303 13.5 17.6203 13.68 17.0803 14.04C16.5303 14.4 16.2503 15 16.3003 15.69C7.24027 15.69 13.6003 15.69 18.2703 15.69C18.2703 15.41 18.3703 15.2 18.5303 15.06C18.7303 14.92 18.9503 14.85 19.2203 14.85C19.5303 14.85 19.8003 14.93 19.9803 15.11C20.1603 15.28 20.2503 15.5 20.2503 15.8C20.2503 16.08 20.1703 16.33 20.0303 16.54C19.8603 16.76 19.6503 16.94 19.3903 17.08C18.8703 17.4 18.5303 17.68 18.3203 17.92C18.1303 18.16 18.0303 18.5 18.0303 19H20.0303C20.0303 18.72 20.0803 18.5 20.1703 18.32C20.2603 18.15 20.4303 18 20.6903 17.85C21.1503 17.64 21.5303 17.36 21.8203 17C22.1103 16.63 22.2603 16.24 22.2603 15.8C22.2603 15.1 21.9903 14.54 21.4503 14.12C20.9103 13.71 20.1603 13.5 19.2203 13.5ZM18.0303 20V22H20.0303V20H18.0303Z" fill="white"/>
</svg>