<svg width="25" height="24" viewBox="0 0 25 24" fill="none" xmlns="http://www.w3.org/2000/svg">
<path d="M23.9697 12V12.0325C23.9633 14.2053 23.3135 16.3276 22.1023 18.1315C20.8911 19.9355 19.1729 21.3403 17.1642 22.1688C15.1556 22.9974 12.9465 23.2125 10.8158 22.787C8.685 22.3615 6.72797 21.3145 5.19156 19.7781C3.65514 18.2417 2.60816 16.2847 2.18268 14.1539C1.75721 12.0232 1.97231 9.81413 2.80084 7.80547C3.62937 5.79682 5.03422 4.07853 6.83818 2.86737C8.64213 1.65621 10.7644 1.00643 12.9372 1H12.9697C13.2347 1 13.4972 1 13.7597 1.03C14.1893 1.06008 14.6168 1.11601 15.0397 1.1975C15.7323 1.32873 16.4105 1.52717 17.0647 1.79C18.4374 2.34205 19.6851 3.16458 20.7335 4.20866C21.7819 5.25274 22.6095 6.49703 23.1672 7.8675C23.4376 8.53229 23.6411 9.22236 23.7747 9.9275C23.856 10.3546 23.9119 10.7862 23.9422 11.22C23.9697 11.48 23.9697 11.75 23.9697 12Z" fill="#CF5915"/>
<path d="M23.7198 11.125V11.155C23.7154 13.1076 23.1325 15.0152 22.0449 16.6369C20.9573 18.2587 19.4137 19.5218 17.6088 20.267C15.8039 21.0122 13.8188 21.206 11.9038 20.824C9.98892 20.4419 8.23009 19.5012 6.84936 18.1205C5.46862 16.7397 4.52786 14.9809 4.14583 13.066C3.76379 11.1511 3.9576 9.16588 4.70279 7.36101C5.44799 5.55614 6.71116 4.01249 8.33288 2.92487C9.95459 1.83726 11.8622 1.25445 13.8148 1.25H13.8448C14.0948 1.25 14.3173 1.25 14.5548 1.2775C14.94 1.30437 15.3232 1.35446 15.7023 1.4275C16.1646 1.51557 16.6199 1.63672 17.0648 1.79C18.4376 2.34205 19.6852 3.16458 20.7336 4.20866C21.782 5.25274 22.6096 6.49703 23.1673 7.8675C23.3282 8.32315 23.4544 8.79032 23.5448 9.265C23.6178 9.64834 23.6679 10.0357 23.6948 10.425C23.7198 10.6575 23.7198 10.8925 23.7198 11.125Z" fill="#FF8721"/>
<path d="M19.6348 5.48242C19.9031 5.75959 20.1536 6.05352 20.3848 6.36242" stroke="white" stroke-width="3" stroke-linecap="round" stroke-linejoin="round"/>
<path d="M15.4697 3C16.5272 3.30624 17.5236 3.79345 18.4147 4.44" stroke="white" stroke-width="3" stroke-linecap="round" stroke-linejoin="round"/>
<path d="M23.9697 12V12.0325C23.9633 14.2053 23.3135 16.3276 22.1023 18.1315C20.8911 19.9355 19.1729 21.3403 17.1642 22.1688C15.1556 22.9974 12.9465 23.2125 10.8158 22.787C8.685 22.3615 6.72797 21.3145 5.19156 19.7781C3.65514 18.2417 2.60816 16.2847 2.18268 14.1539C1.75721 12.0232 1.97231 9.81413 2.80084 7.80547C3.62937 5.79682 5.03422 4.07853 6.83818 2.86737C8.64213 1.65621 10.7644 1.00643 12.9372 1H12.9697C13.2347 1 13.4972 1 13.7597 1.03C14.1893 1.06008 14.6168 1.11601 15.0397 1.1975C15.7323 1.32873 16.4105 1.52717 17.0647 1.79C18.4374 2.34205 19.6851 3.16458 20.7335 4.20866C21.7819 5.25274 22.6095 6.49703 23.1672 7.8675C23.4376 8.53229 23.6411 9.22236 23.7747 9.9275C23.856 10.3546 23.9119 10.7862 23.9422 11.22C23.9697 11.48 23.9697 11.75 23.9697 12Z" fill="#001D66"/>
<path d="M23.7198 11.125V11.155C23.7154 13.1076 23.1325 15.0152 22.0449 16.6369C20.9573 18.2587 19.4137 19.5218 17.6088 20.267C15.8039 21.0122 13.8188 21.206 11.9038 20.824C9.98892 20.4419 8.23009 19.5012 6.84936 18.1205C5.46862 16.7397 4.52786 14.9809 4.14583 13.066C3.76379 11.1511 3.9576 9.16588 4.70279 7.36101C5.44799 5.55614 6.71116 4.01249 8.33288 2.92487C9.95459 1.83726 11.8622 1.25445 13.8148 1.25H13.8448C14.0948 1.25 14.3173 1.25 14.5548 1.2775C14.94 1.30437 15.3232 1.35446 15.7023 1.4275C16.1646 1.51557 16.6199 1.63672 17.0648 1.79C18.4376 2.34205 19.6852 3.16458 20.7336 4.20866C21.782 5.25274 22.6096 6.49703 23.1673 7.8675C23.3282 8.32315 23.4544 8.79032 23.5448 9.265C23.6178 9.64834 23.6679 10.0357 23.6948 10.425C23.7198 10.6575 23.7198 10.8925 23.7198 11.125Z" fill="#2F41DF"/>
<path d="M19.6348 5.48242C19.9031 5.75959 20.1536 6.05352 20.3848 6.36242" stroke="white" stroke-linecap="round" stroke-linejoin="round"/>
<path d="M15.4697 3C16.5272 3.30624 17.5236 3.79345 18.4147 4.44" stroke="white" stroke-linecap="round" stroke-linejoin="round"/>
<path d="M12.7069 15.719H13.4679C13.4679 15.719 13.6983 15.6949 13.8165 15.5679C13.9256 15.4531 13.9196 15.2354 13.9196 15.2354C13.9196 15.2354 13.9044 14.2169 14.3804 14.0657C14.8472 13.9176 15.4505 15.0511 16.0871 15.4863C16.5692 15.8158 16.9329 15.7432 16.9329 15.7432L18.6367 15.719C18.6367 15.719 19.528 15.6646 19.1066 14.9664C19.0732 14.909 18.861 14.4496 17.8394 13.5066C16.7723 12.5182 16.9148 12.6784 18.2001 10.9707C18.9823 9.93094 19.2976 9.29319 19.1975 9.02116C19.1035 8.76123 18.5275 8.83075 18.5275 8.83075L16.6116 8.84284C16.6116 8.84284 16.4691 8.8247 16.363 8.88515C16.2599 8.94862 16.1932 9.09068 16.1932 9.09068C16.1932 9.09068 15.8901 9.89769 15.4839 10.5808C14.629 12.0255 14.2894 12.1011 14.15 12.0134C13.8256 11.8049 13.9074 11.1732 13.9074 10.7259C13.9074 9.32342 14.1197 8.74007 13.4921 8.58895C13.2829 8.53756 13.1314 8.50432 12.5978 8.50129C11.9127 8.49525 11.3337 8.50432 11.0062 8.66451C10.788 8.7703 10.6182 9.00907 10.7213 9.02116C10.8486 9.0393 11.1336 9.09975 11.2882 9.30528C11.4852 9.57126 11.4792 10.1697 11.4792 10.1697C11.4792 10.1697 11.5913 11.82 11.2154 12.0225C10.9577 12.1646 10.603 11.8774 9.83909 10.5657C9.44802 9.89467 9.15396 9.15113 9.15396 9.15113C9.15396 9.15113 9.09636 9.0121 8.99632 8.93956C8.87506 8.84888 8.70226 8.82168 8.70226 8.82168L6.88332 8.82772C6.88332 8.82772 6.61048 8.83679 6.51044 8.95467C6.42252 9.06046 6.50437 9.27808 6.50437 9.27808C6.50437 9.27808 7.92921 12.6059 9.542 14.2833C11.0244 15.8188 12.7069 15.719 12.7069 15.719Z" fill="white"/>
</svg>
