<svg width="25" height="24" viewBox="0 0 25 24" fill="none" xmlns="http://www.w3.org/2000/svg">
<path d="M23.9697 12V12.0325C23.9633 14.2053 23.3135 16.3276 22.1023 18.1315C20.8911 19.9355 19.1729 21.3403 17.1642 22.1688C15.1556 22.9974 12.9465 23.2125 10.8158 22.787C8.685 22.3615 6.72797 21.3145 5.19156 19.7781C3.65514 18.2417 2.60816 16.2847 2.18268 14.1539C1.75721 12.0232 1.97231 9.81413 2.80084 7.80547C3.62937 5.79682 5.03422 4.07853 6.83818 2.86737C8.64213 1.65621 10.7644 1.00643 12.9372 1H12.9697C13.2347 1 13.4972 1 13.7597 1.03C14.1893 1.06008 14.6168 1.11601 15.0397 1.1975C15.7323 1.32873 16.4105 1.52717 17.0647 1.79C18.4374 2.34205 19.6851 3.16458 20.7335 4.20866C21.7819 5.25274 22.6095 6.49703 23.1672 7.8675C23.4376 8.53229 23.6411 9.22236 23.7747 9.9275C23.856 10.3546 23.9119 10.7862 23.9422 11.22C23.9697 11.48 23.9697 11.75 23.9697 12Z" fill="#636363"/>
<path d="M23.7198 11.125V11.155C23.7154 13.1076 23.1325 15.0152 22.0449 16.6369C20.9573 18.2587 19.4137 19.5218 17.6088 20.267C15.8039 21.0122 13.8188 21.206 11.9038 20.824C9.98892 20.4419 8.23009 19.5012 6.84936 18.1205C5.46862 16.7397 4.52786 14.9809 4.14583 13.066C3.76379 11.1511 3.9576 9.16588 4.70279 7.36101C5.44799 5.55614 6.71116 4.01249 8.33288 2.92487C9.95459 1.83726 11.8622 1.25445 13.8148 1.25H13.8448C14.0948 1.25 14.3173 1.25 14.5548 1.2775C14.94 1.30437 15.3232 1.35446 15.7023 1.4275C16.1646 1.51557 16.6199 1.63672 17.0648 1.79C18.4376 2.34205 19.6852 3.16458 20.7336 4.20866C21.782 5.25274 22.6096 6.49703 23.1673 7.8675C23.3282 8.32315 23.4544 8.79032 23.5448 9.265C23.6178 9.64834 23.6679 10.0357 23.6948 10.425C23.7198 10.6575 23.7198 10.8925 23.7198 11.125Z" fill="#2E3238"/>
<path d="M19.6348 5.48242C19.9031 5.75959 20.1536 6.05352 20.3848 6.36242" stroke="white" stroke-linecap="round" stroke-linejoin="round"/>
<path d="M15.4697 3C16.5272 3.30624 17.5236 3.79345 18.4147 4.44" stroke="white" stroke-linecap="round" stroke-linejoin="round"/>
<path fill-rule="evenodd" clip-rule="evenodd" d="M19.9697 12.0711V12V11.9289C17.0899 11.8425 15.7744 11.7689 14.7255 10.7452C13.6996 9.69617 13.6284 8.37788 13.5421 5.5H13.4685H13.3973C13.311 8.38042 13.2374 9.69617 12.2139 10.7452C11.1651 11.7714 9.84705 11.8425 6.96973 11.9289V12V12.0711C9.84959 12.1575 11.1651 12.2311 12.2139 13.2548C13.2399 14.3038 13.311 15.6221 13.3973 18.5H13.4685H13.5396C13.6259 15.6196 13.6996 14.3038 14.723 13.2548C15.7744 12.2311 17.0899 12.16 19.9697 12.0711Z" fill="white"/>
</svg>
