<svg width="34" height="34" viewBox="0 0 34 34" fill="none" xmlns="http://www.w3.org/2000/svg">
<g filter="url(#filter0_ddd)">
<circle cx="17" cy="16" r="9" transform="rotate(-180 17 16)" fill="#FFCCA2"/>
<path d="M18.125 12.2501C18.317 12.2501 18.509 12.3236 18.6552 12.4698C18.9485 12.7631 18.9485 13.2371 18.6552 13.5303L16.1765 16.0091L18.5615 18.4788C18.8487 18.7773 18.8405 19.2521 18.5427 19.5393C18.2442 19.8266 17.7695 19.8183 17.4822 19.5213L14.5857 16.5213C14.3015 16.2266 14.3052 15.7593 14.5947 15.4698L17.5947 12.4698C17.741 12.3236 17.933 12.2501 18.125 12.2501Z" fill="#FF8721"/>
<mask id="mask0" mask-type="alpha" maskUnits="userSpaceOnUse" x="14" y="12" width="5" height="8">
<path d="M18.125 12.2501C18.317 12.2501 18.509 12.3236 18.6552 12.4698C18.9485 12.7631 18.9485 13.2371 18.6552 13.5303L16.1765 16.0091L18.5615 18.4788C18.8487 18.7773 18.8405 19.2521 18.5427 19.5393C18.2442 19.8266 17.7695 19.8183 17.4822 19.5213L14.5857 16.5213C14.3015 16.2266 14.3052 15.7593 14.5947 15.4698L17.5947 12.4698C17.741 12.3236 17.933 12.2501 18.125 12.2501Z" fill="white"/>
</mask>
<g mask="url(#mask0)">
</g>
</g>
<defs>
<filter id="filter0_ddd" x="0" y="0" width="34" height="34" filterUnits="userSpaceOnUse" color-interpolation-filters="sRGB">
<feFlood flood-opacity="0" result="BackgroundImageFix"/>
<feColorMatrix in="SourceAlpha" type="matrix" values="0 0 0 0 0 0 0 0 0 0 0 0 0 0 0 0 0 0 127 0"/>
<feOffset dy="1"/>
<feGaussianBlur stdDeviation="4"/>
<feColorMatrix type="matrix" values="0 0 0 0 0 0 0 0 0 0 0 0 0 0 0 0 0 0 0.1 0"/>
<feBlend mode="normal" in2="BackgroundImageFix" result="effect1_dropShadow"/>
<feColorMatrix in="SourceAlpha" type="matrix" values="0 0 0 0 0 0 0 0 0 0 0 0 0 0 0 0 0 0 127 0"/>
<feOffset dy="2"/>
<feGaussianBlur stdDeviation="2"/>
<feColorMatrix type="matrix" values="0 0 0 0 0 0 0 0 0 0 0 0 0 0 0 0 0 0 0.12 0"/>
<feBlend mode="normal" in2="effect1_dropShadow" result="effect2_dropShadow"/>
<feColorMatrix in="SourceAlpha" type="matrix" values="0 0 0 0 0 0 0 0 0 0 0 0 0 0 0 0 0 0 127 0"/>
<feOffset dy="1"/>
<feGaussianBlur stdDeviation="1"/>
<feColorMatrix type="matrix" values="0 0 0 0 0 0 0 0 0 0 0 0 0 0 0 0 0 0 0.16 0"/>
<feBlend mode="normal" in2="effect2_dropShadow" result="effect3_dropShadow"/>
<feBlend mode="normal" in="SourceGraphic" in2="effect3_dropShadow" result="shape"/>
</filter>
</defs>
</svg>
