<svg width="34" height="34" viewBox="0 0 34 34" fill="none" xmlns="http://www.w3.org/2000/svg">
<g filter="url(#filter0_ddd)">
<circle cx="17" cy="16" r="9" fill="#FFCCA2"/>
<path d="M15.875 19.7499C15.683 19.7499 15.491 19.6764 15.3447 19.5302C15.0515 19.2369 15.0515 18.7629 15.3447 18.4697L17.8235 15.9909L15.4385 13.5212C15.1512 13.2227 15.1595 12.7479 15.4572 12.4607C15.7557 12.1734 16.2305 12.1817 16.5177 12.4787L19.4142 15.4787C19.6985 15.7734 19.6947 16.2407 19.4052 16.5302L16.4052 19.5302C16.259 19.6764 16.067 19.7499 15.875 19.7499Z" fill="#FF8721"/>
<mask id="mask0" mask-type="alpha" maskUnits="userSpaceOnUse" x="15" y="12" width="5" height="8">
<path d="M15.875 19.7499C15.683 19.7499 15.491 19.6764 15.3447 19.5302C15.0515 19.2369 15.0515 18.7629 15.3447 18.4697L17.8235 15.9909L15.4385 13.5212C15.1512 13.2227 15.1595 12.7479 15.4572 12.4607C15.7557 12.1734 16.2305 12.1817 16.5177 12.4787L19.4142 15.4787C19.6985 15.7734 19.6947 16.2407 19.4052 16.5302L16.4052 19.5302C16.259 19.6764 16.067 19.7499 15.875 19.7499Z" fill="white"/>
</mask>
<g mask="url(#mask0)">
</g>
</g>
<defs>
<filter id="filter0_ddd" x="0" y="0" width="34" height="34" filterUnits="userSpaceOnUse" color-interpolation-filters="sRGB">
<feFlood flood-opacity="0" result="BackgroundImageFix"/>
<feColorMatrix in="SourceAlpha" type="matrix" values="0 0 0 0 0 0 0 0 0 0 0 0 0 0 0 0 0 0 127 0"/>
<feOffset dy="1"/>
<feGaussianBlur stdDeviation="4"/>
<feColorMatrix type="matrix" values="0 0 0 0 0 0 0 0 0 0 0 0 0 0 0 0 0 0 0.1 0"/>
<feBlend mode="normal" in2="BackgroundImageFix" result="effect1_dropShadow"/>
<feColorMatrix in="SourceAlpha" type="matrix" values="0 0 0 0 0 0 0 0 0 0 0 0 0 0 0 0 0 0 127 0"/>
<feOffset dy="2"/>
<feGaussianBlur stdDeviation="2"/>
<feColorMatrix type="matrix" values="0 0 0 0 0 0 0 0 0 0 0 0 0 0 0 0 0 0 0.12 0"/>
<feBlend mode="normal" in2="effect1_dropShadow" result="effect2_dropShadow"/>
<feColorMatrix in="SourceAlpha" type="matrix" values="0 0 0 0 0 0 0 0 0 0 0 0 0 0 0 0 0 0 127 0"/>
<feOffset dy="1"/>
<feGaussianBlur stdDeviation="1"/>
<feColorMatrix type="matrix" values="0 0 0 0 0 0 0 0 0 0 0 0 0 0 0 0 0 0 0.16 0"/>
<feBlend mode="normal" in2="effect2_dropShadow" result="effect3_dropShadow"/>
<feBlend mode="normal" in="SourceGraphic" in2="effect3_dropShadow" result="shape"/>
</filter>
</defs>
</svg>
