<svg width="24" height="24" viewBox="0 0 24 24" fill="none" xmlns="http://www.w3.org/2000/svg">
<path fill-rule="evenodd" clip-rule="evenodd" d="M12.0759 12.9972C12.0508 12.999 12.0255 13 12 13H4C3.448 13 3 12.553 3 12C3 11.447 3.448 11 4 11H11.9998L10.2 8.6C9.867 8.158 9.958 7.531 10.4 7.2C10.842 6.868 11.469 6.958 11.8 7.4L14.8 11.4C14.933 11.577 15 11.789 15 12C15 12.201 14.939 12.402 14.818 12.575L12.004 16.575C11.686 17.027 11.062 17.136 10.611 16.818C10.159 16.5 10.05 15.877 10.368 15.425L12.0759 12.9972ZM17 18H18V6L17 6C16.45 6 16 5.55 16 5C16 4.45 16.45 4 17 4L19 4C19.55 4 20 4.45 20 5V19C20 19.55 19.55 20 19 20H17C16.45 20 16 19.55 16 19C16 18.45 16.45 18 17 18Z" fill="white"/>
<mask id="mask0" mask-type="alpha" maskUnits="userSpaceOnUse" x="3" y="4" width="17" height="16">
<path fill-rule="evenodd" clip-rule="evenodd" d="M12.0759 12.9972C12.0508 12.999 12.0255 13 12 13H4C3.448 13 3 12.553 3 12C3 11.447 3.448 11 4 11H11.9998L10.2 8.6C9.867 8.158 9.958 7.531 10.4 7.2C10.842 6.868 11.469 6.958 11.8 7.4L14.8 11.4C14.933 11.577 15 11.789 15 12C15 12.201 14.939 12.402 14.818 12.575L12.004 16.575C11.686 17.027 11.062 17.136 10.611 16.818C10.159 16.5 10.05 15.877 10.368 15.425L12.0759 12.9972ZM17 18H18V6L17 6C16.45 6 16 5.55 16 5C16 4.45 16.45 4 17 4L19 4C19.55 4 20 4.45 20 5V19C20 19.55 19.55 20 19 20H17C16.45 20 16 19.55 16 19C16 18.45 16.45 18 17 18Z" fill="white"/>
</mask>
<g mask="url(#mask0)">
</g>
</svg>
