<svg width="72" height="72" viewBox="0 0 72 72" fill="none" xmlns="http://www.w3.org/2000/svg">
<path d="M33.5011 48.1541L46.0294 37.7296C46.2832 37.5184 46.4874 37.254 46.6276 36.9551C46.7677 36.6562 46.8404 36.3301 46.8404 35.9999C46.8404 35.6697 46.7677 35.3436 46.6276 35.0447C46.4874 34.7458 46.2832 34.4814 46.0294 34.2702L33.5011 23.8457C33.1725 23.5725 32.773 23.3985 32.3492 23.344C31.9254 23.2896 31.4948 23.3569 31.1079 23.5382C30.7209 23.7195 30.3936 24.0073 30.1642 24.3678C29.9348 24.7283 29.8128 25.1467 29.8125 25.574V46.4258C29.8128 46.8531 29.9348 47.2715 30.1642 47.632C30.3936 47.9925 30.7209 48.2803 31.1079 48.4615C31.4948 48.6428 31.9254 48.7102 32.3492 48.6558C32.773 48.6013 33.1725 48.4273 33.5011 48.1541Z" fill="white"/>
<path d="M63 36C63 21.0938 50.9062 9 36 9C21.0938 9 9 21.0938 9 36C9 50.9062 21.0938 63 36 63C50.9062 63 63 50.9062 63 36Z" stroke="white" stroke-width="3" stroke-miterlimit="10"/>
</svg>
