<svg width="18" height="17" viewBox="0 0 18 17" fill="none" xmlns="http://www.w3.org/2000/svg">
<g opacity="0.6">
<path fill-rule="evenodd" clip-rule="evenodd" d="M6.90913 1.36475C3.34439 1.36475 0.45459 4.25454 0.45459 7.81929C0.45459 11.384 3.34439 14.2738 6.90913 14.2738C8.74174 14.2738 10.396 13.5101 11.5709 12.2835C11.597 12.3174 11.6255 12.3499 11.6566 12.381L15.4384 16.1628C15.8289 16.5533 16.4621 16.5533 16.8526 16.1628C17.2431 15.7723 17.2431 15.1391 16.8526 14.7486L13.0708 10.9668C12.9558 10.8518 12.8197 10.7706 12.675 10.7234C13.1156 9.85044 13.3637 8.86384 13.3637 7.81929C13.3637 4.25454 10.4739 1.36475 6.90913 1.36475ZM2.45459 7.81929C2.45459 5.35911 4.44896 3.36475 6.90913 3.36475C9.36931 3.36475 11.3637 5.35911 11.3637 7.81929C11.3637 10.2795 9.36931 12.2738 6.90913 12.2738C4.44896 12.2738 2.45459 10.2795 2.45459 7.81929Z" fill="#FF8721"/>
</g>
</svg>