<svg width="156" height="86" viewBox="0 0 156 86" fill="none" xmlns="http://www.w3.org/2000/svg">
<path d="M20.6701 1.37594C22.1061 0.338044 23.9374 -0.166237 25.7017 0.0488856C27.5009 0.250039 29.2163 1.15383 30.3785 2.54654C32.2156 4.66432 34.3515 7.18882 37.1551 7.18797C37.2068 7.18795 37.2585 7.18794 37.3102 7.18792C40.2233 7.18704 42.5808 9.54275 42.5779 12.4559C42.5775 12.9416 42.5771 13.4274 42.5772 13.9131C42.5775 16.0257 44.3464 17.5439 46.1565 18.6332C47.9417 19.6418 49.2604 21.4466 49.6501 23.4609C49.9812 25.1791 49.713 27.0328 48.8022 28.5372C48.4205 29.1955 47.93 29.7844 47.3616 30.285C45.2002 32.1883 42.575 34.4358 42.5755 37.3158C42.576 40.2134 40.2112 42.5714 37.3136 42.5726C34.4424 42.5737 32.2283 39.978 30.3206 37.8322C30.2282 37.7283 30.1325 37.6272 30.0335 37.5291C28.6017 36.0386 26.4979 35.2396 24.4361 35.3946C21.585 35.5175 18.9505 37.5528 18.0732 40.2614C17.5986 41.5215 16.6323 42.5728 15.2858 42.5719C14.3555 42.5713 13.4251 42.572 12.4948 42.5727C9.561 42.5748 7.19262 40.1953 7.19315 37.2615C7.19318 37.1017 7.1932 36.9418 7.19321 36.782C7.19335 34.1855 9.46843 32.2512 11.5218 30.6619C12.9913 29.5723 14.0208 27.9003 14.303 26.0885C14.5963 24.6273 14.3198 23.0865 13.694 21.7469C12.691 19.6767 10.6557 18.1289 8.37456 17.7867C7.6912 17.7169 7.19043 17.1253 7.1911 16.4384C7.1939 13.5581 7.19701 10.6776 7.1872 7.79609C7.17968 7.45263 7.46109 7.18036 7.80463 7.18285C10.6331 7.19608 13.4626 7.18239 16.2914 7.18902C17.0812 7.19087 17.7348 6.61729 17.8316 5.83344C18.1724 4.06078 19.2033 2.4306 20.6701 1.37594Z" fill="#FDE040"/>
<path d="M20.6701 1.37594C22.1061 0.338044 23.9374 -0.166237 25.7017 0.0488856C27.5009 0.250039 29.2163 1.15383 30.3785 2.54654C32.2156 4.66432 34.3515 7.18882 37.1551 7.18797C37.2068 7.18795 37.2585 7.18794 37.3102 7.18792C40.2233 7.18704 42.5808 9.54275 42.5779 12.4559C42.5775 12.9416 42.5771 13.4274 42.5772 13.9131C42.5775 16.0257 44.3464 17.5439 46.1565 18.6332C47.9417 19.6418 49.2604 21.4466 49.6501 23.4609C49.9812 25.1791 49.713 27.0328 48.8022 28.5372C48.4205 29.1955 47.93 29.7844 47.3616 30.285C45.2002 32.1883 42.575 34.4358 42.5755 37.3158C42.576 40.2134 40.2112 42.5714 37.3136 42.5726C34.4424 42.5737 32.2283 39.978 30.3206 37.8322C30.2282 37.7283 30.1325 37.6272 30.0335 37.5291C28.6017 36.0386 26.4979 35.2396 24.4361 35.3946C21.585 35.5175 18.9505 37.5528 18.0732 40.2614C17.5986 41.5215 16.6323 42.5728 15.2858 42.5719C14.3555 42.5713 13.4251 42.572 12.4948 42.5727C9.561 42.5748 7.19262 40.1953 7.19315 37.2615C7.19318 37.1017 7.1932 36.9418 7.19321 36.782C7.19335 34.1855 9.46843 32.2512 11.5218 30.6619C12.9913 29.5723 14.0208 27.9003 14.303 26.0885C14.5963 24.6273 14.3198 23.0865 13.694 21.7469C12.691 19.6767 10.6557 18.1289 8.37456 17.7867C7.6912 17.7169 7.19043 17.1253 7.1911 16.4384C7.1939 13.5581 7.19701 10.6776 7.1872 7.79609C7.17968 7.45263 7.46109 7.18036 7.80463 7.18285C10.6331 7.19608 13.4626 7.18239 16.2914 7.18902C17.0812 7.19087 17.7348 6.61729 17.8316 5.83344C18.1724 4.06078 19.2033 2.4306 20.6701 1.37594Z" fill="url(#paint0_linear)"/>
<path d="M90.7941 1.37594C92.2301 0.338044 94.0614 -0.166237 95.8257 0.0488856C97.6249 0.250039 99.3403 1.15383 100.503 2.54654C102.34 4.66432 104.476 7.18882 107.279 7.18797C107.331 7.18795 107.382 7.18794 107.434 7.18792C110.347 7.18704 112.705 9.54275 112.702 12.4559C112.701 12.9416 112.701 13.4274 112.701 13.9131C112.702 16.0257 114.47 17.5439 116.281 18.6332C118.066 19.6418 119.384 21.4466 119.774 23.4609C120.105 25.1791 119.837 27.0328 118.926 28.5372C118.545 29.1955 118.054 29.7844 117.486 30.285C115.324 32.1883 112.699 34.4358 112.7 37.3158C112.7 40.2134 110.335 42.5714 107.438 42.5726C104.566 42.5737 102.352 39.978 100.445 37.8322C100.352 37.7283 100.257 37.6272 100.157 37.5291C98.7257 36.0386 96.6219 35.2396 94.5601 35.3946C91.7091 35.5175 89.0745 37.5528 88.1973 40.2614C87.7227 41.5215 86.7563 42.5728 85.4098 42.5719C84.4795 42.5713 83.5492 42.572 82.6188 42.5727C79.685 42.5748 77.3166 40.1953 77.3172 37.2615C77.3172 37.1017 77.3172 36.9418 77.3172 36.782C77.3174 34.1855 79.5924 32.2512 81.6458 30.6619C83.1153 29.5723 84.1448 27.9003 84.427 26.0885C84.7204 24.6273 84.4438 23.0865 83.818 21.7469C82.815 19.6767 80.7797 18.1289 78.4986 17.7867C77.8152 17.7169 77.3145 17.1253 77.3151 16.4384C77.3179 13.5581 77.321 10.6776 77.3112 7.79609C77.3037 7.45263 77.5851 7.18036 77.9287 7.18285C80.7571 7.19608 83.5866 7.18239 86.4154 7.18902C87.2052 7.19087 87.8588 6.61729 87.9556 5.83344C88.2964 4.06078 89.3273 2.4306 90.7941 1.37594Z" fill="#FDE040"/>
<path d="M90.7941 1.37594C92.2301 0.338044 94.0614 -0.166237 95.8257 0.0488856C97.6249 0.250039 99.3403 1.15383 100.503 2.54654C102.34 4.66432 104.476 7.18882 107.279 7.18797C107.331 7.18795 107.382 7.18794 107.434 7.18792C110.347 7.18704 112.705 9.54275 112.702 12.4559C112.701 12.9416 112.701 13.4274 112.701 13.9131C112.702 16.0257 114.47 17.5439 116.281 18.6332C118.066 19.6418 119.384 21.4466 119.774 23.4609C120.105 25.1791 119.837 27.0328 118.926 28.5372C118.545 29.1955 118.054 29.7844 117.486 30.285C115.324 32.1883 112.699 34.4358 112.7 37.3158C112.7 40.2134 110.335 42.5714 107.438 42.5726C104.566 42.5737 102.352 39.978 100.445 37.8322C100.352 37.7283 100.257 37.6272 100.157 37.5291C98.7257 36.0386 96.6219 35.2396 94.5601 35.3946C91.7091 35.5175 89.0745 37.5528 88.1973 40.2614C87.7227 41.5215 86.7563 42.5728 85.4098 42.5719C84.4795 42.5713 83.5492 42.572 82.6188 42.5727C79.685 42.5748 77.3166 40.1953 77.3172 37.2615C77.3172 37.1017 77.3172 36.9418 77.3172 36.782C77.3174 34.1855 79.5924 32.2512 81.6458 30.6619C83.1153 29.5723 84.1448 27.9003 84.427 26.0885C84.7204 24.6273 84.4438 23.0865 83.818 21.7469C82.815 19.6767 80.7797 18.1289 78.4986 17.7867C77.8152 17.7169 77.3145 17.1253 77.3151 16.4384C77.3179 13.5581 77.321 10.6776 77.3112 7.79609C77.3037 7.45263 77.5851 7.18036 77.9287 7.18285C80.7571 7.19608 83.5866 7.18239 86.4154 7.18902C87.2052 7.19087 87.8588 6.61729 87.9556 5.83344C88.2964 4.06078 89.3273 2.4306 90.7941 1.37594Z" fill="url(#paint1_linear)"/>
<path d="M42.5777 12.5964C42.5805 9.61428 45.0006 7.19219 47.9828 7.19263C48.5576 7.19271 49.1324 7.19263 49.7071 7.19231C51.5794 7.19124 52.927 8.75142 53.8198 10.3971C54.8493 12.5357 57.0089 14.0723 59.3669 14.3461C62.6566 14.8532 66.1027 12.6824 67.1015 9.50865C67.6191 8.24698 68.5465 7.19148 69.9102 7.19231C72.2792 7.19374 74.648 7.18922 77.0161 7.1917C77.4611 7.19216 78.0225 7.21741 77.982 7.66056C77.9723 10.5352 77.9824 13.4108 77.9773 16.2857C77.9759 17.0839 78.5444 17.7432 79.3383 17.8258C81.104 18.1778 82.7384 19.1947 83.7889 20.6629C84.9022 22.2009 85.4037 24.197 85.0642 26.0731C84.7835 27.7661 83.8825 29.3502 82.5484 30.4314C80.4439 32.2313 77.9793 34.3054 77.9784 37.0746C77.9784 37.1309 77.9783 37.1873 77.9783 37.2437C77.9774 40.1937 75.5829 42.5894 72.6328 42.5902C71.5882 42.5905 70.5437 42.5906 69.4992 42.5892C68.3194 42.5876 67.5156 43.4119 67.1993 44.5485C66.6601 46.4189 65.3456 48.0645 63.6093 48.9529C62.1914 49.7142 60.5123 49.9307 58.9366 49.6457C57.2757 49.3426 55.7461 48.4137 54.6901 47.0992C52.9522 45.0105 50.9104 42.5869 48.1933 42.5906C48.0581 42.5908 47.923 42.591 47.7879 42.5911C44.9051 42.5945 42.5762 40.2625 42.5755 37.3797C42.5747 34.4644 45.2384 32.1883 47.4093 30.2425C47.9574 29.7512 48.4312 29.1769 48.8021 28.5372C49.7129 27.0327 49.9811 25.1791 49.65 23.4609C49.2603 21.4465 47.9416 19.6418 46.1564 18.6332C44.3463 17.5438 42.5774 16.0257 42.5771 13.9131C42.5771 13.4742 42.5773 13.0353 42.5777 12.5964Z" fill="url(#paint2_linear)"/>
<path d="M112.702 12.5964C112.705 9.61428 115.125 7.19219 118.107 7.19263C118.682 7.19271 119.257 7.19263 119.832 7.19231C121.704 7.19124 123.052 8.75142 123.944 10.3971C124.974 12.5357 127.133 14.0723 129.491 14.3461C132.781 14.8532 136.227 12.6824 137.226 9.50865C137.744 8.24698 138.671 7.19148 140.035 7.19231C142.404 7.19374 144.772 7.18922 147.141 7.1917C147.586 7.19216 148.147 7.21741 148.106 7.66056C148.097 10.5352 148.107 13.4108 148.102 16.2857C148.1 17.0839 148.669 17.7432 149.463 17.8258C151.229 18.1778 152.863 19.1947 153.913 20.6629C155.027 22.2009 155.528 24.197 155.189 26.0731C154.908 27.7661 154.007 29.3502 152.673 30.4314C150.568 32.2313 148.104 34.3054 148.103 37.0746C148.103 37.1309 148.103 37.1873 148.103 37.2437C148.102 40.1937 145.707 42.5894 142.757 42.5902C141.713 42.5905 140.668 42.5906 139.624 42.5892C138.444 42.5876 137.64 43.4119 137.324 44.5485C136.785 46.4189 135.47 48.0645 133.734 48.9529C132.316 49.7142 130.637 49.9307 129.061 49.6457C127.4 49.3426 125.871 48.4137 124.815 47.0992C123.077 45.0105 121.035 42.5869 118.318 42.5906C118.183 42.5908 118.048 42.591 117.912 42.5911C115.03 42.5945 112.701 40.2625 112.7 37.3797C112.699 34.4644 115.363 32.1883 117.534 30.2425C118.082 29.7512 118.556 29.1769 118.927 28.5372C119.837 27.0327 120.106 25.1791 119.775 23.4609C119.385 21.4465 118.066 19.6418 116.281 18.6332C114.471 17.5438 112.702 16.0257 112.702 13.9131C112.702 13.4742 112.702 13.0353 112.702 12.5964Z" fill="url(#paint3_linear)"/>
<path d="M18.0733 40.2613C18.9505 37.5527 21.5851 35.5175 24.4361 35.3945C26.498 35.2395 28.6017 36.0385 30.0335 37.529C30.1263 37.6209 30.2162 37.7155 30.3032 37.8125C32.2291 39.9616 34.4345 42.5737 37.3202 42.5725C40.2337 42.5713 42.597 44.9534 42.5986 47.8669C42.6003 50.7464 39.9993 52.9429 37.8494 54.8584C37.7474 54.9493 37.6481 55.0435 37.5516 55.1411C36.0192 56.6036 35.2258 58.7772 35.4241 60.8837C35.5764 63.1104 36.8755 65.2002 38.7669 66.3708C40.6663 67.6246 42.5983 69.2624 42.5969 71.5383C42.5966 71.9032 42.5963 72.2682 42.5961 72.6331C42.594 75.5816 40.204 77.9793 37.2555 77.9793C36.9676 77.9793 36.6796 77.9794 36.3916 77.9794C34.0124 77.98 32.222 75.93 30.8856 73.9615C29.8324 72.3788 28.1309 71.2362 26.2563 70.8995C23.957 70.419 21.4454 71.204 19.804 72.8789C18.7983 73.8707 18.1152 75.1712 17.8386 76.5527C17.7108 77.3751 17.0302 77.9836 16.1981 77.9819C15.0692 77.9796 13.9403 77.9792 12.8115 77.9793C9.70625 77.9796 7.18885 75.467 7.18957 72.3617C7.18984 71.1956 7.1908 70.0293 7.19228 68.8629C7.19327 68.0845 6.62713 67.4466 5.85599 67.3402C3.70337 66.9547 1.77705 65.5103 0.796424 63.556C-0.103179 61.8253 -0.255438 59.7173 0.415073 57.8818C1.11213 55.8535 2.77024 54.187 4.79994 53.4914C6.06969 52.9863 7.18892 51.9938 7.1901 50.6273C7.19086 49.7425 7.19091 48.8578 7.19076 47.973C7.19024 44.99 9.6166 42.5747 12.5996 42.5725C13.495 42.5719 14.3904 42.5712 15.2859 42.5718C16.6323 42.5727 17.5987 41.5214 18.0733 40.2613Z" fill="#BD99FF"/>
<path d="M18.0733 40.2613C18.9505 37.5527 21.5851 35.5175 24.4361 35.3945C26.498 35.2395 28.6017 36.0385 30.0335 37.529C30.1263 37.6209 30.2162 37.7155 30.3032 37.8125C32.2291 39.9616 34.4345 42.5737 37.3202 42.5725C40.2337 42.5713 42.597 44.9534 42.5986 47.8669C42.6003 50.7464 39.9993 52.9429 37.8494 54.8584C37.7474 54.9493 37.6481 55.0435 37.5516 55.1411C36.0192 56.6036 35.2258 58.7772 35.4241 60.8837C35.5764 63.1104 36.8755 65.2002 38.7669 66.3708C40.6663 67.6246 42.5983 69.2624 42.5969 71.5383C42.5966 71.9032 42.5963 72.2682 42.5961 72.6331C42.594 75.5816 40.204 77.9793 37.2555 77.9793C36.9676 77.9793 36.6796 77.9794 36.3916 77.9794C34.0124 77.98 32.222 75.93 30.8856 73.9615C29.8324 72.3788 28.1309 71.2362 26.2563 70.8995C23.957 70.419 21.4454 71.204 19.804 72.8789C18.7983 73.8707 18.1152 75.1712 17.8386 76.5527C17.7108 77.3751 17.0302 77.9836 16.1981 77.9819C15.0692 77.9796 13.9403 77.9792 12.8115 77.9793C9.70625 77.9796 7.18885 75.467 7.18957 72.3617C7.18984 71.1956 7.1908 70.0293 7.19228 68.8629C7.19327 68.0845 6.62713 67.4466 5.85599 67.3402C3.70337 66.9547 1.77705 65.5103 0.796424 63.556C-0.103179 61.8253 -0.255438 59.7173 0.415073 57.8818C1.11213 55.8535 2.77024 54.187 4.79994 53.4914C6.06969 52.9863 7.18892 51.9938 7.1901 50.6273C7.19086 49.7425 7.19091 48.8578 7.19076 47.973C7.19024 44.99 9.6166 42.5747 12.5996 42.5725C13.495 42.5719 14.3904 42.5712 15.2859 42.5718C16.6323 42.5727 17.5987 41.5214 18.0733 40.2613Z" fill="url(#paint4_linear)"/>
<path d="M88.1975 40.2613C89.0748 37.5527 91.7093 35.5175 94.5604 35.3945C96.6222 35.2395 98.726 36.0385 100.158 37.529C100.251 37.6209 100.341 37.7155 100.427 37.8125C102.353 39.9616 104.559 42.5737 107.444 42.5725C110.358 42.5713 112.721 44.9534 112.723 47.8669C112.725 50.7464 110.124 52.9429 107.974 54.8584C107.872 54.9493 107.772 55.0435 107.676 55.1411C106.143 56.6036 105.35 58.7772 105.548 60.8837C105.701 63.1104 107 65.2002 108.891 66.3708C110.791 67.6246 112.723 69.2624 112.721 71.5383C112.721 71.9032 112.721 72.2682 112.72 72.6331C112.718 75.5816 110.328 77.9793 107.38 77.9793C107.092 77.9793 106.804 77.9794 106.516 77.9794C104.137 77.98 102.346 75.93 101.01 73.9615C99.9566 72.3788 98.2552 71.2362 96.3806 70.8995C94.0813 70.419 91.5696 71.204 89.9283 72.8789C88.9225 73.8707 88.2394 75.1712 87.9629 76.5527C87.835 77.3751 87.1545 77.9836 86.3223 77.9819C85.1934 77.9796 84.0646 77.9792 82.9357 77.9793C79.8305 77.9796 77.3131 75.467 77.3138 72.3617C77.3141 71.1956 77.3151 70.0293 77.3165 68.8629C77.3175 68.0845 76.7514 67.4466 75.9803 67.3402C73.8276 66.9547 71.9013 65.5103 70.9207 63.556C70.0211 61.8253 69.8688 59.7173 70.5393 57.8818C71.2364 55.8535 72.8945 54.187 74.9242 53.4914C76.194 52.9863 77.3132 51.9938 77.3144 50.6273C77.3151 49.7425 77.3152 48.8578 77.315 47.973C77.3145 44.99 79.7409 42.5747 82.7239 42.5725C83.6193 42.5719 84.5147 42.5712 85.4101 42.5718C86.7566 42.5727 87.7229 41.5214 88.1975 40.2613Z" fill="#BD99FF"/>
<path d="M88.1975 40.2613C89.0748 37.5527 91.7093 35.5175 94.5604 35.3945C96.6222 35.2395 98.726 36.0385 100.158 37.529C100.251 37.6209 100.341 37.7155 100.427 37.8125C102.353 39.9616 104.559 42.5737 107.444 42.5725C110.358 42.5713 112.721 44.9534 112.723 47.8669C112.725 50.7464 110.124 52.9429 107.974 54.8584C107.872 54.9493 107.772 55.0435 107.676 55.1411C106.143 56.6036 105.35 58.7772 105.548 60.8837C105.701 63.1104 107 65.2002 108.891 66.3708C110.791 67.6246 112.723 69.2624 112.721 71.5383C112.721 71.9032 112.721 72.2682 112.72 72.6331C112.718 75.5816 110.328 77.9793 107.38 77.9793C107.092 77.9793 106.804 77.9794 106.516 77.9794C104.137 77.98 102.346 75.93 101.01 73.9615C99.9566 72.3788 98.2552 71.2362 96.3806 70.8995C94.0813 70.419 91.5696 71.204 89.9283 72.8789C88.9225 73.8707 88.2394 75.1712 87.9629 76.5527C87.835 77.3751 87.1545 77.9836 86.3223 77.9819C85.1934 77.9796 84.0646 77.9792 82.9357 77.9793C79.8305 77.9796 77.3131 75.467 77.3138 72.3617C77.3141 71.1956 77.3151 70.0293 77.3165 68.8629C77.3175 68.0845 76.7514 67.4466 75.9803 67.3402C73.8276 66.9547 71.9013 65.5103 70.9207 63.556C70.0211 61.8253 69.8688 59.7173 70.5393 57.8818C71.2364 55.8535 72.8945 54.187 74.9242 53.4914C76.194 52.9863 77.3132 51.9938 77.3144 50.6273C77.3151 49.7425 77.3152 48.8578 77.315 47.973C77.3145 44.99 79.7409 42.5747 82.7239 42.5725C83.6193 42.5719 84.5147 42.5712 85.4101 42.5718C86.7566 42.5727 87.7229 41.5214 88.1975 40.2613Z" fill="url(#paint5_linear)"/>
<path d="M42.5986 47.9191C42.5971 44.9766 44.9946 42.5947 47.9372 42.591C48.0225 42.5909 48.1079 42.5908 48.1933 42.5907C50.9104 42.587 52.9523 45.0106 54.6901 47.0993C55.7461 48.4137 57.2757 49.3427 58.9367 49.6458C60.5124 49.9308 62.1914 49.7143 63.6093 48.9529C65.3456 48.0645 66.6601 46.419 67.1993 44.5485C67.5378 43.496 68.3979 42.5878 69.5035 42.5893C70.5788 42.5907 71.6542 42.5906 72.7296 42.5903C75.6348 42.5894 77.9858 44.94 77.9841 47.8453C77.9839 48.0575 77.9838 48.2696 77.9837 48.4818C77.9826 51.0264 75.7677 52.9204 73.734 54.4497C72.2673 55.5058 71.2224 57.136 70.9039 58.917C70.4206 61.2149 71.2084 63.7224 72.8805 65.3651C73.896 66.4002 75.2399 67.0917 76.6633 67.3529C77.4251 67.4569 77.985 68.093 77.9843 68.8619C77.9832 70.0876 77.9838 71.3135 77.9843 72.5395C77.9856 75.5465 75.5493 77.9814 72.5424 77.9812C72.0961 77.9812 71.6498 77.981 71.2035 77.9808C69.119 77.9798 67.6212 79.7148 66.5484 81.5021C65.4406 83.5094 63.3159 84.8965 61.0376 85.127C59.1141 85.3422 57.1109 84.7247 55.64 83.4675C55.3725 83.2468 55.1236 83.0059 54.8944 82.748C52.9756 80.5887 50.7439 77.9795 47.8552 77.9794C44.951 77.9794 42.5939 75.635 42.5959 72.7308C42.5962 72.3334 42.5965 71.9359 42.5968 71.5384C42.5983 69.2625 40.6663 67.6247 38.7668 66.3709C36.8754 65.2003 35.5763 63.1105 35.4241 60.8839C35.2257 58.7773 36.0191 56.6038 37.5515 55.1412C37.6556 55.0359 37.7631 54.9345 37.8737 54.8369C40.0195 52.9441 42.6001 50.7805 42.5986 47.9191Z" fill="#FC5AA7"/>
<path d="M42.5986 47.9191C42.5971 44.9766 44.9946 42.5947 47.9372 42.591C48.0225 42.5909 48.1079 42.5908 48.1933 42.5907C50.9104 42.587 52.9523 45.0106 54.6901 47.0993C55.7461 48.4137 57.2757 49.3427 58.9367 49.6458C60.5124 49.9308 62.1914 49.7143 63.6093 48.9529C65.3456 48.0645 66.6601 46.419 67.1993 44.5485C67.5378 43.496 68.3979 42.5878 69.5035 42.5893C70.5788 42.5907 71.6542 42.5906 72.7296 42.5903C75.6348 42.5894 77.9858 44.94 77.9841 47.8453C77.9839 48.0575 77.9838 48.2696 77.9837 48.4818C77.9826 51.0264 75.7677 52.9204 73.734 54.4497C72.2673 55.5058 71.2224 57.136 70.9039 58.917C70.4206 61.2149 71.2084 63.7224 72.8805 65.3651C73.896 66.4002 75.2399 67.0917 76.6633 67.3529C77.4251 67.4569 77.985 68.093 77.9843 68.8619C77.9832 70.0876 77.9838 71.3135 77.9843 72.5395C77.9856 75.5465 75.5493 77.9814 72.5424 77.9812C72.0961 77.9812 71.6498 77.981 71.2035 77.9808C69.119 77.9798 67.6212 79.7148 66.5484 81.5021C65.4406 83.5094 63.3159 84.8965 61.0376 85.127C59.1141 85.3422 57.1109 84.7247 55.64 83.4675C55.3725 83.2468 55.1236 83.0059 54.8944 82.748C52.9756 80.5887 50.7439 77.9795 47.8552 77.9794C44.951 77.9794 42.5939 75.635 42.5959 72.7308C42.5962 72.3334 42.5965 71.9359 42.5968 71.5384C42.5983 69.2625 40.6663 67.6247 38.7668 66.3709C36.8754 65.2003 35.5763 63.1105 35.4241 60.8839C35.2257 58.7773 36.0191 56.6038 37.5515 55.1412C37.6556 55.0359 37.7631 54.9345 37.8737 54.8369C40.0195 52.9441 42.6001 50.7805 42.5986 47.9191Z" fill="url(#paint6_linear)"/>
<path d="M112.723 47.9191C112.721 44.9766 115.119 42.5947 118.061 42.591C118.147 42.5909 118.232 42.5908 118.318 42.5907C121.035 42.587 123.077 45.0106 124.814 47.0993C125.87 48.4137 127.4 49.3427 129.061 49.6458C130.637 49.9308 132.316 49.7143 133.734 48.9529C135.47 48.0645 136.784 46.419 137.324 44.5485C137.662 43.496 138.522 42.5878 139.628 42.5893C140.703 42.5907 141.778 42.5906 142.854 42.5903C145.759 42.5894 148.11 44.94 148.108 47.8453C148.108 48.0575 148.108 48.2696 148.108 48.4818C148.107 51.0264 145.892 52.9204 143.858 54.4497C142.392 55.5058 141.347 57.136 141.028 58.917C140.545 61.2149 141.333 63.7224 143.005 65.3651C144.02 66.4002 145.364 67.0917 146.788 67.3529C147.549 67.4569 148.109 68.093 148.109 68.8619C148.108 70.0876 148.108 71.3135 148.109 72.5395C148.11 75.5465 145.674 77.9814 142.667 77.9812C142.22 77.9812 141.774 77.981 141.328 77.9808C139.243 77.9798 137.745 79.7148 136.673 81.5021C135.565 83.5094 133.44 84.8965 131.162 85.127C129.238 85.3422 127.235 84.7247 125.764 83.4675C125.497 83.2468 125.248 83.0059 125.019 82.748C123.1 80.5887 120.868 77.9795 117.979 77.9794C115.075 77.9794 112.718 75.635 112.72 72.7308C112.72 72.3334 112.721 71.9359 112.721 71.5384C112.723 69.2625 110.791 67.6247 108.891 66.3709C107 65.2003 105.701 63.1105 105.548 60.8839C105.35 58.7773 106.143 56.6038 107.676 55.1412C107.78 55.0359 107.887 54.9345 107.998 54.8369C110.144 52.9441 112.724 50.7805 112.723 47.9191Z" fill="#FC5AA7"/>
<path d="M112.723 47.9191C112.721 44.9766 115.119 42.5947 118.061 42.591C118.147 42.5909 118.232 42.5908 118.318 42.5907C121.035 42.587 123.077 45.0106 124.814 47.0993C125.87 48.4137 127.4 49.3427 129.061 49.6458C130.637 49.9308 132.316 49.7143 133.734 48.9529C135.47 48.0645 136.784 46.419 137.324 44.5485C137.662 43.496 138.522 42.5878 139.628 42.5893C140.703 42.5907 141.778 42.5906 142.854 42.5903C145.759 42.5894 148.11 44.94 148.108 47.8453C148.108 48.0575 148.108 48.2696 148.108 48.4818C148.107 51.0264 145.892 52.9204 143.858 54.4497C142.392 55.5058 141.347 57.136 141.028 58.917C140.545 61.2149 141.333 63.7224 143.005 65.3651C144.02 66.4002 145.364 67.0917 146.788 67.3529C147.549 67.4569 148.109 68.093 148.109 68.8619C148.108 70.0876 148.108 71.3135 148.109 72.5395C148.11 75.5465 145.674 77.9814 142.667 77.9812C142.22 77.9812 141.774 77.981 141.328 77.9808C139.243 77.9798 137.745 79.7148 136.673 81.5021C135.565 83.5094 133.44 84.8965 131.162 85.127C129.238 85.3422 127.235 84.7247 125.764 83.4675C125.497 83.2468 125.248 83.0059 125.019 82.748C123.1 80.5887 120.868 77.9795 117.979 77.9794C115.075 77.9794 112.718 75.635 112.72 72.7308C112.72 72.3334 112.721 71.9359 112.721 71.5384C112.723 69.2625 110.791 67.6247 108.891 66.3709C107 65.2003 105.701 63.1105 105.548 60.8839C105.35 58.7773 106.143 56.6038 107.676 55.1412C107.78 55.0359 107.887 54.9345 107.998 54.8369C110.144 52.9441 112.724 50.7805 112.723 47.9191Z" fill="url(#paint7_linear)"/>
<path d="M23.6471 31.6566C24.9993 32.1995 26.8227 31.1649 26.3003 29.2083C24.1183 27.9483 21.6905 28.1736 20.3281 28.7883C19.2525 29.2697 18.1359 30.2941 17.6749 31.6566C17.2652 32.8449 17.2959 34.0741 17.6339 35.2829C18.1461 37.0039 19.2525 38.141 21.0349 38.6019C22.1925 38.9093 23.9852 38.9605 25.0608 38.4585C27.6832 37.2293 26.7408 34.7605 25.3169 34.5044C25.0608 34.6478 24.1798 35.2214 23.4832 35.3136C22.4486 35.4673 21.3935 35.0371 21.2295 33.8078C21.1169 33.0292 21.3217 32.1585 22.0388 31.8C22.5408 31.5439 23.0427 31.4927 23.6471 31.6566Z" fill="white"/>
<path d="M35.513 28.4502C34.3349 28.4605 29.9608 28.4092 28.6393 28.4809C26.6622 28.6039 26.5188 30.9907 27.1847 31.841C27.8608 31.9639 28.6291 31.9536 29.3154 31.9127C29.2949 33.8385 29.3871 36.0819 29.4896 36.6556C29.9403 39.0015 32.2247 39.3498 33.1159 38.3971C33.3105 36.9936 33.3925 33.8078 33.3208 31.9127C33.3618 31.9127 33.6179 31.8922 33.9866 31.8717C36.3325 31.7283 36.0662 29.1673 35.513 28.4502Z" fill="white"/>
<path d="M43.8569 35.119C45.9057 33.5927 45.5062 30.2224 43.8774 29.1263C41.8184 27.7434 37.5057 28.3785 36.6145 29.239C36.2867 30.4785 36.3277 35.8258 36.5018 36.7375C36.9423 39.0527 39.2779 39.278 40.1384 38.3458C40.2511 37.2497 40.2408 35.9385 40.2408 35.7541C40.2408 35.7439 40.2408 35.7336 40.2511 35.7336C40.2613 35.7336 40.2818 35.7234 40.292 35.7234C40.3023 35.7132 40.3023 35.7132 40.3125 35.7234C40.4662 35.8156 42.2999 36.2868 43.8569 35.119ZM41.8184 32.22C41.8184 32.6195 41.675 32.8346 41.3677 32.8961C41.1116 32.9371 40.8555 32.9268 40.5994 32.9268C40.5584 32.9268 40.4867 32.8551 40.4867 32.8039C40.4764 32.4556 40.4764 32.1585 40.4764 31.7283C41.1525 31.3288 41.8184 31.7897 41.8184 32.22Z" fill="white"/>
<path d="M45.2527 35.5288C44.8123 37.9361 46.0006 39.5956 48.6128 38.6429C48.7562 38.1 48.9303 37.5673 49.1147 37.1166C49.7908 37.1371 50.5386 37.0961 51.2045 37.1268C52.0445 40.0361 55.2815 38.7249 55.425 37.5673C55.0254 35.3341 53.9191 31.7897 53.3557 30.3863C52.1367 27.4361 48.9713 28.1019 47.5269 28.5936C46.8406 29.9151 45.6727 33.3878 45.2527 35.5288ZM49.5245 34.279C49.7293 33.4083 49.9342 32.5683 50.1186 31.7385C50.1493 31.7385 50.1801 31.7385 50.2211 31.7283C50.4157 32.5683 50.6206 33.4185 50.8357 34.279C50.4054 34.279 49.9854 34.279 49.5245 34.279Z" fill="white"/>
<path d="M62.8534 28.4502C61.6754 28.4605 57.3012 28.4092 55.9798 28.4809C54.0027 28.6039 53.8593 30.9907 54.5251 31.841C55.2012 31.9639 55.9695 31.9536 56.6559 31.9127C56.6354 33.8385 56.7276 36.0819 56.83 36.6556C57.2808 39.0015 59.5652 39.3498 60.4564 38.3971C60.651 36.9936 60.733 33.8078 60.6612 31.9127C60.7022 31.9127 60.9583 31.8922 61.3271 31.8717C63.673 31.7283 63.4066 29.1673 62.8534 28.4502Z" fill="white"/>
<path d="M63.7706 36.3278C63.8525 37.721 64.2725 38.4073 65.2354 38.6532C65.973 38.8273 68.6467 38.8068 69.4969 38.6941C71.4433 38.438 71.7096 36.6658 70.9311 35.5697C69.835 35.5697 68.7389 35.5697 67.6428 35.5697C67.5608 35.5697 67.4789 35.5697 67.4072 35.5697C67.4072 35.3546 67.4072 35.1702 67.4072 34.9449C68.3598 34.9449 68.6672 34.9654 69.1896 34.9449C70.6954 34.8732 71.1667 33.6849 70.552 32.3224C69.6813 32.0458 67.9911 32.1585 67.3969 32.1585C67.3969 31.9536 67.3969 31.7897 67.3969 31.6258C68.7184 31.6258 68.954 31.6258 69.5072 31.6258C71.9759 31.6258 71.7096 29.0853 71.3306 28.5424C69.5072 28.399 65.6452 28.358 63.9345 28.5322C63.7296 30.2634 63.6886 34.9244 63.7706 36.3278Z" fill="white"/>
<path d="M72.1928 36.758C72.4592 38.9195 74.8767 39.0629 75.7577 38.4278C75.9523 36.7478 75.8601 32.5683 75.7884 31.6258C77.1099 31.6258 77.3455 31.6258 77.8987 31.6258C80.3675 31.6258 80.1011 29.0956 79.7221 28.5424C77.8987 28.4092 74.0265 28.3683 72.326 28.5322C72.1211 30.2634 72.0187 35.3239 72.1928 36.758Z" fill="white"/>
<path d="M84.2436 32.8346C84.2436 31.4005 84.3358 31.0214 84.2231 29.8639C84.0797 28.4092 81.5699 27.8048 80.4943 28.9624C80.4431 30.079 80.3612 34.8936 80.5558 36.5429C80.8016 38.5917 82.7787 39.4932 84.4587 38.4073C84.8173 37.8336 86.2412 35.3649 86.4768 34.9961C86.5178 34.9244 86.5587 34.8732 86.5997 34.8117C86.6304 34.8117 86.6509 34.8219 86.6817 34.8219C86.6407 36.0922 86.5997 36.4507 86.6304 37.0756C86.7124 38.6327 88.4948 39.4624 90.2568 38.3151C90.3592 36.4815 90.4924 31.9741 90.39 30.3146C90.2568 28.1941 87.7163 28.1122 86.5587 28.7883C86.0773 29.6078 85.1656 31.2775 84.4177 32.6297C84.3768 32.7014 84.3256 32.7732 84.2846 32.8551C84.2641 32.8449 84.2538 32.8449 84.2436 32.8346Z" fill="white"/>
<path d="M99.6688 29.2595C98.7775 28.3888 94.4648 27.7639 92.4058 29.1468C90.777 30.2327 90.3878 33.6029 92.4263 35.1395C92.498 35.1907 92.5697 35.2419 92.6414 35.2829C92.5083 35.5185 92.3341 35.7746 92.0985 36.1024C90.818 37.8234 92.7746 39.3293 94.3624 38.8785C95.1409 38.1717 95.7248 37.0039 96.0322 36C96.0322 36.1434 96.0322 36.379 96.0731 36.8502C96.2883 39.0527 98.6341 39.1654 99.9351 38.1717C99.9351 36.6658 100.007 30.499 99.6688 29.2595ZM95.8068 31.7488C95.8068 32.179 95.817 32.4658 95.8068 32.8244C95.8068 32.8653 95.7248 32.9473 95.6941 32.9473C95.438 32.9473 95.1717 32.9575 94.9258 32.9063C94.6083 32.8551 94.4648 32.6297 94.4648 32.2302C94.4648 31.8102 95.1409 31.339 95.8068 31.7488Z" fill="white"/>
<path d="M22.0696 45.1003C20.6764 45.1003 18.4022 45.295 17.2549 46.0018C17.132 47.8867 17.2652 52.5681 17.3471 53.7052C17.511 56.2559 20.5842 55.6823 21.1374 55.1598C21.1374 54.0842 21.1374 49.5667 21.1374 48.5525C21.8135 48.5525 22.4076 48.5525 23.0632 48.5525C23.0632 49.0033 23.0735 53.6233 23.1452 54.1559C23.391 56.0511 26.4437 55.672 26.8944 55.1598C26.9252 54.9242 26.9354 54.4223 26.9354 54.0535C26.9354 51.4208 26.9354 48.4808 26.9354 47.4462C26.9354 45.4691 24.272 45.1003 22.0696 45.1003Z" fill="white"/>
<path d="M32.767 45.0081C29.95 45.0184 28.5875 46.555 27.9422 47.9993C27.4607 49.0545 27.3787 50.5706 27.6861 51.892C28.0036 53.2955 28.7514 54.3916 30.0524 55.0574C31.4148 55.7642 32.8592 55.8769 34.3344 55.5184C36.1578 55.0881 37.3563 53.9613 37.9095 52.1789C38.3193 50.8267 38.2066 49.495 37.7251 48.1837C37.4178 47.3745 36.2602 44.9876 32.767 45.0081ZM32.8183 48.6754C33.5456 48.6754 34.2012 49.3413 34.1295 50.4989C34.068 51.6564 33.4022 52.0764 32.8592 52.1072C32.3266 52.1481 31.5378 51.7281 31.4661 50.5398C31.3841 49.3208 32.0602 48.6754 32.8183 48.6754Z" fill="white"/>
<path d="M45.8042 49.1876C44.3701 48.112 42.6594 48.5423 42.5159 48.6345C42.5057 48.6345 42.5057 48.6345 42.4955 48.6345C42.4852 48.6345 42.475 48.6242 42.4647 48.6242C42.4545 48.614 42.4442 48.614 42.4442 48.6037C42.4442 48.5525 42.4442 48.2759 42.4442 48.0711C43.5813 48.0711 43.8067 48.0711 44.3189 48.0711C46.6647 48.0711 46.4189 45.7764 46.0603 45.254C44.3189 45.131 40.795 45.0901 39.1662 45.2437C39.0228 46.4832 38.7154 49.4335 38.992 52.0355C39.1354 53.4491 39.6681 54.4018 40.6925 55.0574C41.973 55.8769 44.6979 55.7335 45.8247 54.7603C47.2077 53.5618 47.7096 50.6115 45.8042 49.1876ZM42.6696 52.3428C42.6081 51.9945 42.6491 51.6257 42.6798 51.3389C43.2535 50.8164 43.9808 51.1954 43.9194 51.892C43.8681 52.4247 43.2945 52.7218 42.6696 52.3428Z" fill="white"/>
<path d="M47.7444 53.0906C47.8264 54.4837 48.2464 55.1701 49.2093 55.4159C49.9469 55.5901 52.6205 55.5696 53.4708 55.4569C55.4171 55.2008 55.6835 53.4286 54.9049 52.3325C53.8088 52.3325 52.7127 52.3325 51.6166 52.3325C51.5347 52.3325 51.4527 52.3325 51.381 52.3325C51.381 52.1174 51.381 51.933 51.381 51.7076C52.3337 51.7076 52.641 51.7281 53.1635 51.7076C54.6693 51.6359 55.1405 50.4476 54.5259 49.0852C53.6552 48.8086 51.9649 48.9213 51.3708 48.9213C51.3708 48.7164 51.3708 48.5525 51.3708 48.3886C52.6922 48.3886 52.9278 48.3886 53.481 48.3886C55.9498 48.3886 55.6835 45.8481 55.3044 45.3052C53.481 45.1618 49.6191 45.1208 47.9083 45.295C47.7034 47.0262 47.6625 51.6872 47.7444 53.0906Z" fill="white"/>
<path d="M68.1274 52.2608C67.7279 52.1481 67.1542 52.0559 66.4884 51.9842C66.0991 50.2018 65.6279 48.3067 65.2488 47.3847C64.0913 44.5779 61.0898 45.213 59.6966 45.674C59.0718 46.893 58.0166 50.0379 57.5966 52.0867C55.5581 52.6194 55.5786 54.4735 55.6093 55.293C55.7015 57.6286 57.5147 58.2535 59.1025 57.2189C59.1332 56.5223 59.0922 55.9794 59.0718 55.4979C60.844 55.5184 63.1591 55.4774 64.6137 55.4159C64.7059 55.4262 64.7981 55.4364 64.9006 55.4364C64.9825 57.895 67.5537 57.6594 68.2401 56.8091C68.4245 55.672 68.445 52.8755 68.1274 52.2608ZM61.4483 51.8306C61.5098 51.5642 61.561 51.3081 61.6123 51.0725C61.8069 50.253 61.9913 49.454 62.1757 48.6652C62.2064 48.6652 62.2371 48.6652 62.2679 48.6652C62.3703 49.4028 62.5444 50.5603 62.7801 51.8203C62.3293 51.8203 61.8786 51.8203 61.4483 51.8306Z" fill="white"/>
<path d="M72.5091 49.5974C72.5091 48.1632 72.6013 47.7842 72.4886 46.6267C72.3452 45.172 69.8354 44.5676 68.7598 45.7252C68.7086 46.8418 68.6267 51.6564 68.8213 53.3057C69.0672 55.3545 71.0442 56.2559 72.7242 55.1701C73.0828 54.5964 74.5067 52.1276 74.7423 51.7589C74.7833 51.6872 74.8242 51.6359 74.8652 51.5745C74.8959 51.5745 74.9164 51.5847 74.9472 51.5847C74.9062 52.855 74.8652 53.2135 74.8959 53.8384C74.9779 55.3955 76.7603 56.2252 78.5223 55.0779C78.6247 53.2442 78.7579 48.7369 78.6555 47.0774C78.5223 44.9569 75.9818 44.875 74.8242 45.551C74.3428 46.3706 73.4311 48.0403 72.6833 49.3925C72.6423 49.4642 72.5911 49.5359 72.5501 49.6179C72.5296 49.6076 72.5194 49.6076 72.5091 49.5974Z" fill="white"/>
<path d="M87.883 45.213C86.705 45.2232 82.3308 45.172 81.0094 45.2437C79.0323 45.3667 78.8889 47.7535 79.5547 48.6037C80.2308 48.7267 80.9991 48.7164 81.6855 48.6754C81.665 50.6013 81.7572 52.8447 81.8596 53.4184C82.3103 55.7642 84.5947 56.1125 85.486 55.1598C85.6806 53.7564 85.7625 50.5706 85.6908 48.6754C85.7318 48.6754 85.9879 48.655 86.3567 48.6345C88.7025 48.4911 88.4362 45.9301 87.883 45.213Z" fill="white"/>
<path d="M88.8001 53.0906C88.8821 54.4837 89.3021 55.1701 90.265 55.4159C91.0026 55.5901 93.6763 55.5696 94.5265 55.4569C96.4728 55.2008 96.7392 53.4286 95.9607 52.3325C94.8646 52.3325 93.7685 52.3325 92.6724 52.3325C92.5904 52.3325 92.5084 52.3325 92.4367 52.3325C92.4367 52.1174 92.4367 51.933 92.4367 51.7076C93.3894 51.7076 93.6967 51.7281 94.2192 51.7076C95.725 51.6359 96.1963 50.4476 95.5816 49.0852C94.7109 48.8086 93.0206 48.9213 92.4265 48.9213C92.4265 48.7164 92.4265 48.5525 92.4265 48.3886C93.748 48.3886 93.9836 48.3886 94.5367 48.3886C97.0055 48.3886 96.7392 45.8481 96.3602 45.3052C94.5367 45.1618 90.6748 45.1208 88.9641 45.295C88.7592 47.0262 88.7182 51.6872 88.8001 53.0906Z" fill="white"/>
<path d="M101.453 50.9906C101.443 50.9906 101.433 50.9906 101.422 50.9906C101.433 50.9906 101.443 50.9906 101.453 50.9906ZM105.233 47.1389C104.024 44.2091 100.869 44.875 99.4044 45.3462C98.7283 46.6676 97.5605 50.1096 97.1507 52.2301C96.6897 54.6272 97.8985 56.2764 100.5 55.3237C100.654 54.7706 101.074 52.4759 101.422 50.9906C101.617 50.1301 101.812 49.3003 102.006 48.4706C102.047 48.4706 102.078 48.4706 102.109 48.4706C102.262 49.6793 102.631 51.892 103.082 54.0228C103.594 56.3789 106.616 55.6003 107.005 54.2481C106.596 52.0457 105.807 48.532 105.233 47.1389Z" fill="white"/>
<path d="M115.32 46.0223C114.429 45.1515 110.116 44.5267 108.057 45.9096C106.428 46.9954 106.039 50.3657 108.077 51.9023C108.149 51.9535 108.221 52.0047 108.292 52.0457C108.159 52.2813 107.985 52.5374 107.749 52.8652C106.469 54.5862 108.426 56.092 110.013 55.6413C110.792 54.9345 111.376 53.7667 111.683 52.7628C111.683 52.9062 111.683 53.1418 111.724 53.613C111.939 55.8155 114.285 55.9281 115.586 54.9345C115.586 53.4286 115.658 47.2618 115.32 46.0223ZM111.458 48.5115C111.458 48.9418 111.468 49.2286 111.458 49.5872C111.458 49.6281 111.376 49.7101 111.345 49.7101C111.089 49.7101 110.823 49.7203 110.577 49.6691C110.259 49.6179 110.116 49.3925 110.116 48.993C110.116 48.573 110.792 48.1018 111.458 48.5115Z" fill="white"/>
<path d="M126.724 47.692C128.086 46.5345 126.498 44.7213 124.91 45.172C124.214 45.6432 123.507 46.3501 122.984 47.0057C121.796 48.5628 121.1 50.294 121.407 52.3018C121.602 53.572 122.226 54.5657 123.384 55.1598C124.552 55.7745 125.761 55.7642 126.98 55.3545C127.861 55.0574 128.516 54.494 128.885 53.6233C129.182 52.9164 129.233 52.1789 129.131 51.4208C128.905 49.6691 127.42 48.4603 125.607 49.0033C125.566 49.0135 125.525 49.0135 125.412 49.0237C125.914 48.3989 126.201 48.1325 126.724 47.692ZM126.14 52.0559C126.14 52.5579 125.853 52.855 125.382 52.8652C124.91 52.8652 124.624 52.5579 124.624 52.0355C124.624 51.554 124.951 51.2159 125.402 51.2159C125.832 51.2159 126.14 51.554 126.14 52.0559Z" fill="white"/>
<path d="M138.429 48.655C137.845 48.573 137.117 48.5115 136.339 48.4706C136.329 48.3784 136.318 48.3067 136.308 48.235C135.847 45.8686 133.542 45.5306 132.672 46.4832C132.59 47.0467 132.528 47.7535 132.487 48.5013C132.374 48.5115 132.272 48.5218 132.18 48.5423C129.65 48.9315 129.65 51.2876 130.52 52.2608C130.951 52.3735 131.688 52.435 132.518 52.4555C132.528 52.5579 132.538 52.6501 132.549 52.732C132.938 55.2623 135.294 55.252 136.267 54.3916C136.39 53.9511 136.452 53.1828 136.472 52.3325C136.544 52.3223 136.615 52.312 136.667 52.3018C139.043 51.8408 139.381 49.5359 138.429 48.655Z" fill="white"/>
<defs>
<linearGradient id="paint0_linear" x1="7.26692" y1="0" x2="7.26692" y2="42.4168" gradientUnits="userSpaceOnUse">
<stop stop-color="#FFDC66"/>
<stop offset="1" stop-color="#FFB32B"/>
</linearGradient>
<linearGradient id="paint1_linear" x1="77.3909" y1="0" x2="77.3909" y2="42.4168" gradientUnits="userSpaceOnUse">
<stop stop-color="#FFDC66"/>
<stop offset="1" stop-color="#FFB32B"/>
</linearGradient>
<linearGradient id="paint2_linear" x1="73.4912" y1="49.2481" x2="73.4912" y2="3.48163" gradientUnits="userSpaceOnUse">
<stop stop-color="#31C0EB"/>
<stop offset="1" stop-color="#16D3AF"/>
</linearGradient>
<linearGradient id="paint3_linear" x1="145.482" y1="49.2481" x2="145.482" y2="9.20946" gradientUnits="userSpaceOnUse">
<stop stop-color="#31C0EB"/>
<stop offset="1" stop-color="#16D3AF"/>
</linearGradient>
<linearGradient id="paint4_linear" x1="-2.25914" y1="91.6242" x2="67.6178" y2="82.801" gradientUnits="userSpaceOnUse">
<stop stop-color="#696CFF"/>
<stop offset="1" stop-color="#B992FF"/>
</linearGradient>
<linearGradient id="paint5_linear" x1="67.8651" y1="91.6242" x2="137.742" y2="82.801" gradientUnits="userSpaceOnUse">
<stop stop-color="#696CFF"/>
<stop offset="1" stop-color="#B992FF"/>
</linearGradient>
<linearGradient id="paint6_linear" x1="35.394" y1="42.5747" x2="35.394" y2="85.1691" gradientUnits="userSpaceOnUse">
<stop stop-color="#FF9393"/>
<stop offset="1" stop-color="#FF2B2B"/>
</linearGradient>
<linearGradient id="paint7_linear" x1="105.518" y1="42.5747" x2="105.518" y2="85.1691" gradientUnits="userSpaceOnUse">
<stop stop-color="#FF9393"/>
<stop offset="1" stop-color="#FF2B2B"/>
</linearGradient>
</defs>
</svg>
