<svg width="44" height="40" viewBox="0 0 47 45" fill="none" xmlns="http://www.w3.org/2000/svg">
<path d="M32.9414 15.2941L43.4561 16.293C47.1148 16.6406 48.2368 20.1796 45.4117 22.5046L37.1798 29.2794L40.2357 40.316C41.2393 43.9404 38.1257 46.1345 35.0071 43.9532L25.0048 36.9571L15.0025 43.9532C11.8966 46.1257 8.77021 43.9409 9.77393 40.316L12.8299 29.2794L4.598 22.5046C1.76097 20.1698 2.87862 16.6421 6.55297 16.293L17.0658 15.2941L21.6975 4.71965C23.1479 1.40816 26.8626 1.40982 28.3118 4.71999L32.9414 15.2941Z" fill="#FF8721"/>
<path d="M29.9414 13.2662L40.4561 14.2652C44.1148 14.6128 45.2368 18.1517 42.4117 20.4768L34.1798 27.2515L37.2357 38.2881C38.2393 41.9126 35.1257 44.1067 32.0071 41.9254L22.0048 34.9292L12.0025 41.9254C8.89655 44.0979 5.77021 41.9131 6.77393 38.2881L9.82988 27.2515L1.598 20.4768C-1.23903 18.142 -0.121382 14.6143 3.55297 14.2652L14.0658 13.2662L18.6975 2.69181C20.1479 -0.619675 23.8626 -0.618015 25.3118 2.69216L29.9414 13.2662Z" fill="#FFD100"/>
</svg>
