<svg width="31" height="22" viewBox="0 0 31 22" fill="none" xmlns="http://www.w3.org/2000/svg">
<mask id="mask0" mask-type="alpha" maskUnits="userSpaceOnUse" x="0" y="0" width="31" height="22">
<rect width="31" height="21.8824" rx="8" fill="#C4C4C4"/>
</mask>
<g mask="url(#mask0)">
<path fill-rule="evenodd" clip-rule="evenodd" d="M-0.911621 8.00001C-0.911621 3.58173 2.6701 0 7.08838 0H23.9119C28.3302 0 31.9119 3.58172 31.9119 8V13.8823C31.9119 18.3006 28.3302 21.8824 23.9119 21.8824H7.08837C2.6701 21.8824 -0.911621 18.3006 -0.911621 13.8824V8.00001Z" fill="white"/>
<path d="M15.5026 17.7441C19.2592 17.7441 22.3046 14.6988 22.3046 10.9422C22.3046 7.18559 19.2592 4.14026 15.5026 4.14026C11.746 4.14026 8.70068 7.18559 8.70068 10.9422C8.70068 14.6988 11.746 17.7441 15.5026 17.7441Z" fill="#D30000"/>
</g>
</svg>
