  <svg width="29" height="21" viewBox="0 0 29 21" fill="none" xmlns="http://www.w3.org/2000/svg">
<mask id="mask0" mask-type="alpha" maskUnits="userSpaceOnUse" x="0" y="0" width="29" height="21">
<rect width="28.8333" height="20.3529" rx="5" fill="#C4C4C4"/>
</mask>
<g mask="url(#mask0)">
<path fill-rule="evenodd" clip-rule="evenodd" d="M0 -0.56543H28.8333V21.0596H0V-0.56543Z" fill="#6FDCFF"/>
<path fill-rule="evenodd" clip-rule="evenodd" d="M2.71223 20.474C2.8609 20.6182 2.81134 20.857 3.22132 20.8254C3.84303 20.8254 3.86105 20.447 3.86105 20.1812C3.86105 19.9154 2.92848 19.5459 2.88342 19.154C2.83837 18.762 3.09967 18.6584 3.31592 18.6584C3.52767 18.6584 3.67634 18.7801 3.67634 18.8882C3.67634 18.9963 3.57723 19.0323 3.42405 19.0323C3.27087 19.0323 3.49163 18.9558 3.36098 18.8972C3.23033 18.8386 3.14473 18.9873 3.14473 19.0774C3.14473 19.1765 3.4691 19.2035 3.68535 19.136C3.7304 19.3477 3.74842 19.3612 3.44658 19.7216C3.66283 19.582 3.68085 19.5504 3.91962 19.6315C3.68085 19.4243 3.86105 19.0098 3.86556 18.9062C3.87007 18.8026 3.82051 18.6764 3.7304 18.6134C3.5547 18.4557 3.18077 18.4467 2.95551 18.5503C2.62663 18.6945 2.60861 19.127 2.69421 19.2711L3.60426 20.1902C3.66733 20.2983 3.69436 20.6047 3.30691 20.6182C2.90145 20.6497 2.75728 20.0956 2.6852 19.9109C2.59059 20.1136 2.48246 20.6677 2.07249 20.6362C1.68504 20.6227 1.61296 20.3208 1.67603 20.2082L2.60861 19.2621C2.69871 19.1179 2.68069 18.6854 2.35181 18.5413C2.12655 18.4377 1.75262 18.4512 1.58142 18.6044C1.4823 18.6674 1.42824 18.7891 1.43725 18.8972C1.44626 19.0053 1.62197 19.4153 1.3877 19.618C1.62197 19.5414 1.64449 19.573 1.86074 19.7081C1.55889 19.3522 1.58142 19.3387 1.62197 19.1224C1.83822 19.1945 2.16259 19.1675 2.16259 19.0729C2.16259 18.9783 2.07249 18.8206 1.94184 18.8837C1.81569 18.9467 2.03194 19.0233 1.87876 19.0233C1.73009 19.0233 1.62197 18.9918 1.62197 18.8882C1.62197 18.7846 1.77064 18.6494 1.98689 18.6494C2.20314 18.6494 2.45993 18.7575 2.41488 19.1495C2.36983 19.5414 1.42374 19.9649 1.42374 20.2307C1.42374 20.501 1.48681 20.8209 2.10853 20.8209C2.514 20.8524 2.56355 20.6137 2.71223 20.4695V20.474Z" fill="#FFE400"/>
<path fill-rule="evenodd" clip-rule="evenodd" d="M2.66259 14.901C2.81126 14.7568 2.9329 14.3333 3.33837 14.3604C3.96009 14.3604 4.19436 14.7073 4.19436 14.9731C4.19436 15.2389 2.9329 17.4059 2.88785 17.7978C2.84279 18.1898 3.1041 18.2979 3.31584 18.2979C3.53209 18.2979 3.68076 18.1763 3.68076 18.0636C3.68076 17.951 3.57264 17.9285 3.42397 17.9285C3.27529 17.9285 3.48704 18.0051 3.36089 18.0636C3.23475 18.1222 3.14464 17.9735 3.14464 17.8789C3.14464 17.7843 3.46902 17.7528 3.68527 17.8249C3.72582 17.6131 3.74384 17.5996 3.44649 17.2392C3.66274 17.3743 3.68076 17.4104 3.91954 17.3293C3.68076 17.5365 3.85647 17.9465 3.86548 18.0501C3.87449 18.1537 3.82042 18.2844 3.72582 18.3475C3.55462 18.5052 3.17618 18.5097 2.95092 18.4105C2.62654 18.2619 2.60852 17.8339 2.69412 17.6897L3.91954 15.0497C3.98712 14.9415 3.81592 14.5811 3.42847 14.5676C3.023 14.5361 2.88334 14.9641 2.81126 15.1488L3.3654 15.1037C3.3654 15.1037 3.38792 15.1938 3.3654 15.2479C3.17948 15.2615 2.99447 15.2855 2.81126 15.32L2.78873 15.5993H3.05904L3.04102 15.7254C3.04102 15.7254 2.81126 15.7074 2.78873 15.7254C2.76621 15.739 2.74368 16.0048 2.74368 16.0048C2.74368 16.0048 2.69863 16.0228 2.65358 16.0228C2.60852 16.0228 2.56347 16.0048 2.56347 16.0048C2.56347 16.0048 2.54545 15.739 2.52292 15.7254C2.5004 15.7074 2.27063 15.7254 2.27063 15.7254L2.24811 15.5993H2.52292L2.5004 15.32C2.5004 15.32 2.23009 15.2659 1.94626 15.2479C1.92824 15.1938 1.94626 15.1082 1.94626 15.1082L2.5004 15.1488C2.42831 14.9641 2.28865 14.5361 1.88318 14.5631C1.49574 14.5811 1.32454 14.9415 1.38761 15.0497L2.61303 17.6897C2.69863 17.8294 2.68061 18.2619 2.35623 18.4105C2.13097 18.5097 1.75253 18.5006 1.58133 18.3475C1.48673 18.2844 1.43266 18.1583 1.44167 18.0546C1.45068 17.951 1.62188 17.532 1.38761 17.3338C1.62639 17.4104 1.64891 17.3789 1.86066 17.2392C1.56331 17.5996 1.58133 17.6131 1.62639 17.8249C1.83813 17.7528 2.16251 17.7798 2.16251 17.8789C2.16251 17.969 2.0724 18.1267 1.94626 18.0636C1.82011 18.0006 2.03636 17.9285 1.88318 17.9285C1.73451 17.9285 1.62639 17.9555 1.62639 18.0636C1.62639 18.1718 1.77506 18.2979 1.9868 18.2979C2.19855 18.2979 2.45985 18.1898 2.4193 17.8023C2.37425 17.4104 1.11279 15.2344 1.11279 14.9731C1.11279 14.7028 1.34706 14.3649 1.96878 14.3649C2.37425 14.3333 2.52292 14.7568 2.66709 14.901H2.66259Z" fill="#FFE400"/>
<path fill-rule="evenodd" clip-rule="evenodd" d="M2.66259 13.8242C2.81126 13.9684 2.9329 14.3919 3.33837 14.3648C3.96009 14.3648 4.19436 14.0179 4.19436 13.7521C4.19436 13.4863 2.9329 11.3193 2.88785 10.9274C2.84279 10.5354 3.1041 10.4273 3.31584 10.4273C3.53209 10.4273 3.68076 10.5489 3.68076 10.6616C3.68076 10.7742 3.57264 10.7967 3.42397 10.7967C3.27529 10.7967 3.48704 10.7246 3.36089 10.6616C3.23475 10.5985 3.14464 10.7517 3.14464 10.8463C3.14464 10.9409 3.46902 10.9724 3.68527 10.9003C3.72582 11.1121 3.74384 11.1256 3.44649 11.486C3.66274 11.3508 3.68076 11.3148 3.91954 11.3959C3.68076 11.1887 3.85647 10.7787 3.86548 10.6751C3.87449 10.5714 3.82042 10.4408 3.72582 10.3777C3.55462 10.2245 3.17618 10.2155 2.95092 10.3147C2.62654 10.4633 2.60852 10.8913 2.69412 11.0355L3.91954 13.671C3.98712 13.7792 3.81592 14.1396 3.42847 14.1531C3.023 14.1846 2.88334 13.7566 2.81126 13.5719L3.3654 13.617C3.3654 13.617 3.38792 13.5269 3.3654 13.4728C3.17948 13.4592 2.99447 13.4352 2.81126 13.4007L2.78873 13.1214H3.05904L3.04102 12.9953C3.04102 12.9953 2.81126 13.0133 2.78873 12.9953C2.76621 12.9817 2.74368 12.7159 2.74368 12.7159C2.74368 12.7159 2.69863 12.6979 2.65358 12.6979C2.60852 12.6979 2.56347 12.7159 2.56347 12.7159C2.56347 12.7159 2.54545 12.9817 2.52292 12.9953C2.5004 13.0133 2.27063 12.9953 2.27063 12.9953L2.24811 13.1214H2.52292L2.5004 13.4007C2.5004 13.4007 2.23009 13.4548 1.94626 13.4728C1.92824 13.5269 1.94626 13.6125 1.94626 13.6125L2.5004 13.5719C2.42831 13.7566 2.28865 14.1846 1.88318 14.1576C1.49574 14.1396 1.32454 13.7792 1.38761 13.671L2.61303 11.0355C2.69863 10.8913 2.68061 10.4633 2.35623 10.3147C2.13097 10.2155 1.75253 10.2245 1.58133 10.3777C1.48673 10.4408 1.43266 10.5669 1.44167 10.6706C1.45068 10.7742 1.62188 11.1887 1.38761 11.3914C1.62639 11.3148 1.64891 11.3463 1.86066 11.486C1.56331 11.1256 1.58133 11.1121 1.62639 10.9003C1.83813 10.9724 2.16251 10.9454 2.16251 10.8463C2.16251 10.7562 2.0724 10.5985 1.94626 10.6616C1.82011 10.7246 2.03636 10.7967 1.88318 10.7967C1.73451 10.7967 1.62639 10.7697 1.62639 10.6616C1.62639 10.5534 1.77506 10.4273 1.9868 10.4273C2.19855 10.4273 2.45985 10.5354 2.4193 10.9229C2.37425 11.3148 1.11279 13.4908 1.11279 13.7521C1.11279 14.0224 1.34706 14.3603 1.96878 14.3603C2.37425 14.3919 2.52292 13.9684 2.66709 13.8242H2.66259Z" fill="#FFE400"/>
<path fill-rule="evenodd" clip-rule="evenodd" d="M2.66259 6.67004C2.81126 6.52587 2.9329 6.10238 3.33837 6.12941C3.96009 6.12941 4.19436 6.47631 4.19436 6.74212C4.19436 7.00793 2.9329 9.17493 2.88785 9.57139C2.84279 9.95883 3.1041 10.067 3.31584 10.067C3.53209 10.067 3.68076 9.94532 3.68076 9.83719C3.68076 9.72907 3.57264 9.69303 3.42397 9.69303C3.27529 9.69303 3.48704 9.77412 3.36089 9.83719C3.23475 9.90027 3.14464 9.74258 3.14464 9.64798C3.14464 9.55787 3.46902 9.52183 3.68527 9.59391C3.72582 9.38217 3.74384 9.36865 3.44649 9.00824C3.66274 9.1479 3.68076 9.17943 3.91954 9.09834C3.68076 9.30558 3.85647 9.72006 3.86548 9.81917C3.87449 9.91829 3.82042 10.0534 3.72582 10.1165C3.55462 10.2742 3.17618 10.2787 2.95092 10.1796C2.62654 10.0309 2.60852 9.60292 2.69412 9.45876L3.91954 6.82321C3.98712 6.71509 3.81592 6.35467 3.42847 6.34116C3.023 6.30962 2.88334 6.73761 2.81126 6.92233L3.3654 6.87727C3.3654 6.87727 3.38792 6.96738 3.3654 7.02144C3.07706 7.03946 2.81126 7.09352 2.81126 7.09352L2.78873 7.37285H3.05904L3.04102 7.49899C3.04102 7.49899 2.81126 7.48548 2.78873 7.49899C2.76621 7.51251 2.74368 7.78282 2.74368 7.78282C2.74368 7.78282 2.69863 7.79634 2.65358 7.79634C2.60852 7.79634 2.56347 7.78282 2.56347 7.78282C2.56347 7.78282 2.54545 7.51251 2.52292 7.49899C2.5004 7.48548 2.27063 7.49899 2.27063 7.49899L2.24811 7.37285H2.52292L2.5004 7.09352C2.5004 7.09352 2.23009 7.03946 1.94626 7.02144C1.92824 6.96738 1.94626 6.88178 1.94626 6.88178L2.5004 6.92233C2.42831 6.73761 2.28865 6.30962 1.88318 6.33665C1.49574 6.35467 1.32454 6.71509 1.38761 6.82321L2.61303 9.45876C2.69863 9.60292 2.68061 10.0309 2.35623 10.1796C2.13097 10.2787 1.75253 10.2697 1.58133 10.1165C1.48673 10.0534 1.43266 9.9273 1.44167 9.82368C1.45068 9.72006 1.62188 9.30558 1.38761 9.10285C1.62639 9.17943 1.64891 9.1479 1.86066 9.00824C1.56331 9.36865 1.58133 9.38217 1.62639 9.59391C1.83813 9.52183 2.16251 9.55337 2.16251 9.64798C2.16251 9.73808 2.0724 9.89576 1.94626 9.83269C1.82011 9.77412 2.03636 9.69753 1.88318 9.69753C1.73451 9.69753 1.62639 9.72456 1.62639 9.83269C1.62639 9.94081 1.77506 10.067 1.9868 10.067C2.19855 10.067 2.45985 9.95883 2.4193 9.57139C2.37425 9.17943 1.11279 7.00793 1.11279 6.74212C1.11279 6.47631 1.34706 6.13392 1.96878 6.13392C2.37425 6.10238 2.52292 6.52587 2.66709 6.67454L2.66259 6.67004Z" fill="#FFE400"/>
<path fill-rule="evenodd" clip-rule="evenodd" d="M2.66259 5.59325C2.81126 5.73742 2.9329 6.16542 3.33837 6.13388C3.96009 6.13388 4.19436 5.78698 4.19436 5.52117C4.19436 5.25536 2.9329 3.08836 2.88785 2.6964C2.84279 2.30445 3.1041 2.19632 3.31584 2.19632C3.53209 2.19632 3.68076 2.32247 3.68076 2.4306C3.68076 2.53872 3.57264 2.57026 3.42397 2.57026C3.27529 2.57026 3.48704 2.49367 3.36089 2.4306C3.23475 2.36752 3.14464 2.5207 3.14464 2.61531C3.14464 2.70992 3.46902 2.74146 3.68527 2.66937C3.72582 2.88112 3.74384 2.89463 3.44649 3.25505C3.66274 3.11989 3.68076 3.08385 3.91954 3.16495C3.68076 2.96221 3.85647 2.54773 3.86548 2.44411C3.87449 2.34049 3.82042 2.20984 3.72582 2.14677C3.55462 1.99359 3.17618 1.98458 2.95092 2.0882C2.62654 2.23237 2.60852 2.66487 2.69412 2.80453L3.91954 5.44458C3.98712 5.55271 3.81592 5.91312 3.42847 5.93115C3.023 5.95818 2.88334 5.53469 2.81126 5.34547L3.3654 5.39052C3.3654 5.39052 3.38792 5.30042 3.3654 5.24635C3.17957 5.23412 2.99458 5.21156 2.81126 5.17877L2.78873 4.89495H3.05904L3.04102 4.7688C3.04102 4.7688 2.81126 4.78682 2.78873 4.7688C2.76621 4.75529 2.74368 4.48948 2.74368 4.48948C2.74368 4.48948 2.69863 4.47146 2.65358 4.47146C2.60852 4.47146 2.56347 4.48948 2.56347 4.48948C2.56347 4.48948 2.54545 4.75529 2.52292 4.7688C2.5004 4.78682 2.27063 4.7688 2.27063 4.7688L2.24811 4.89495H2.52292L2.5004 5.17877C2.5004 5.17877 2.23009 5.22833 1.94626 5.24635C1.92824 5.30492 1.94626 5.39052 1.94626 5.39052L2.5004 5.34547C2.42831 5.53469 2.28865 5.95818 1.88318 5.93115C1.49574 5.91312 1.32454 5.55271 1.38761 5.44458L2.61303 2.80453C2.69863 2.66487 2.68061 2.23237 2.35623 2.08369C2.13097 1.98458 1.75253 1.99359 1.58133 2.14677C1.48673 2.20984 1.43266 2.33599 1.44167 2.43961C1.45068 2.54323 1.62188 2.96221 1.38761 3.16044C1.62639 3.08385 1.64891 3.11539 1.86066 3.25505C1.56331 2.89463 1.58133 2.88112 1.62639 2.66937C1.84264 2.74146 2.16251 2.71442 2.16251 2.61531C2.16251 2.5252 2.0724 2.36752 1.94626 2.4306C1.82011 2.49367 2.03636 2.57026 1.88318 2.57026C1.73451 2.57026 1.62639 2.53872 1.62639 2.4306C1.62639 2.32247 1.77506 2.19632 1.9868 2.19632C2.19855 2.19632 2.46436 2.30445 2.4193 2.6919C2.37425 3.08385 1.11279 5.25987 1.11279 5.52117C1.11279 5.79148 1.34706 6.13388 1.96878 6.13388C2.37425 6.16542 2.52292 5.73742 2.66709 5.59325H2.66259Z" fill="#FFE400"/>
<path fill-rule="evenodd" clip-rule="evenodd" d="M2.71223 0.0202584C2.8609 -0.123908 2.81134 -0.362684 3.22132 -0.331148C3.84303 -0.331148 3.86105 0.0472896 3.86105 0.313097C3.86105 0.578904 2.92848 0.948331 2.88342 1.34028C2.83837 1.73224 3.09967 1.83586 3.31592 1.83586C3.52767 1.83586 3.67634 1.71422 3.67634 1.60609C3.67634 1.49797 3.57723 1.46192 3.42405 1.46192C3.27087 1.46192 3.49163 1.53851 3.36098 1.59708C3.23033 1.65565 3.14473 1.50698 3.14473 1.41687C3.14473 1.31776 3.4691 1.28622 3.68535 1.35831C3.7304 1.14656 3.74842 1.13304 3.44658 0.772628C3.66283 0.91229 3.68085 0.943826 3.91962 0.862732C3.68085 1.06997 3.86105 1.48445 3.86556 1.58807C3.87007 1.69169 3.82051 1.81784 3.7304 1.88091C3.5502 2.0476 3.17626 2.0476 2.951 1.94849C2.62212 1.80432 2.6041 1.37182 2.6897 1.22765L3.60426 0.304086C3.66733 0.195961 3.69436 -0.110393 3.30691 -0.123908C2.90145 -0.155445 2.75728 0.398696 2.6852 0.583409C2.59059 0.380675 2.48246 -0.177971 2.07249 -0.146434C1.68504 -0.132919 1.61296 0.16893 1.67603 0.28156L2.60861 1.22765C2.69871 1.37182 2.68069 1.80432 2.35181 1.94849C2.12655 2.05211 1.75262 2.0431 1.58142 1.88541C1.4823 1.82234 1.42824 1.7007 1.43725 1.59258C1.44626 1.48445 1.62197 1.07448 1.3877 0.871743C1.62197 0.948331 1.64449 0.916795 1.85624 0.781638C1.55889 1.13755 1.58142 1.15107 1.62197 1.36732C1.83822 1.29523 2.16259 1.32226 2.16259 1.41687C2.16259 1.51148 2.07249 1.66916 1.94184 1.60609C1.81569 1.54302 2.03194 1.46643 1.87876 1.46643C1.73009 1.46643 1.62197 1.49797 1.62197 1.60159C1.62197 1.70521 1.77064 1.84036 1.98689 1.84036C2.20314 1.84036 2.45993 1.73224 2.41488 1.34028C2.36983 0.948331 1.42374 0.524842 1.42374 0.259034C1.42374 -0.0112782 1.48681 -0.331148 2.10853 -0.331148C2.514 -0.362684 2.56355 -0.123908 2.71223 0.0202584Z" fill="#FFE400"/>
<path d="M19.8912 8.71135C19.8912 6.5696 18.0592 4.83337 15.7992 4.83337C13.5393 4.83337 11.7073 6.5696 11.7073 8.71135C11.7073 10.8531 13.5393 12.5893 15.7992 12.5893C18.0592 12.5893 19.8912 10.8531 19.8912 8.71135Z" fill="#FFE400"/>
<path fill-rule="evenodd" clip-rule="evenodd" d="M15.607 2.52056C15.5686 2.52056 15.3859 3.80921 15.3185 4.09771C15.2512 4.74685 16.1841 4.72281 16.0302 4.07367L15.607 2.51575V2.52056ZM15.934 15.0128C15.9677 15.0128 16.2466 13.7386 16.3379 13.4549C16.4485 12.8154 15.5157 12.7817 15.6167 13.4356L15.934 15.0128ZM9.41382 8.68494C9.41382 8.7186 10.7554 8.98787 11.0535 9.07442C11.7267 9.18501 11.7747 8.30507 11.0823 8.40124L9.41382 8.68975V8.68494ZM22.4783 8.83881C22.4783 8.80515 21.1223 8.58396 20.8194 8.50703C20.1414 8.42528 20.1366 9.30522 20.8194 9.18501L22.4783 8.83881ZM10.789 4.59779C10.765 4.62183 11.6497 5.62198 11.8276 5.86721C12.2892 6.34805 12.8999 5.67487 12.2892 5.3479L10.789 4.6026V4.59779ZM20.9396 12.8202C20.9636 12.7961 19.9923 11.8729 19.7904 11.6469C19.2855 11.2045 18.7421 11.921 19.3768 12.1999L20.9396 12.825V12.8202ZM12.8134 3.20335C12.7845 3.21778 13.198 4.45835 13.2654 4.75166C13.4962 5.36233 14.3328 4.96323 13.9001 4.43911L12.8182 3.20335H12.8134ZM18.7325 14.3781C18.7662 14.3637 18.444 13.0991 18.4007 12.8057C18.2132 12.1807 17.3525 12.5172 17.742 13.075L18.7373 14.3733L18.7325 14.3781ZM20.1895 4.06886C20.1606 4.04482 19.0931 4.86706 18.8335 5.03055C18.319 5.4633 19.0162 6.04993 19.372 5.47773L20.1895 4.06886ZM11.3901 13.3828C11.4141 13.4068 12.5441 12.6615 12.8134 12.5124C13.3567 12.1181 12.7076 11.4834 12.3085 12.0316L11.3949 13.3828H11.3901ZM9.70713 6.45384C9.6927 6.48269 10.8611 7.16067 11.116 7.33858C11.717 7.65113 12.0681 6.8337 11.3805 6.70387L9.70713 6.45384ZM21.9061 11.1853C21.9205 11.1565 20.8001 10.4015 20.5597 10.2092C19.9827 9.85338 19.574 10.6468 20.252 10.8199L21.9061 11.1853ZM18.0305 2.87157C17.9968 2.86195 17.3285 3.99674 17.1505 4.24197C17.1509 4.32028 17.1757 4.39652 17.2216 4.46C17.2674 4.52349 17.332 4.57102 17.4062 4.59595C17.4805 4.62087 17.5606 4.62193 17.6355 4.59898C17.7104 4.57602 17.7762 4.53021 17.8237 4.46796L18.0305 2.87157ZM13.5154 14.6185C13.549 14.6329 14.2992 13.5414 14.4915 13.3058C14.8425 12.748 13.9914 12.3922 13.8327 13.0366L13.5154 14.6185ZM9.78887 11.2863C9.8033 11.3151 11.1352 10.9978 11.4478 10.9497C12.1017 10.767 11.7363 9.95917 11.1593 10.3342L9.78887 11.2863ZM21.9109 6.34805C21.9012 6.3192 20.5501 6.5452 20.2375 6.57405C19.5644 6.71349 19.8769 7.54534 20.478 7.20876L21.9109 6.34805Z" fill="#FFE400"/>
<path fill-rule="evenodd" clip-rule="evenodd" d="M16.9343 2.60222C16.9006 2.59741 16.4486 3.82356 16.314 4.09283C16.1168 4.71792 17.0352 4.87179 17.0208 4.20823L16.9391 2.59741L16.9343 2.60222ZM14.6022 14.9069C14.6359 14.9166 15.1792 13.7193 15.3331 13.4548C15.5735 12.8489 14.6695 12.6374 14.6359 13.2961L14.5974 14.9069H14.6022ZM14.1358 2.72243C14.1021 2.73205 14.2271 4.03032 14.2271 4.32844C14.3185 4.96796 15.2177 4.74677 14.9195 4.15053L14.1358 2.72243ZM17.4055 14.8348C17.4392 14.83 17.4055 13.5269 17.4295 13.2288C17.3863 12.5797 16.4679 12.7432 16.7275 13.3586L17.4007 14.8348H17.4055ZM11.8181 3.79951C11.7893 3.81875 12.4288 4.96796 12.549 5.24204C12.8952 5.80462 13.6405 5.2757 13.1164 4.82851L11.8181 3.79951ZM19.7424 13.7962C19.7712 13.777 19.2135 12.5845 19.1173 12.3056C18.8144 11.7238 18.0354 12.2046 18.521 12.6806L19.7424 13.7962ZM10.1256 5.41514C10.1063 5.44399 11.1401 6.29989 11.3565 6.52107C11.8903 6.92498 12.3855 6.17487 11.7316 5.93926L10.1256 5.41514ZM21.3869 12.1325C21.4061 12.1036 20.4396 11.1804 20.2376 10.9496C19.7376 10.5121 19.1894 11.2285 19.8241 11.5074L21.3869 12.1325ZM9.38507 7.42986C9.37546 7.46352 10.6497 7.94917 10.9286 8.08861C11.5729 8.30499 11.7797 7.44429 11.0776 7.42505L9.38507 7.42986ZM22.2428 10.2091C22.2572 10.1803 21.0214 9.61288 20.7521 9.4542C20.1271 9.19455 19.853 10.0408 20.5502 10.1081L22.2428 10.2091ZM9.3418 9.90619C9.34661 9.93504 10.7218 9.91581 11.0344 9.93985C11.7171 9.90619 11.5537 9.03587 10.8997 9.27148L9.3418 9.90619ZM22.3341 7.74241C22.3341 7.70875 20.9589 7.63662 20.6512 7.59335C19.9636 7.58373 20.0645 8.46367 20.7329 8.26653L22.3341 7.7376V7.74241ZM10.5199 12.4739C10.5391 12.5027 11.77 11.9161 12.0585 11.8055C12.6548 11.493 12.1066 10.7765 11.6306 11.2622L10.5199 12.4739ZM21.2089 5.15068C21.1897 5.12183 19.9251 5.62671 19.6222 5.71807C19.0019 5.99215 19.4972 6.74226 20.0068 6.29027L21.2089 5.15068ZM12.5202 14.1761C12.549 14.1905 13.4289 13.1903 13.6501 12.9788C14.0685 12.4643 13.2655 12.0171 13.0298 12.6422L12.5202 14.1761ZM19.2375 3.41484C19.2135 3.39561 18.2614 4.33325 18.0258 4.53039C17.5738 5.01604 18.3431 5.51612 18.622 4.91026L19.2327 3.41484H19.2375Z" fill="#FFE400"/>
<path fill-rule="evenodd" clip-rule="evenodd" d="M9.54307 11.2907C9.61653 11.5387 9.62702 12.9274 11.1067 14.2665C12.5758 15.5957 15.0943 15.8933 15.0943 15.8933C15.0943 15.8933 15.1048 16.0818 14.9264 16.0917C14.748 16.1115 13.8875 15.9429 13.4573 15.8139C13.0375 15.6949 12.6598 15.4767 12.6178 15.4866C12.5653 15.5064 12.4814 15.6453 12.3554 15.6255C12.2295 15.6056 11.6209 15.0105 11.348 14.8518C10.8023 14.4059 10.3192 13.8959 9.91036 13.3341C9.61653 12.8878 9.54307 12.5902 9.44863 12.5902C9.35418 12.5902 9.00789 12.8084 9.00789 12.8084C9.00789 12.8084 8.69307 12.362 8.42023 11.6478C8.13689 10.9337 8.16838 10.517 8.23134 10.4873C8.3048 10.4575 8.3048 11.013 8.51467 11.5189C8.72455 12.0347 9.01838 12.1934 9.01838 12.1934C9.01838 12.1934 8.82949 11.9256 8.68258 11.261C8.53566 10.5964 8.4727 9.95165 8.57764 9.75326C8.68258 9.55488 8.77702 9.49536 8.78751 9.50528C8.8085 9.52512 8.60912 9.81278 8.74554 10.5766C8.88196 11.3403 9.24925 11.9851 9.3332 11.9553C9.41715 11.9256 9.28073 11.7669 9.22826 11.3205C9.17579 10.8741 9.28073 10.5964 9.39616 10.5567C9.44863 10.517 9.53258 11.0527 9.54307 11.2907ZM8.51467 12.5604C8.23134 12.3124 7.7906 11.4495 7.69615 11.4891C7.59121 11.5387 8.40974 12.7786 8.43072 12.8778C8.45171 12.9969 8.63011 13.3341 8.49369 13.2845C8.35727 13.2349 7.38134 12.2628 7.49677 12.4513C7.6122 12.6398 8.34677 13.4928 8.3048 13.5424C8.26282 13.592 7.69615 13.0663 7.67516 13.1357C7.66467 13.1952 8.23134 13.711 8.22085 13.7706C8.21035 13.8301 7.85356 13.4432 7.85356 13.5226C7.85356 13.6019 8.22085 13.9888 8.22085 14.0483C8.22085 14.1078 7.90603 13.7706 8.01097 13.9491C8.10541 14.1475 8.37825 14.3161 8.36776 14.3756C8.35727 14.4352 8.1369 14.2963 8.1369 14.326C8.1369 14.3558 8.54616 14.4947 8.6406 14.6038C8.74554 14.7129 9.41715 15.4469 9.92085 15.8139C10.4246 16.1809 11.8727 16.8257 11.9776 16.8257C12.0721 16.8257 12.219 16.6273 12.1875 16.548C12.156 16.4686 10.7394 16.0123 10.3511 15.6751C9.95233 15.3378 8.9869 14.5244 8.90295 14.4848C8.82949 14.4352 8.60912 14.455 8.60912 14.4054C8.60912 14.3558 8.89245 14.4352 8.87147 14.4054C8.86097 14.3756 8.48319 14.2169 8.49369 14.1872C8.51467 14.1574 8.75603 14.2467 8.75603 14.2169C8.75603 14.1872 8.31529 13.959 8.33628 13.9094C8.34677 13.8598 8.66159 14.0483 8.66159 14.0086C8.66159 13.9888 8.24183 13.711 8.25233 13.6615C8.26282 13.6119 8.57764 13.8797 8.56714 13.8202C8.55665 13.7606 8.31529 13.4234 8.31529 13.3837C8.31529 13.3341 8.69307 13.721 8.73504 13.6416C8.75603 13.5722 8.59863 12.9274 8.60912 12.9175C8.61961 12.9076 8.89245 13.0564 8.93443 12.9671C8.9869 12.8679 8.74554 12.739 8.51467 12.5604ZM13.3523 17.4407C13.153 17.4705 13.0585 17.401 13.174 17.2423C13.3314 17.2423 13.7511 17.1134 13.898 17.0538C14.0449 16.9943 14.2024 16.915 14.3283 16.8059C14.4542 16.6769 14.5382 16.8753 14.4647 16.9844C14.4122 17.0538 14.1709 17.1828 13.9925 17.2522C13.7301 17.3316 13.4993 17.4506 13.3523 17.4407ZM14.6641 16.9348C14.5277 16.7959 14.6431 16.6967 14.8425 16.5876C15.1363 16.4388 15.0524 16.2305 15.4301 16.0619C15.598 15.9627 17.9487 15.07 18.7147 14.5939C19.4808 14.1177 21.632 12.5803 22.2092 11.5189C22.7758 10.4674 22.503 10.3881 22.587 10.3484C22.6604 10.2988 22.7444 10.4972 22.7339 10.7353C22.7129 10.9634 22.524 11.6578 22.587 11.7272C22.6499 11.7966 23.4474 11.1816 23.7833 10.4377C24.1191 9.69375 24.3709 8.92004 24.5283 8.92004C24.6962 8.92004 24.2555 10.1897 23.9721 10.6857C23.6993 11.1816 23.374 11.4296 23.4475 11.5387C23.5314 11.6379 24.3499 10.9932 24.6333 10.517C24.9061 10.031 25.1684 9.60447 25.2209 9.69375C25.1374 10.2748 24.8951 10.8252 24.5178 11.2907C24.0771 11.7669 23.5524 12.114 23.6363 12.1835C23.7098 12.2628 24.3079 12.3422 24.9271 11.9454C25.5567 11.5387 25.6197 10.9535 25.6931 10.9833C25.7771 11.013 25.6197 11.8165 25.0215 12.3124C24.4234 12.8084 23.6363 12.858 23.6573 12.9671C23.6993 13.0663 25.3678 12.5108 25.3363 12.6398C25.3049 12.7588 23.1746 13.5523 23.1536 13.6317C23.1536 13.6912 23.5209 13.711 24.0981 13.5821C24.6647 13.4631 25.2104 13.0365 25.2839 13.1357C25.3049 13.2746 24.8746 13.6119 24.224 13.7706C23.5629 13.9293 23.2376 14.1376 23.2166 14.1872C23.2061 14.2368 24.3919 14.0483 24.3919 14.1078C24.3919 14.1673 22.8388 14.455 22.8283 14.5343C22.8073 14.6038 24.2975 14.2467 24.2765 14.336C24.2345 14.4054 22.2511 14.9609 22.2721 14.9906C22.2826 15.0303 23.9302 14.6534 23.8987 14.7129C23.8567 14.7823 21.1283 15.5064 21.1073 15.556C21.0863 15.5957 23.5209 15.0402 23.4999 15.0898C23.4789 15.1394 22.2407 15.4271 22.2407 15.4568C22.2407 15.4866 23.2376 15.3081 23.2166 15.3576C23.2061 15.3973 20.6981 16.0024 20.6456 16.0917C20.5931 16.1909 21.9468 15.8437 21.9258 16.0222C21.9049 16.2008 19.019 17.1134 19.0085 16.9447C18.9876 16.7761 20.761 16.3496 20.7505 16.3C20.7295 16.2504 19.7326 16.3992 19.7116 16.3099C19.7011 16.2107 20.3727 16.0123 20.3203 15.9726C20.2678 15.923 19.7641 16.1115 19.8061 16.0024C19.8585 15.8933 20.8135 15.4767 20.7925 15.4469C20.782 15.4172 20.4462 15.5461 20.4777 15.4469C20.5197 15.3378 22.545 14.7823 22.5135 14.7129C22.482 14.6534 21.5795 14.8518 21.4956 14.8716C21.4641 14.8121 22.7549 14.3558 22.7339 14.2764C22.6919 14.207 22.0413 14.5443 21.9993 14.455C21.9783 14.3558 23.1431 13.9293 23.0697 13.8598C22.9962 13.7904 22.4715 14.0384 22.3981 13.9689C22.3246 13.8995 23.4999 13.1357 23.3215 13.1159C23.1431 13.106 22.9228 13.354 22.9018 13.1952C22.9228 12.9969 23.8147 12.6695 23.6154 12.5108C23.3005 12.4215 22.2407 12.5803 21.7999 12.8282C21.3592 13.0762 19.89 14.455 19.5332 14.6732C19.1764 14.8815 17.9592 15.3676 17.7283 15.4668C17.3715 15.5858 17.3085 15.7643 16.9413 15.9429C16.2801 16.1115 16.2906 16.3 15.9758 16.4091C15.8604 16.4388 14.6746 16.9745 14.6641 16.9348ZM13.0061 17.6292C12.8067 17.7284 12.6283 17.9664 12.7437 18.0656C12.8067 18.1846 13.0061 17.7978 13.1635 17.8176L14.003 17.8573C14.4542 17.8871 14.6746 17.768 14.9264 17.7879C15.1783 17.8077 15.7345 17.6589 15.9968 17.6589C16.2592 17.6589 16.3116 17.6887 16.3326 17.5796C16.3641 17.4804 15.5141 17.5498 15.1363 17.5399C14.7585 17.52 14.2863 17.6093 14.003 17.6093C13.7406 17.5994 13.2894 17.52 13.0061 17.6292Z" fill="#FFE400"/>
<path d="M14.265 17.5101C14.265 17.4279 14.1851 17.3613 14.0866 17.3613C13.9881 17.3613 13.9082 17.4279 13.9082 17.5101C13.9082 17.5923 13.9881 17.6589 14.0866 17.6589C14.1851 17.6589 14.265 17.5923 14.265 17.5101Z" fill="#FFE400"/>
<path fill-rule="evenodd" clip-rule="evenodd" d="M18.4522 17.2224C18.6306 17.1927 19.1133 17.3514 19.4491 17.4208C20.0578 17.649 21.1911 17.5398 21.1911 17.6489C21.1911 17.7581 21.1177 17.887 20.8553 17.9068C20.593 17.9267 19.9319 17.8077 19.9528 17.8077C19.9738 17.8077 20.4775 18.0358 20.3306 18.0953C20.1837 18.1548 19.7535 17.9664 19.68 18.016C19.6065 18.0656 20.0788 18.1548 19.9948 18.1846C19.9319 18.2143 19.6065 18.1449 19.5016 18.1548C19.3967 18.1747 19.5856 18.2838 19.4596 18.3235C19.3337 18.3731 19.1238 18.2639 19.0399 18.2937C18.9454 18.3235 19.2288 18.4921 19.1028 18.5119C18.9769 18.5318 18.6831 18.4326 18.5152 18.4127C18.3473 18.4127 18.6726 18.5714 18.5677 18.5913C18.4627 18.6012 18.1689 18.4623 18.0954 18.4623C18.022 18.4623 18.0954 18.6607 17.9905 18.6607C17.8856 18.6607 17.7596 18.4921 17.6967 18.4921C17.6337 18.4921 17.6967 18.6905 17.5917 18.6905C17.4868 18.6905 17.4448 18.4822 17.3609 18.4921C17.2559 18.5119 17.3609 18.7599 17.2139 18.7401C17.0775 18.7301 17.0565 18.4822 16.9411 18.4921C16.8362 18.5119 16.9621 18.7401 16.8572 18.7401C16.7522 18.7401 16.7312 18.5119 16.6263 18.4921C16.5214 18.4822 16.5633 18.7103 16.5004 18.7103C16.4374 18.7103 16.3744 18.4921 16.3325 18.4921C16.301 18.4921 16.3325 18.7103 16.2065 18.6905C16.0806 18.6706 16.0806 18.4524 16.0491 18.4623C16.0072 18.4822 16.0072 18.6409 15.9232 18.6409C15.8393 18.6409 15.8288 18.4822 15.7973 18.502C15.7553 18.5119 15.6294 18.7103 15.5454 18.6805C15.451 18.6508 15.5664 18.4921 15.5244 18.4921C15.4825 18.4921 15.3775 18.6012 15.3146 18.5913C15.2516 18.5814 15.3146 18.4524 15.2936 18.4524C15.2726 18.4524 15.1152 18.5318 15.0417 18.5318C14.9683 18.5318 14.7689 18.631 14.7164 18.5417C14.6639 18.4425 14.8528 18.4425 14.8948 18.3532C14.9263 18.2639 14.7899 17.9961 14.9368 17.9068C15.0732 17.8077 15.5244 18.0358 16.196 17.8771C17.4133 17.5696 18.3578 17.2125 18.4522 17.2224Z" fill="#FFE400"/>
</g>
</svg>
